<?xml version="1.0" encoding="UTF-8"?>
<svg width="405px" height="258px" viewBox="0 0 405 258" version="1.1" xmlns="http://www.w3.org/2000/svg" xmlns:xlink="http://www.w3.org/1999/xlink">
    <title>工作區域 1</title>
    <defs>
        <rect id="path-1" x="0" y="0" width="405" height="258"></rect>
        <rect id="path-3" x="0" y="0" width="405" height="259"></rect>
    </defs>
    <g id="页面-1" stroke="none" stroke-width="1" fill="none" fill-rule="evenodd">
        <g id="首页-收起-第三页" transform="translate(-115, -426)">
            <g id="工作區域-1" transform="translate(115, 426)">
                <mask id="mask-2" fill="white">
                    <use xlink:href="#path-1"></use>
                </mask>
                <g id="蒙版"></g>
                <g mask="url(#mask-2)">
                    <mask id="mask-4" fill="white">
                        <use xlink:href="#path-3"></use>
                    </mask>
                    <g id="矩形"></g>
                    <g id="编组" mask="url(#mask-4)">
                        <g transform="translate(-88.5386, -4.8)">
                            <rect id="矩形" fill="#3E3A39" fill-rule="nonzero" x="88.5386038" y="4.80001629" width="405" height="259"></rect>
                            <path d="M324.202423,157.528768 C326.375079,155.113687 327.076184,151.981027 328.316601,149.133856 C329.140978,147.274321 327.546156,146.934821 326.113128,147.204878 C316.590423,148.979538 308.231091,152.559721 303.423513,161.564189 C303.277128,161.834246 302.884201,161.973133 302.39882,162.335781 C301.56314,159.951666 301.189213,157.429793 301.297083,154.905358 C301.297083,152.899221 300.734658,151.163141 298.145962,152.281948 C295.988715,153.215573 295.834626,151.572084 295.695946,150.468709 C294.9255,144.396286 291.666517,139.666433 287.837403,135.129477 C286.943687,134.080113 285.726383,133.185067 284.593829,133.25451 C283.260958,133.347101 283.599954,135.114045 283.168505,136.117113 C280.710784,141.888615 280.857169,147.984185 281.226982,154.758756 C277.536549,150.9008 273.283691,149.241879 268.661019,148.393129 C267.644031,148.207947 266.426727,147.837583 265.579238,148.65547 C264.56225,149.63539 265.579238,150.607595 265.956756,151.525789 C268.545452,158.161472 271.842958,164.334202 277.652116,168.84801 C280.217699,170.846431 280.610626,174.341739 283.268663,176.401887 C284.182972,177.245347 285.159027,178.019098 286.18865,178.716661 C289.332067,180.483604 291.158023,182.906401 290.187262,186.918674 C287.922152,182.590048 283.754043,180.313854 280.240812,177.343228 C275.178987,173.091761 269.200331,171.517715 262.743999,171.347965 C259.77008,171.270806 259.377153,172.119556 260.910339,174.681239 C262.443525,177.242922 263.891962,179.750593 265.486784,182.219684 C268.930675,187.620822 273.607278,191.332176 280.055905,192.728756 C282.267084,193.199426 284.455148,193.747256 286.635509,194.372245 C287.727992,194.583547 288.493529,195.574937 288.422942,196.687018 C288.253444,198.230201 286.935982,197.358303 286.111606,197.45861 C283.80027,197.767246 281.265505,197.373735 280.094428,200.205474 C279.809363,200.907622 278.846306,200.699292 278.129792,200.683861 C269.439169,200.537258 260.748545,200.444667 252.050218,200.21319 C247.735724,200.105167 247.758837,199.966281 248.667962,195.899995 C249.242983,193.59494 249.086796,191.167746 248.221104,188.955675 C244.245606,179.480536 242.827987,169.349544 240.300926,159.511757 C238.567424,152.714039 234.638153,148.670901 228.027732,146.741924 C226.71027,146.348412 225.092335,145.970332 224.275663,145.059855 C222.734772,143.277479 219.198428,141.97349 222.110712,138.462751 C223.297198,137.043023 223.027542,134.874852 223.26638,133.015317 C223.397355,131.996817 223.143108,130.739123 224.375821,130.276168 C227.580874,129.06477 226.263412,127.374986 225.277242,125.322553 C223.297198,121.171393 221.633036,116.966221 225.431331,112.699322 C227.134015,110.77806 225.924416,108.725628 224.090756,107.629968 C216.278441,102.923262 207.911404,100.685648 198.850967,103.393933 C194.058797,104.805945 189.960028,110.862935 189.890688,117.020233 C189.821348,122.2902 190.352955,127.444429 193.974048,131.935089 C196.986489,135.677306 195.838526,139.041444 191.339125,140.723513 C189.505465,141.402513 187.664101,143.516673 185.946008,142.405581 C185.175562,141.927195 186.084688,138.979717 186.177141,137.151046 C186.90136,123.910542 186.277299,110.670037 186.046166,97.4372493 C185.999939,94.937294 185.599307,92.4373387 185.999939,89.9296674 C195.615097,89.3201104 205.322708,90.747554 215.600449,88.7414171 C211.910015,86.6889846 208.573987,87.3216894 205.36123,87.1982348 C198.87408,86.9050301 192.356113,87.0130529 185.946008,85.7167798 C186.400615,85.1026717 186.400615,84.2630236 185.946008,83.6489155 C197.071238,84.0192793 208.157947,82.6381311 219.337109,83.340279 C234.268339,84.2739043 249.238092,82.9236198 264.184732,82.7847334 C269.28508,82.7847334 274.377723,82.3526424 279.478071,82.213756 C281.018962,82.213756 282.005132,81.773949 281.889565,80.0533008 C279.323982,78.0471638 276.496448,76.4422542 274.046432,74.2123558 C272.813719,73.0858327 271.126444,71.7895596 269.007719,72.4685598 C262.543683,70.0380477 256.156691,69.7062635 249.900675,73.14756 C245.886655,70.6707524 244.576898,66.3807057 242.8511,62.4918863 C239.838659,55.6710205 234.206704,53.2327925 227.264991,52.7081105 C220.700797,52.2142922 216.00108,55.6710205 211.794449,60.0459423 C211.470862,60.3854424 211.324477,60.8175335 211.925424,61.1416018 L211.925424,61.1416018 C210.384534,60.8483971 210.330603,62.1446703 209.822109,63.0320001 C207.97304,66.264967 208.234991,70.0303318 207.048505,73.4253328 C205.011743,73.5821433 202.989884,73.8942564 201.00051,74.3589581 C199.837137,74.7216059 197.641368,74.6444468 197.872501,76.5039815 C198.103635,78.3635162 200.114497,77.6690841 201.408846,77.8465501 C203.304141,78.0934593 205.392048,77.4607545 207.002279,79.2817096 C200.068271,78.8727663 193.272943,80.8248919 186.377457,79.5363347 C185.491445,73.6259465 186.238777,67.6924106 186.184846,61.7897383 C186.015348,42.8317439 186.12321,23.8814653 185.922894,4.93118678 C185.884372,1.73679944 186.770384,1.00378785 189.983141,0.918912821 C215.746833,0.309355816 241.464299,0.81089006 267.189468,0.81089006 C286.566169,0.81089006 305.950573,0.633424097 325.334978,0.679719566 C334.711298,0.679719566 344.095322,1.32014022 353.471642,0.679719566 C355.867727,0.517685425 356.59965,1.28927657 356.553423,3.57318636 C356.391629,13.4418371 355.875431,23.2564765 354.966306,33.0942636 C354.326836,40.115743 352.577925,153.462482 352.254338,189.302891 C352.15418,200.876758 352.608743,212.504637 351.645686,224.08622 C351.560937,225.112436 351.761253,226.223527 350.983103,227.118573 L349.596302,226.725062 L348.525383,225.012129 L348.525383,225.066141 C347.308079,223.083152 345.397374,221.979776 343.355694,220.95356 C333.470881,216.107968 323.616885,211.192932 313.67814,206.43993 C311.474666,205.382851 310.295885,204.125157 310.596359,201.648349 C310.919946,198.724019 309.224966,197.690087 306.559225,197.566632 C303.739395,197.427746 303.207788,196.841337 304.94129,194.071324 C307.001734,190.752356 309.9335,188.064466 313.416189,186.301402 C319.841703,182.821526 323.485909,176.533058 326.845051,170.298601 C327.615496,168.863442 327.399771,167.142793 325.30416,167.381987 C319.102075,168.099566 312.784423,168.631964 307.753415,172.976022 L307.799642,172.914295 C304.948994,173.84792 303.17697,176.077819 301.012019,178.485183 C299.971955,174.485245 300.438171,170.241862 302.321776,166.5641 C306.682496,157.868268 313.161942,151.533505 323.1238,149.33447 C324.202423,149.095277 325.781836,148.308254 326.244103,149.666254 C326.706371,151.024254 325.219411,151.981027 323.932767,152.281948 C318.200654,153.82513 312.907695,155.499483 311.089444,162.220042 C310.473087,164.534815 307.845869,166.132009 305.603873,167.567169 C303.52367,168.909737 301.535921,170.460635 301.597557,173.894216 C303.970529,169.874226 307.714893,168.593385 311.305168,167.142793 C315.250581,165.518638 318.93866,163.327453 322.253197,160.63828 C323.321041,159.866034 324.049748,158.710532 324.287172,157.413029 L324.202423,157.528768 Z" id="路径" fill="#90C8C5" fill-rule="evenodd"></path>
                            <path d="M0.977491283,37.8472651 C0.522928534,26.3968525 0.207045946,14.9464399 0.623086428,3.48059543 C0.692426508,1.28927657 1.09305808,0.0624466488 3.80502567,0.162753498 C20.2848514,0.764594592 36.7646772,0.286208081 53.2445029,0.162753498 C66.0878267,0.0933102946 78.923446,0.934344644 91.7667697,0.834037795 C107.506968,0.679719566 123.254871,0.656571831 138.995069,0.0624466488 C147.500785,-0.199894341 156.060433,0.425094487 164.596967,0.81089006 C171.207388,1.1040947 170.814461,1.2429811 170.852984,7.92496043 C170.891506,14.6069398 171.315251,21.3737941 171.091822,28.094353 C170.814461,36.4198215 172.52485,120.322643 172.52485,146.919389 C172.52485,147.760424 172.671235,148.632322 171.754405,149.079845 C166.754214,151.487209 165.313482,156.48712 163.279506,160.877473 C159.604482,169.01776 154.966401,176.687376 150.8137,184.573037 C148.456138,189.025118 146.252664,193.623802 145.998417,198.762599 C145.905964,200.637565 144.82734,200.830463 143.42513,200.830463 C136.275397,200.830463 129.125664,200.830463 121.975931,200.899906 C120.435041,200.899906 120.365701,199.997144 120.142271,198.901485 C116.998854,183.261332 109.795191,169.01776 103.993737,154.311233 C101.62847,148.292822 95.2800005,147.444071 90.1873568,145.237321 C86.3351301,143.562968 82.1978386,142.459593 77.7831869,139.442671 C83.8542961,138.424171 84.0469075,134.041533 85.7495916,130.021543 C87.2904823,126.433645 86.9052597,124.111155 85.3489601,121.094234 C84.0314985,118.555699 84.6324459,115.554209 84.0314985,112.815061 C83.8003649,111.781129 84.6093326,111.410765 85.1563487,110.808924 C87.6217738,108.108355 87.2365511,107.17473 84.3859034,104.636195 C80.8341504,101.54983 76.4580209,100.392443 72.1820493,99.289068 C65.1478834,97.4526811 58.7069603,99.026727 53.6913612,104.520456 C48.6757621,110.014185 48.7296932,116.163766 50.7097377,122.683712 C51.4562821,124.918503 52.5481714,127.022215 53.9456082,128.918168 C56.8578915,133.12334 55.8871304,136.865557 51.8885191,140.021365 C46.9268511,143.925616 40.9096731,145.592253 35.38558,148.261958 C31.4177865,150.18322 28.8676125,152.76805 27.449993,157.088961 C23.4821996,169.241521 17.3879769,180.614775 13.3431389,192.751904 C13.0426653,193.639233 12.7036693,194.518847 12.4109001,195.406177 C11.8407705,197.111394 12.6882604,199.973997 10.8700094,200.406088 C8.07329283,201.069656 4.95298922,200.683861 2.00218358,200.367508 C0.0991835993,200.166894 0.869628936,198.299644 0.854220029,197.173121 C0.630790881,179.588559 0.384248374,161.99628 0.30720384,144.404002 C0.2147504,123.794803 0.630790881,73.0704009 0.723244322,72.3759689 C1.68630099,72.2910938 69.3468104,72.3759689 70.7182031,72.3759689 C71.9355068,72.3759689 73.0757659,72.2525143 73.3146039,70.7479115 C74.70911,71.2725935 74.3778185,73.587367 76.1113205,73.6182306 C80.3564743,73.7262534 84.5862192,73.6182306 88.8621908,73.6182306 C85.9499074,71.9515937 82.8450127,72.0287528 79.8479804,71.9515937 C76.2577051,71.8512869 74.3624096,70.3158205 72.8523367,67.2140241 C70.0710291,61.5042496 65.3096769,57.6925893 59.3310211,55.4086796 C55.4787944,53.9349405 51.6265677,54.5367816 47.774341,55.7250319 C47.111758,55.9256456 46.3181993,56.2574298 46.8189888,57.1601915 C46.9730779,57.4302484 47.6433653,57.4148165 48.0748147,57.5382711 C46.6648997,59.204908 45.5323451,59.5907036 45.378256,56.8438391 C45.357925,55.3296207 45.4144974,53.8153465 45.547754,52.3068831 C45.9792034,52.6849628 46.3875394,53.626304 46.5647418,52.0831217 C46.8778841,49.0496367 46.3444693,45.9886242 45.0238512,43.2406872 C40.8018107,33.9815934 32.9586772,29.6915467 23.2587704,27.9786143 C17.626815,26.9909776 6.70960459,29.9538876 6.52469771,32.9476613 L6.59403779,32.8782181 L5.82359245,33.6035138 C4.584199,35.3983047 2.91894736,36.8565726 0.977491283,37.8472651 Z" id="路径" fill="#90C8C5" fill-rule="evenodd"></path>
                            <path d="M349.588597,226.779073 L350.975399,227.172585 C352.262042,233.677098 351.453075,240.251055 351.599459,246.801863 C351.653391,249.386694 349.411395,248.453068 348.117047,248.460784 C335.366176,248.530228 322.607601,248.460784 309.864436,248.460784 C276.481039,248.591955 243.105347,248.090421 209.706542,248.730841 C201.840295,248.877444 183.110769,249.047194 180.760911,248.931455 C178.411052,248.815716 176.238396,248.931455 173.973287,248.931455 C161.723206,248.098136 149.450012,248.399057 137.192227,248.375909 C92.6296685,248.29875 48.0645421,248.332186 3.49684753,248.476216 C0.522928534,248.476216 -0.0240876546,247.58117 0.0683657858,244.950045 C0.515224081,231.709541 1.03142246,218.469036 0.707835415,205.220816 C0.646199788,202.906043 1.47828075,202.28877 3.56618761,202.620554 C4.15740624,202.689965 4.75469772,202.689965 5.34591634,202.620554 C8.81292035,202.358213 12.2105843,202.080441 13.3739567,206.524806 C13.5511592,207.188374 14.5373292,207.651329 15.1536855,208.206874 C16.6021227,211.848784 20.107649,212.188285 23.2664749,212.921296 C31.4486043,214.850274 39.7154828,216.007661 48.1595637,215.189774 C43.5368917,221.285344 38.9142196,227.373198 34.3300699,233.4842 C33.7907582,234.20178 32.7891792,234.934792 33.4209444,235.945576 C33.906325,236.771178 34.9618351,236.362235 35.7322804,236.354519 C51.9116325,236.269644 68.0909845,236.123042 84.3165633,236.138474 C86.5662637,236.138474 87.1363933,235.204848 87.5370248,233.383893 C88.9546442,227.025982 89.409207,220.428878 92.3754215,214.449047 C99.5944943,214.101831 106.605547,212.550932 113.508737,210.591091 C116.058911,209.873511 118.747765,208.746988 118.901854,205.390567 C119.094466,203.075793 120.304065,202.427657 122.677037,202.504816 C128.386037,202.697713 134.156672,202.960054 139.819445,202.389077 C144.25721,201.941554 147.184903,203.932259 150.243571,206.316476 C150.231239,206.931564 150.642621,207.474502 151.237445,207.628181 C158.502745,208.646681 165.352004,211.308671 172.509441,212.697535 C174.905526,213.152773 177.625198,214.51849 179.767036,213.42283 C182.078372,212.250012 181.808716,213.322524 181.955101,214.703672 C181.500538,220.305423 181.05368,225.914891 180.583708,231.516643 C180.445028,233.121552 180.69157,234.255791 182.756364,234.255791 C203.224528,234.224928 223.695261,234.224928 244.168562,234.255791 C244.299537,233.846848 244.438218,233.422473 244.569193,233.005814 C241.125303,228.329971 237.719934,223.623265 234.222112,218.986003 C231.664234,215.614149 229.59944,211.108057 226.186368,209.348829 C222.881157,207.659044 218.058169,208.870443 213.859242,208.808715 C213.385251,208.762569 212.907909,208.762569 212.433918,208.808715 C209.783586,209.40284 207.410615,209.773204 208.828234,205.722351 C208.905279,205.506305 208.057789,204.95076 207.610931,204.57268 C212.656328,203.333618 217.932318,203.389349 222.950497,204.734714 C228.027732,206.092714 232.087979,209.919807 237.943363,209.642034 C246.6571,209.225375 245.316525,208.098851 245.501432,202.697713 C256.534209,202.234759 267.574691,202.211611 278.630582,202.311918 C280.048201,202.311918 280.379493,202.782588 280.317857,204.171453 C280.125246,208.029408 280.217699,211.887364 280.048201,215.74532 C279.92493,218.553911 280.433424,221.08473 282.359537,223.222038 C281.720067,224.410288 282.297901,225.459652 282.74476,226.53988 C285.425909,233.18328 290.718869,235.582928 297.614355,235.536633 C302.159982,235.536633 306.366614,234.965655 308.893674,230.544438 C310.604063,227.566096 309.625598,224.418004 309.66412,221.33164 C311.143375,217.581707 310.265067,213.685171 310.380634,209.858079 C310.449974,207.396704 310.881423,206.98776 313.385371,208.04484 C323.855723,212.44291 333.409245,218.399593 343.656168,223.02914 C345.266399,223.754436 346.907447,224.410288 348.533087,225.097004 L348.533087,225.042993 L349.588597,226.779073 Z M143.109247,232.180211 C144.89668,232.180211 146.676409,232.180211 148.502364,232.180211 C149.55017,232.180211 150.212753,232.025893 150.53634,230.791347 C151.907733,225.498232 153.402397,220.23598 154.881652,214.966013 C155.374737,213.191353 154.881652,212.257728 152.886198,212.350319 C149.650328,212.504637 146.499206,211.864216 143.355789,211.270091 C141.745559,210.969171 140.936591,211.439841 140.274008,212.813273 C137.92415,218.044661 135.512656,223.245186 133.116571,228.44571 C132.238263,230.343824 132.816097,231.208006 134.950231,231.485779 C137.653819,231.882269 140.378038,232.121862 143.109247,232.203359 L143.109247,232.180211 Z" id="形状" fill="#ECE5D2" fill-rule="evenodd"></path>
                            <path d="M201.231643,211.709898 C202.487469,213.152773 204.390469,212.651239 205.43057,212.118841 C211.232024,209.117352 217.410995,210.899727 223.389651,210.367329 C224.579908,210.187968 225.770161,210.691598 226.471432,211.671318 L241.441185,231.470347 C240.139133,232.604586 238.760035,232.203359 237.588959,232.241938 C225.439036,232.319098 213.289113,232.241938 201.13919,232.326813 C195.661323,232.326813 190.191161,232.496563 184.721,232.681745 C182.856522,232.743473 182.270983,232.133916 182.45589,230.258949 C183.087655,223.962765 183.596149,217.658866 184.050712,211.354966 C184.181688,209.61117 184.767226,209.734625 186.292708,210.043261 C189.459238,210.683682 192.564133,212.211432 195.938684,211.223796 C197.525801,213.08333 199.351757,212.358035 201.231643,211.709898 Z M224.753339,227.141721 L210.22274,227.141721 L210.22274,227.913312 L224.776453,227.913312 C226.586999,229.248165 228.628679,228.453426 230.562497,228.48429 C230.859628,228.514283 231.155984,228.420452 231.3819,228.224853 C231.607817,228.029254 231.743367,227.74914 231.756687,227.450357 C231.756687,226.725062 231.163444,226.447289 230.554793,226.485868 C228.628679,226.663334 226.548477,225.791436 224.776453,227.149437 L224.753339,227.141721 Z M231.032469,223.985913 C221.748602,222.735935 212.595712,225.428789 203.365777,224.317697 C212.618825,225.552243 221.856465,224.950402 231.032469,223.993629 L231.032469,223.985913 Z M195.49953,217.913491 C192.81838,216.123399 190.345251,217.003013 187.879825,217.913491 L195.49953,217.913491 Z M210.045538,213.283944 L210.045538,213.739183 L222.619206,213.739183 L222.619206,213.283944 L210.045538,213.283944 Z M201.077554,218.175832 C203.049894,218.592491 205.053052,219.202048 206.909825,217.743741 C204.922076,217.435104 202.965145,216.786968 201.046736,218.1604 L201.077554,218.175832 Z" id="形状" fill="#ECE5D2" fill-rule="evenodd"></path>
                            <path d="M117.738482,197.404598 C118.89415,203.507884 117.653733,205.645192 111.374604,206.524806 C102.506778,207.767067 93.5696118,208.492363 84.6786726,209.518579 C83.2533488,209.688329 83.207122,209.071056 83.0607374,208.013976 C82.6832192,205.25168 82.1439075,202.520247 81.6662314,199.781099 C86.1656321,197.466325 91.4585916,198.183905 95.9811057,196.1932 C99.2863162,194.734893 103.230996,195.166984 106.127871,192.674744 C107.992349,192.798199 108.862952,195.47562 111.21281,194.603722 C108.231187,191.633096 105.110883,189.241164 100.542142,190.359971 C99.486632,190.614596 99.0012514,190.012755 98.7701178,189.109993 C96.1583081,178.979002 95.1798426,168.878873 99.5405632,158.917632 C100.131384,158.995289 100.639261,159.375302 100.881138,159.9207 C103.53147,166.286327 106.274255,172.621091 108.862952,179.025297 C109.8106,181.394082 110.319093,183.940333 111.174288,186.363129 C112.029482,188.785925 112.97713,190.938664 113.762984,193.261154 C114.609067,195.513399 115.81371,197.613585 117.330146,199.480178 C117.445713,198.762599 117.592097,198.083598 117.738482,197.404598 Z" id="路径" fill="#90C8C5" fill-rule="evenodd"></path>
                            <path d="M207.618635,138.609353 C209.637202,142.513604 209.413773,145.762003 206.678692,148.717197 C205.777271,149.681686 204.906667,150.260379 203.658546,149.187867 C199.667639,145.854594 195.599688,142.853104 197.017307,136.433466 C197.664481,133.516851 199.467323,132.57551 201.801773,131.248373 C199.65223,129.99068 197.233032,129.597168 196.570449,127.081781 C196.031137,125.060212 196.154408,123.331848 198.11134,122.15903 C200.068271,120.986211 201.131485,122.421371 202.148473,123.756223 C202.780238,124.589542 203.311846,125.731497 204.575376,125.446008 C205.838906,125.160519 206.062335,124.057144 206.324287,123.00778 C206.55542,122.097302 206.786554,121.194541 207.094732,120.307211 C208.943801,114.821198 208.951505,114.828914 214.637392,115.315016 C215.111998,115.345935 215.588109,115.345935 216.062716,115.315016 C221.355675,115.129834 221.355675,115.129834 221.864169,120.623563 C221.907279,120.852357 221.92023,121.085827 221.902692,121.317995 C221.386493,124.142019 226.117027,126.287042 223.813396,128.624963 C221.509764,130.962885 222.095303,133.578579 221.378789,136.024522 C220.79325,138.022944 219.837898,139.172614 217.757696,139.149467 C214.560347,139.141751 211.362999,139.635569 207.618635,138.609353 Z" id="路径" fill="#ECE5D2" fill-rule="evenodd"></path>
                            <path d="M308.939901,200.714724 C308.939901,206.43993 308.88597,212.141989 308.939901,217.844048 C308.978423,220.768378 307.144764,222.164958 304.748679,222.751367 C299.062861,224.07676 293.152944,224.111033 287.452181,222.851674 C283.284071,222.002924 282.059063,220.112526 281.96661,215.976797 C281.912679,211.293239 281.881861,206.625112 281.797112,201.956986 C281.797112,200.151463 282.051359,199.256417 283.815679,200.923054 C284.119439,201.110402 284.468248,201.211734 284.824962,201.216258 C292.760549,202.358213 300.6345,201.91069 308.939901,200.714724 Z" id="路径" fill="#ECE5D2" fill-rule="evenodd"></path>
                            <path d="M142.816478,258.908128 C151.144992,258.908128 159.48121,259.023867 167.80202,258.846401 C170.537101,258.79239 171.492453,259.617992 171.130344,262.210539 C171.014799,263.140578 171.014799,264.081375 171.130344,265.011414 C171.361477,266.948108 170.668077,267.704267 168.58017,267.68112 C151.568737,267.480506 134.554736,267.344192 117.538166,267.272176 C115.43485,267.272176 114.718336,266.593176 115.011106,264.641051 C115.03,264.173555 114.999007,263.705376 114.918652,263.244471 C114.548838,259.000719 114.548838,258.977572 119.24085,258.977572 C127.091688,258.977572 134.942526,258.977572 142.801069,258.977572 L142.816478,258.908128 Z" id="路径" fill="#90C8C5" fill-rule="evenodd"></path>
                            <path d="M98.4234174,156.301938 C94.3015349,166.818725 94.2398993,177.806183 94.694462,188.816789 C94.8100288,191.463346 94.1705592,192.559006 91.3661382,192.85221 C86.4506969,193.361461 81.6739358,195.00495 76.5042476,194.673166 C81.2810087,186.224242 83.8542961,176.880274 88.1996078,168.284748 C89.1087333,166.486941 89.0393932,164.804872 87.2442556,163.26169 C83.6231625,160.175325 83.7002071,160.059587 87.8914297,157.46704 C90.5879884,154.018028 92.8299843,153.153846 95.441794,154.658449 C96.4202596,155.237142 97.1136604,156.31737 98.4234174,156.301938 Z" id="路径" fill="#90C8C5" fill-rule="evenodd"></path>
                            <path d="M339.187585,250.497785 C342.384933,250.451489 345.613099,250.605808 348.795038,250.297171 C352.300565,249.957671 351.599459,252.249297 351.545528,254.101116 C351.491597,255.952934 352.416131,258.553196 348.741107,257.627287 C348.533087,257.580992 348.217204,257.897344 347.970662,258.067094 C348.741107,259.610276 351.191123,257.827901 351.414553,259.756879 C351.628993,261.967692 351.654768,264.192794 351.491597,266.407994 C351.422257,267.727415 350.166431,267.503654 349.26501,267.503654 C341.298605,267.503654 333.332201,267.565381 325.381205,267.503654 C321.475047,267.465074 322.468921,264.417289 322.260901,262.102516 C322.052881,259.787742 322.807917,258.722947 325.458249,258.815537 C330.80514,259.016151 336.159735,258.892697 341.51433,258.884981 C342.679007,258.923622 343.836762,258.691199 344.896585,258.20598 C338.571229,256.408173 332.014739,257.434389 325.635452,256.662798 C325.789541,255.752321 326.405897,254.641229 326.043788,253.977661 C324.279468,250.451489 326.898982,251.230797 328.740346,251.09191 C332.191941,250.806421 335.720581,251.678319 339.187585,250.497785 Z" id="路径" fill="#90C8C5" fill-rule="evenodd"></path>
                            <path d="M339.187585,250.497785 C335.743694,251.678319 332.191941,250.829569 328.69412,251.084194 C326.852755,251.223081 324.233241,250.443774 325.997561,253.969945 C326.336557,254.633513 325.743314,255.744605 325.589225,256.655082 L274.893922,256.778537 C273.02174,251.084194 273.02174,251.122774 279.408731,251.068762 C281.003553,251.068762 282.698533,251.547149 284.177788,250.513217 L339.187585,250.497785 Z" id="路径" fill="#ECE5D2" fill-rule="evenodd"></path>
                            <path d="M309.748869,221.33164 C309.748869,224.418004 310.704221,227.566096 308.978423,230.544438 C306.451363,234.965655 302.244731,235.513485 297.699104,235.536633 C290.803618,235.582928 285.510658,233.221859 282.829509,226.53988 C282.38265,225.459652 281.804816,224.410288 282.444286,223.222038 C289.832857,226.346982 297.475675,225.86088 305.172423,224.826947 C307.406715,224.572322 308.701063,223.090867 309.748869,221.33164 Z" id="路径" fill="#90C8C5" fill-rule="evenodd"></path>
                            <path d="M191.161923,143.431797 C193.088036,141.186467 194.613518,141.325354 196.008024,144.010491 C196.685049,145.109648 197.489313,146.124891 198.404109,147.035128 C199.706161,148.516583 202.379607,149.627674 202.256335,151.309743 C202.109951,152.852925 199.767797,154.149199 198.404109,155.576642 C198.187505,155.85011 197.999072,156.144814 197.841684,156.456256 C197.795457,156.726313 197.764639,156.99637 197.726117,157.266427 L198.627538,157.096677 C202.094542,157.497904 200.877238,160.021007 200.807898,161.911405 C200.438084,172.713681 199.159145,183.515958 199.159145,194.318234 C199.159145,196.069745 200.414971,197.898417 199.028169,199.626781 L199.082101,199.688508 C197.88791,191.679392 196.770765,183.670276 195.468712,175.684307 C194.536473,169.982249 194.890878,164.257043 194.698267,158.547268 C194.698267,157.775677 193.712097,155.761824 196.154408,156.842052 L196.878627,157.243279 L196.76306,156.471688 C195.083489,153.231005 194.65204,149.681686 193.997161,146.170946 C193.773732,144.990412 194.212886,142.65249 191.500919,143.670991 C191.382987,143.598513 191.269761,143.518622 191.161923,143.431797 L191.161923,143.431797 Z" id="路径" fill="#ECE5D2" fill-rule="evenodd"></path>
                            <path d="M98.4234174,156.301938 C97.1136604,156.301938 96.4202596,155.237142 95.441794,154.658449 C92.8299843,153.153846 90.5879884,154.018028 87.8914297,157.46704 C88.2997657,152.698607 85.0176686,149.272742 83.4767779,144.990412 C91.0348467,148.701765 100.935069,148.354549 104.178644,159.11053 C107.607126,170.506931 113.262195,181.178036 116.582814,192.651597 C117.037377,194.194779 117.353259,195.822836 117.738482,197.404598 C117.592097,198.083598 117.445713,198.762599 117.299328,199.480178 C115.782892,197.613585 114.578249,195.513399 113.732166,193.261154 C112.961721,190.94638 111.929324,188.685618 111.14347,186.363129 C110.357616,184.04064 109.802895,181.394082 108.832134,179.025297 C106.251142,172.621091 103.500652,166.286327 100.85032,159.9207 C100.608443,159.375302 100.100566,158.995289 99.5097454,158.917632 C99.1938628,158.030302 101.05834,156.240211 98.4234174,156.301938 Z" id="路径" fill="#ECE5D2" fill-rule="evenodd"></path>
                            <path d="M307.722598,173.030034 C312.237407,172.713681 316.197496,170.290885 320.704601,169.835647 C321.991245,169.704476 323.231662,169.18751 324.834188,169.727624 C320.781646,177.651865 316.128156,184.742787 306.882812,187.589959 C305.786298,187.978804 304.564591,187.716194 303.723986,186.910959 C302.814861,186.139367 303.854962,185.236606 304.278707,184.465015 C306.959857,179.526831 312.245112,178.469751 316.813852,176.347876 C317.946407,175.83091 319.394844,175.884921 320.296265,174.426614 C308.739585,175.036171 302.483569,182.659491 296.774569,191.11613 C296.774569,186.779788 298.646751,183.461946 301.397241,180.483604 C303.631533,178.07624 306.512998,176.185842 307.76112,172.968307 L307.722598,173.030034 Z" id="路径" fill="#90C8C5" fill-rule="evenodd"></path>
                            <path d="M245.578477,202.720861 C245.39357,208.121999 246.734145,209.248522 238.020408,209.665181 C232.165023,209.942954 228.104776,206.115862 223.027542,204.757862 C218.009362,203.412497 212.733373,203.356766 207.687975,204.595828 L204.398173,202.535679 L230.593315,202.535679 C226.378979,193.94787 222.989019,185.560674 221.15536,176.648796 C219.652991,176.587069 219.914943,177.675013 219.614469,178.346297 C217.403291,183.747435 215.246044,189.194868 212.988639,194.549711 C212.618825,195.429325 212.472441,196.648439 211.13957,196.864484 L211.193501,196.864484 C211.632655,193.191711 213.651222,190.082198 215.045728,186.748924 C216.825457,182.428014 218.666821,178.137967 219.46038,173.184352 C221.00127,174.287727 222.172347,175.499126 222.542161,177.281501 C224.430012,185.151342 227.219546,192.776362 230.855266,200.00486 C233.952457,206.424499 240.185359,207.597317 245.578477,202.720861 Z" id="路径" fill="#90C8C5" fill-rule="evenodd"></path>
                            <path d="M266.973744,175.861773 C271.519371,181.124025 275.872387,186.602322 283.222436,188.353834 C285.515333,188.723683 287.396637,190.371149 288.068537,192.597585 C279.139076,191.825994 272.143432,188.461857 267.405193,181.124025 C266.311161,179.441956 265.332695,177.705876 264.254072,176.016092 C263.745578,175.2445 262.990541,174.303159 263.483626,173.462125 C264.331116,171.965238 264.970586,173.92508 265.794962,173.801625 C273.499416,172.605659 278.337812,177.744456 283.669294,181.75673 C285.70327,183.299912 286.41208,186.170231 288.291966,187.389345 C292.344509,190.012755 291.589472,194.140768 292.706618,197.736382 C290.903776,194.441688 289.624837,190.838358 286.543055,188.477289 C285.77261,187.906311 285.156254,186.934106 284.331877,186.75664 C278.715331,185.56839 275.248327,181.448093 271.32676,177.898774 C270.140274,176.818546 268.92297,175.545421 266.996857,175.915785 C266.956283,175.835584 266.920272,175.75315 266.888995,175.668876 L266.973744,175.861773 Z" id="路径" fill="#90C8C5" fill-rule="evenodd"></path>
                            <path d="M216.756117,147.59839 C216.894797,144.141661 214.444781,143.362354 210.369125,144.697207 C211.57102,142.18182 212.595712,141.155604 214.791481,141.456524 C217.102817,141.772877 219.568242,142.382434 220.955044,144.589184 C222.238622,146.837972 222.965168,149.362173 223.073768,151.950164 C223.250971,154.37296 223.54374,156.579711 225.10004,158.817325 C227.318922,162.011712 223.605376,163.05336 221.84876,164.642838 C219.799376,166.486941 219.190724,164.565679 218.212258,163.26169 C215.58504,159.781814 213.735971,156.240211 215.523404,151.687823 C216.00108,150.491856 214.999501,149.612243 213.68204,149.203299 C212.364578,148.794356 210.060947,148.562879 210.916141,146.888526 C211.648064,145.499662 214.044149,144.9364 215.924036,145.99348 C216.301554,146.309832 216.478756,147.065992 216.756117,147.59839 Z" id="路径" fill="#ECE5D2" fill-rule="evenodd"></path>
                            <path d="M194.729084,208.878159 C191.292898,207.91367 187.733441,207.821079 184.212506,207.404419 C179.936534,206.902885 178.773162,204.696134 180.853364,201.355145 C181.577583,200.190042 182.332619,199.511042 184.01219,199.912269 C185.640957,200.23518 187.315324,200.253492 188.950744,199.966281 C192.317591,199.472462 195.661323,198.916917 199.051283,199.711656 L198.997352,199.649928 C199.690752,201.872111 202.133064,202.350497 203.419708,203.955407 C204.244084,204.981623 206.547716,205.722351 204.798805,207.512442 C202.849578,209.518579 202.834169,206.555669 201.794068,206.115862 C201.293279,205.907533 200.977396,205.267112 200.253178,205.498589 C199.382574,206.740851 202.210109,207.643613 200.599878,208.963034 C200.08368,208.746988 199.313234,208.669829 199.058987,208.284033 C197.125169,205.074214 195.861639,206.362771 194.729084,208.878159 Z" id="路径" fill="#ECE5D2" fill-rule="evenodd"></path>
                            <path d="M285.834246,136.225136 C291.227363,141.16332 293.931626,147.482651 295.295314,154.295801 C295.803808,156.834336 292.660391,158.477825 291.443088,160.831178 C290.125626,154.426971 289.848266,147.868447 286.820416,141.919479 C287.590861,148.863799 289.131752,155.692381 289.293545,162.829599 C281.450412,157.605927 280.757011,144.535173 285.834246,136.225136 Z" id="路径" fill="#90C8C5" fill-rule="evenodd"></path>
                            <path d="M217.62672,267.233597 C216.325591,267.303077 215.02169,267.303077 213.720562,267.233597 C212.033287,267.040699 209.359841,268.105495 208.866756,266.616324 C208.296627,264.872528 209.398364,262.580902 209.8067,260.52847 C210.053242,259.286208 211.131866,259.324788 212.048696,259.317072 C216.193692,259.317072 220.361801,259.047015 224.475979,259.378799 C228.328206,259.687435 227.110902,263.136448 227.503829,265.374062 C227.958392,267.935745 225.739509,267.264461 224.375821,267.326188 C222.133825,267.434211 219.87642,267.326188 217.62672,267.326188 L217.62672,267.233597 Z" id="路径" fill="#90C8C5" fill-rule="evenodd"></path>
                            <path d="M163.140826,164.388213 C165.906724,152.528857 175.467951,148.354549 185.753396,145.098434 C187.540829,144.527457 189.351376,144.010491 191.146514,143.462661 C191.251867,143.549218 191.362512,143.629105 191.477805,143.701854 C189.147536,145.850632 187.583533,148.704169 187.024631,151.826709 C185.907485,156.849768 186.562364,157.775677 191.724348,158.5627 C190.953902,160.42995 189.066311,160.877473 187.540829,161.579621 C185.499149,162.513247 184.913611,163.740076 185.167858,166.008554 C185.684056,170.553226 187.232651,174.850989 187.941461,179.341649 L187.078562,179.341649 C186.169437,176.085535 185.244902,172.837136 184.35889,169.581021 C183.23404,165.460725 183.018315,161.618201 188.16489,159.781814 C184.243323,155.97787 184.243323,155.97787 186.200255,147.490367 C173.641996,151.186289 170.020903,154.072039 163.85734,165.236963 C163.618502,164.912895 163.395073,164.642838 163.140826,164.388213 Z" id="路径" fill="#ECE5D2" fill-rule="evenodd"></path>
                            <path d="M304.286411,267.357051 L300.719249,267.357051 C295.557266,267.357051 295.77299,267.357051 295.526448,262.388004 C295.387768,259.355651 296.420164,258.599492 299.317039,258.800106 C302.87311,259.020001 306.43934,259.020001 309.995411,258.800106 C312.214294,258.676651 312.792128,259.363367 312.815241,261.523822 C312.815241,267.696552 312.953921,267.696552 306.77495,267.495938 C305.950573,267.495938 305.110788,267.495938 304.286411,267.495938 L304.286411,267.357051 Z" id="路径" fill="#90C8C5" fill-rule="evenodd"></path>
                            <path d="M281.61991,169.388124 C276.226792,166.132009 272.274408,161.749371 270.101752,155.916142 C269.739642,154.928506 269.200331,154.002596 268.830517,153.022675 C268.460703,152.042755 267.143242,151.170857 268.16023,150.229515 C269.038537,149.411629 270.117161,150.530436 271.087922,150.808209 C277.906363,152.752619 282.336424,157.605927 286.242582,163.037929 C286.776701,163.807849 287.168158,164.667722 287.39825,165.576463 C287.531858,166.129851 287.422484,166.714048 287.097776,167.181373 C286.627804,167.675191 286.011448,167.181373 285.510658,166.895884 C282.374946,165.013202 280.34097,162.112019 278.060452,159.403734 C276.457926,157.50562 275.541096,154.843631 272.135727,153.894573 C274.855399,159.689223 279.824772,163.616622 281.61991,169.388124 Z" id="路径" fill="#ECE5D2" fill-rule="evenodd"></path>
                            <path d="M209.637202,182.134809 C209.467704,186.172803 209.303342,190.210797 209.144117,194.24879 C208.708811,195.87122 208.708811,197.579976 209.144117,199.202406 C209.144117,199.619065 209.144117,200.04344 209.144117,200.467815 L207.711088,200.467815 C207.888291,198.153042 208.057789,195.838268 208.234991,193.577506 C208.234991,192.805915 208.234991,192.096051 208.281218,191.347608 C208.400777,180.889341 207.960994,170.432166 206.963756,160.021007 C206.578534,155.97787 208.758894,157.744813 210.500101,158.408382 L210.461578,158.35437 C212.233603,159.28028 213.027161,160.885189 212.503258,162.652133 C210.738939,168.624248 210.577145,174.804693 209.698837,180.892548 C209.113299,181.216616 209.09789,181.633275 209.637202,182.134809 Z" id="路径" fill="#ECE5D2" fill-rule="evenodd"></path>
                            <path d="M118.955786,205.452294 C118.778583,208.808715 116.089729,209.935238 113.562668,210.652818 C106.62866,212.597228 99.6484255,214.148126 92.4293527,214.510774 C91.2736847,211.964523 92.1365835,210.838 94.948709,210.614239 C99.6253122,210.220727 104.286506,209.626602 108.955405,209.071056 C112.553385,208.646681 116.266931,208.407488 118.955786,205.452294 Z" id="路径" fill="#90C8C5" fill-rule="evenodd"></path>
                            <path d="M182.009032,214.765399 C181.862647,213.384251 182.116894,212.311739 179.820967,213.484558 C177.679129,214.580217 174.959457,213.214501 172.563372,212.759262 C165.405935,211.370398 158.556676,208.708408 151.291376,207.689908 C150.696552,207.536229 150.28517,206.993291 150.297232,206.378203 C157.488325,207.566454 164.694557,208.744416 171.916198,209.912091 C174.281465,210.305602 176.74689,210.583375 178.904137,209.541727 C181.985919,208.060272 182.756364,209.256238 182.463595,212.049398 C182.401959,212.998455 182.155417,213.862637 182.009032,214.765399 Z" id="路径" fill="#90C8C5" fill-rule="evenodd"></path>
                            <path d="M163.140826,164.388213 C163.379664,164.642838 163.603093,164.912895 163.834226,165.159804 C160.382631,173.084045 155.875526,180.475888 151.622668,188.369266 C157.015785,188.623891 161.576822,190.684039 166.045405,192.674744 C169.574044,194.217927 173.672813,193.292017 176.877866,195.637654 L176.931797,195.599075 C170.097947,196.663871 164.311903,193.523495 158.325542,191.146994 C155.89864,190.182505 153.371579,189.256596 150.875336,191.424767 C150.067778,190.029589 150.106433,188.299429 150.975494,186.941822 L163.140826,164.388213 Z" id="路径" fill="#90C8C5" fill-rule="evenodd"></path>
                            <path d="M263.344946,267.249029 C260.317096,267.249029 257.836262,267.249029 255.355428,267.249029 C253.899286,267.287608 253.14425,266.75521 253.175068,265.242892 C253.175068,263.344778 251.634177,260.551618 253.082614,259.787742 C254.916274,258.830969 257.705286,259.479106 260.016622,259.672004 C261.703898,259.81089 261.557513,261.54697 261.996667,262.665777 C262.522931,264.169796 262.972932,265.699499 263.344946,267.249029 L263.344946,267.249029 Z" id="路径" fill="#90C8C5" fill-rule="evenodd"></path>
                            <path d="M266.688679,250.03483 C240.493537,250.065694 214.298396,250.147997 188.103255,250.281739 C187.1522,250.307542 186.200451,250.279204 185.252607,250.196864 C184.351186,250.088842 173.695927,250.24316 173.364635,250.466921 C172.178149,250.466921 170.983959,250.389762 169.789769,250.366614 C129.056324,249.857364 88.3151746,250.142853 47.5663208,250.173717 C32.6736124,250.173717 17.7886085,250.343467 2.88049126,250.173717 C-0.971735418,250.135137 0.407361734,252.619661 0.0837746925,254.409752 C-0.363083603,256.878844 1.03142246,256.894276 2.98835361,256.871128 C14.7684628,256.755389 26.5639809,257.094889 38.3517946,257.156617 C67.0354744,257.318651 95.7191543,257.094889 124.410539,256.986866 C140.728571,256.925139 157.046603,256.793969 173.364635,256.701378 C173.4406,256.823703 173.575226,256.896978 173.71904,256.894276 C173.826903,257.542412 173.942469,258.182833 174.050332,258.838685 C175.475656,260.975993 174.520303,263.375641 174.820777,265.644119 C174.936344,266.631756 174.435554,267.958893 175.768425,268.390984 C177.101295,268.823075 177.725356,267.619392 178.58055,266.847801 C180.491255,265.026846 180.822546,261.763016 183.973668,261.107163 C185.27572,259.942061 182.078372,256.709094 186.023052,256.763105 C205.422866,257.033162 224.830384,256.593355 244.230197,257.05631 C254.454007,257.295503 264.685521,256.863412 274.917035,256.739957 C273.044853,251.045615 273.044853,251.084194 279.431845,251.030183 C281.026667,251.030183 282.721646,251.508569 284.200901,250.474637 C278.353221,250.351183 272.544063,250.03483 266.688679,250.03483 Z M269.000015,252.349604 C268.522339,252.295592 268.044663,252.087263 268.22957,251.531717 C268.29891,251.315672 268.791995,251.161353 269.100173,251.138206 C269.554736,251.084194 270.032412,251.138206 270.070934,251.794058 C269.901436,252.395899 269.462282,252.473058 268.99231,252.419047 L269.000015,252.349604 Z" id="形状" fill="#90C8C5" fill-rule="evenodd"></path>
                            <path d="M106.127871,192.674744 C103.230996,195.166984 99.2863162,194.734893 95.9811057,196.1932 C91.4585916,198.183905 86.1656321,197.504905 81.6662314,199.781099 L78.7924703,196.656155 C86.3736524,196.270359 93.2537292,193.917006 100.287895,192.250369 C102.190895,191.795131 104.278802,191.332176 106.127871,192.674744 Z" id="路径" fill="#ECE5D2" fill-rule="evenodd"></path>
                            <path d="M227.688736,162.459235 C227.734963,161.880542 227.781189,161.31728 227.819712,160.746303 C235.262214,171.293954 245.539954,180.167252 247.789655,193.654665 C243.251732,182.690355 236.232975,173.230648 229.090946,163.80952 C228.628679,163.354281 228.158708,162.906758 227.688736,162.459235 Z" id="路径" fill="#90C8C5" fill-rule="evenodd"></path>
                            <path d="M174.697506,170.645817 C176.115125,176.347876 175.560405,182.065366 174.389328,187.751993 C174.173603,188.785925 174.104263,189.835289 173.942469,190.884653 C173.834607,191.656244 174.335396,192.859926 173.264477,192.960233 C172.097043,193.055555 170.928818,192.785978 169.920745,192.188642 C169.034733,191.62538 169.920745,190.64546 170.298263,190.028187 C174.011809,184.102367 174.312283,177.428103 174.697506,170.645817 Z" id="路径" fill="#90C8C5" fill-rule="evenodd"></path>
                            <path d="M312.34527,164.125872 C314.217452,157.953143 319.695318,155.761824 324.81878,153.176994 C324.979825,153.345594 325.152301,153.502858 325.334978,153.647664 C325.650861,155.136835 324.564533,156.217063 324.202423,157.50562 L324.256354,157.443893 C321.213095,160.962348 317.27612,163.130519 312.96933,164.750861 C312.76131,164.557963 312.55329,164.388213 312.34527,164.125872 Z" id="路径" fill="#90C8C5" fill-rule="evenodd"></path>
                            <path d="M176.893275,195.653086 C178.272372,196.687018 180.159963,195.714814 181.816421,197.011087 C179.173793,199.217837 178.23385,202.296486 177.494222,205.444578 C177.124409,206.98776 176.369372,207.975397 174.543417,207.605033 C172.309125,207.149794 173.341522,205.552601 173.657405,204.57268 C174.612757,201.540327 175.83006,198.592849 176.947206,195.614507 L176.893275,195.653086 Z" id="路径" fill="#ECE5D2" fill-rule="evenodd"></path>
                            <path d="M299.116723,165.159804 C300.14912,171.903511 296.920954,177.991365 295.457108,184.519026 C295.071885,179.719729 294.686662,174.912716 294.286031,170.113419 C296.150509,170.668965 296.142804,168.855726 296.851614,168.053271 C297.652877,167.150509 297.806966,165.730782 299.116723,165.159804 Z" id="路径" fill="#90C8C5" fill-rule="evenodd"></path>
                            <path d="M239.260825,165.159804 C238.898716,163.817236 238.49038,162.497815 238.174497,161.132098 C237.111282,156.294222 235.092716,152.513425 229.453056,151.456345 C227.403671,151.07055 224.984473,150.082913 223.928963,147.366912 C235.108125,149.681686 237.858614,152.552005 239.969635,163.662917 C239.738501,164.179883 239.499663,164.673702 239.260825,165.159804 Z" id="路径" fill="#ECE5D2" fill-rule="evenodd"></path>
                            <path d="M227.688736,162.459235 C228.158708,162.906758 228.628679,163.354281 229.090946,163.80952 C228.143299,166.309475 221.733194,170.476067 219.337109,170.159715 C218.855736,170.163312 218.448153,169.804902 218.389461,169.326396 C218.281598,168.67826 218.528141,168.400487 219.159906,168.022407 C222.033667,166.247748 224.845793,164.326486 227.688736,162.459235 Z" id="路径" fill="#ECE5D2" fill-rule="evenodd"></path>
                            <path d="M297.891715,161.078087 C295.279905,161.988565 294.432415,165.013202 291.843719,166.085714 C291.697335,163.493167 294.208986,159.349723 298.893294,154.295801 C300.226164,156.842052 298.253824,158.86362 297.860897,161.116667 L297.891715,161.078087 Z" id="路径" fill="#90C8C5" fill-rule="evenodd"></path>
                            <path d="M292.829889,176.270717 C292.429258,177.744456 294.124237,180.1904 292.059444,180.414161 C290.295124,180.614775 290.102513,177.952785 289.848266,176.263001 C289.64795,174.889569 289.463043,173.50842 289.355181,172.127272 C289.270432,171.139636 288.746529,169.704476 290.06399,169.434419 C291.173432,169.202942 291.751266,170.653533 292.028626,171.540863 C292.411318,173.095638 292.67913,174.676534 292.829889,176.270717 L292.829889,176.270717 Z" id="路径" fill="#90C8C5" fill-rule="evenodd"></path>
                            <path d="M296.55114,197.790394 C297.691399,193.585222 300.403367,191.386187 302.437343,188.793641 C302.945836,188.130073 303.739395,188.369266 304.355751,188.793641 C305.126197,189.287459 304.987517,190.005039 304.579181,190.614596 C302.706998,193.423188 300.734658,196.162336 296.55114,197.790394 Z" id="路径" fill="#90C8C5" fill-rule="evenodd"></path>
                            <path d="M210.523214,158.346654 C210.677303,156.124472 209.051663,154.658449 207.872882,153.161562 C206.694101,151.664675 207.102437,150.846788 208.419898,150.167788 C209.73736,149.488788 211.57102,149.80514 211.7097,151.008823 C211.971651,153.439335 212.927003,156.217063 210.484692,158.284927 L210.523214,158.346654 Z" id="路径" fill="#ECE5D2" fill-rule="evenodd"></path>
                            <path d="M299.116723,165.159804 C297.806966,165.71535 297.652877,167.135078 296.851614,168.053271 C296.142804,168.824862 296.150509,170.668965 294.286031,170.113419 C293.700492,167.798646 295.310723,166.255464 296.235258,164.473088 C296.813092,163.354281 298.323164,162.652133 297.891715,161.062655 L297.891715,161.062655 C299.632921,160.491678 300.603683,160.761735 299.887168,162.852747 C299.602104,163.655201 299.37097,164.388213 299.116723,165.159804 Z" id="路径" fill="#ECE5D2" fill-rule="evenodd"></path>
                            <path d="M294.386189,196.795041 C293.484768,192.991097 292.560233,189.187152 291.712743,185.375492 C291.535541,184.603901 291.535541,183.515958 292.483189,183.315344 C293.823764,183.045287 293.492472,184.295265 293.584926,184.989697 C294.09342,188.886232 294.547982,192.790483 295.025658,196.687018 L294.386189,196.795041 Z" id="路径" fill="#90C8C5" fill-rule="evenodd"></path>
                            <path d="M239.260825,165.159804 C239.499663,164.65827 239.738501,164.164452 239.969635,163.662917 L243.783339,177.250637 L242.797169,177.520694 L239.260825,165.159804 Z" id="路径" fill="#90C8C5" fill-rule="evenodd"></path>
                            <path d="M187.024631,179.310786 L187.88753,179.310786 C189.022653,183.024711 190.152639,186.738637 191.277489,190.452562 C191.277489,190.452562 191.138809,190.583732 191.138809,190.583732 C188.434546,187.319902 187.833599,183.276764 187.024631,179.310786 Z" id="路径" fill="#90C8C5" fill-rule="evenodd"></path>
                            <path d="M191.83221,192.04204 C193.619643,192.389256 193.373101,193.917006 194.313044,195.591359 C193.032226,194.797506 192.153863,193.490649 191.90155,192.00346 L191.83221,192.04204 Z" id="路径" fill="#90C8C5" fill-rule="evenodd"></path>
                            <path d="M209.159526,199.163826 C208.72422,197.541396 208.72422,195.832641 209.159526,194.210211 C209.452293,195.8484 209.452293,197.525637 209.159526,199.163826 L209.159526,199.163826 Z" id="路径" fill="#90C8C5" fill-rule="evenodd"></path>
                            <path d="M208.304331,191.28588 C208.304331,192.057472 208.304331,192.775051 208.258105,193.515779 C207.859596,192.821361 207.877388,191.963135 208.304331,191.28588 Z" id="路径" fill="#90C8C5" fill-rule="evenodd"></path>
                            <path d="M211.154979,196.879916 C211.154979,197.2117 211.077935,197.528053 211.031708,197.852121 L210.731234,197.736382 L211.20891,196.918496 L211.154979,196.879916 Z" id="路径" fill="#90C8C5" fill-rule="evenodd"></path>
                            <path d="M207.734202,200.406088 L209.16723,200.406088 C209.421477,201.115952 208.866756,201.177679 208.443011,201.177679 C208.019267,201.177679 207.503068,201.077372 207.734202,200.406088 Z" id="路径" fill="#90C8C5" fill-rule="evenodd"></path>
                            <path d="M209.637202,182.134809 C209.09789,181.671855 209.113299,181.255195 209.721951,180.8694 C209.691133,181.255195 209.660315,181.671855 209.637202,182.134809 Z" id="路径" fill="#90C8C5" fill-rule="evenodd"></path>
                            <path d="M191.90155,192.00346 C191.254376,191.748835 191.19274,191.185574 191.131105,190.614596 C191.131105,190.614596 191.269785,190.491141 191.269785,190.483426 C191.579913,190.575452 191.826574,190.811805 191.932065,191.118029 C192.037555,191.424253 191.988887,191.762647 191.801392,192.026608 L191.90155,192.00346 Z" id="路径" fill="#90C8C5" fill-rule="evenodd"></path>
                            <path d="M312.96933,164.774009 C312.560994,165.098077 312.198885,165.692202 311.621051,165.067213 C311.56712,165.013202 312.091023,164.457656 312.34527,164.133588 L312.96933,164.774009 Z" id="路径" fill="#90C8C5" fill-rule="evenodd"></path>
                            <path d="M324.81878,153.176994 L325.489067,152.906937 C325.435136,153.153846 325.381205,153.393039 325.327273,153.678528 C325.147866,153.521735 324.97806,153.354253 324.81878,153.176994 L324.81878,153.176994 Z" id="路径" fill="#90C8C5" fill-rule="evenodd"></path>
                            <path d="M270.070934,251.863501 C269.901436,252.395899 269.462282,252.473058 268.99231,252.419047 C268.522339,252.365036 268.036958,252.156706 268.221865,251.60116 C268.291205,251.385115 268.78429,251.230797 269.092468,251.207649 C269.554736,251.153637 270.032412,251.230797 270.070934,251.863501 Z" id="路径" fill="#90C8C5" fill-rule="evenodd"></path>
                            <path d="M281.935792,80.0533008 C279.84501,80.2795408 277.776002,79.4668454 276.39629,77.8774137 C274.362314,75.7092426 271.550189,74.2355035 269.077059,72.4762757 C271.195784,71.7972755 272.883059,73.0935486 274.115772,74.2200717 C276.527266,76.4268224 279.370209,78.0471638 281.935792,80.0533008 Z" id="路径" fill="#33424D" fill-rule="evenodd"></path>
                            <path d="M349.588597,226.779073 L348.517678,225.066141 L349.588597,226.779073 Z" id="路径" fill="#33424D" fill-rule="evenodd"></path>
                            <path d="M143.109247,232.203359 C140.37606,232.132388 137.649263,231.903099 134.942526,231.516643 C132.808393,231.23887 132.230559,230.374688 133.108866,228.476574 C135.504951,223.276049 137.916445,218.075525 140.266304,212.844137 C140.898069,211.447557 141.707036,210.976886 143.348085,211.300955 C146.491502,211.89508 149.642623,212.535501 152.878494,212.381182 C154.904765,212.288591 155.367032,213.222217 154.873947,214.996876 C153.394692,220.266844 151.900028,225.529095 150.528636,230.822211 C150.205048,232.056757 149.542466,232.241938 148.49466,232.211075 C146.676409,232.180211 144.89668,232.203359 143.109247,232.203359 Z M146.761158,230.598449 C147.870599,230.768199 148.879883,230.806779 149.326741,229.433347 C150.728951,225.097004 152.208206,220.791526 153.602712,216.455184 C154.280704,214.379603 153.471737,213.42283 151.214332,213.42283 C148.716302,213.438596 146.219174,213.322697 143.733308,213.075614 C142.527645,212.849641 141.342403,213.557216 140.967409,214.726819 C139.064409,218.870264 137.223045,223.060004 135.327749,227.203448 C134.595826,228.800642 134.988753,229.518222 136.807004,229.680256 C140.127623,229.927165 143.440538,230.289813 146.761158,230.598449 Z" id="形状" fill="#33424D" fill-rule="evenodd"></path>
                            <path d="M231.032469,223.993629 C221.856465,224.950402 212.618825,225.536811 203.365777,224.325413 C212.595712,225.436505 221.748602,222.743651 231.032469,223.993629 Z" id="路径" fill="#90C8C5" fill-rule="evenodd"></path>
                            <path d="M230.539384,226.516732 C228.605566,226.663334 226.548477,225.791436 224.753339,227.149437 L210.22274,227.149437 L210.22274,227.921028 L224.776453,227.921028 C226.586999,229.255881 228.628679,228.461142 230.562497,228.492005 C230.859628,228.521999 231.155984,228.428168 231.3819,228.232569 C231.607817,228.03697 231.743367,227.756856 231.756687,227.458073 C231.756687,226.755925 231.148036,226.478153 230.539384,226.516732 Z" id="路径" fill="#90C8C5" fill-rule="evenodd"></path>
                            <path d="M195.49953,217.913491 L187.879825,217.913491 C190.314433,217.003013 192.787562,216.123399 195.49953,217.913491 Z" id="路径" fill="#90C8C5" fill-rule="evenodd"></path>
                            <polygon id="路径" fill="#90C8C5" fill-rule="evenodd" points="210.01472 213.268512 222.588388 213.268512 222.588388 213.723751 210.01472 213.723751"></polygon>
                            <path d="M201.046736,218.1604 C202.965145,216.786968 204.898963,217.435104 206.879007,217.728309 C205.022234,219.171184 203.019076,218.577059 201.046736,218.1604 Z" id="路径" fill="#90C8C5" fill-rule="evenodd"></path>
                            <polygon id="路径" fill="#33424D" fill-rule="evenodd" points="196.755356 156.471688 196.870923 157.243279 196.146704 156.842052"></polygon>
                            <path d="M198.581311,157.096677 L197.67989,157.266427 C197.718412,156.99637 197.74923,156.726313 197.795457,156.456256 L198.581311,157.096677 Z" id="路径" fill="#33424D" fill-rule="evenodd"></path>
                            <path d="M266.973744,175.861773 L266.819655,175.653444 C266.850932,175.737718 266.886943,175.820152 266.927517,175.900353 L266.973744,175.861773 Z" id="路径" fill="#33424D" fill-rule="evenodd"></path>
                            <path d="M538.455567,126.580247 L538.455567,243.368283 C538.455567,248.321898 538.455567,248.329614 533.832895,246.771 C530.805045,245.752499 527.83883,244.402215 524.726231,243.754078 C521.736903,243.144521 521.35168,241.701646 521.690676,239.124531 C523.162227,228.005903 524.479688,216.864127 525.827968,205.730067 C526.652344,198.893769 525.219316,196.849053 518.447101,195.375313 C510.742648,193.708677 503.115239,192.080619 495.426195,190.560585 C493.654171,190.205653 493.284357,189.279743 492.937656,187.721129 C491.142519,179.495968 490.456822,171.077908 488.176304,162.937622 C486.05758,155.422324 481.673746,149.781993 475.325276,145.360775 C470.563924,142.066081 465.871912,138.655648 461.1799,135.245215 C457.759122,132.768408 456.934746,129.959816 458.629726,126.032417 C459.785394,123.34728 461.303171,120.808745 462.481952,118.13904 C467.705572,106.565173 463.699256,93.9882369 453.167268,89.6596105 C446.194738,86.7970074 438.983369,87.2368143 431.818228,89.3355422 C429.329689,90.1071334 426.979831,91.187361 424.321795,91.4959975 C419.013426,92.1055545 416.617341,96.5576354 419.95337,100.647068 C422.264706,103.486524 421.085924,106.048206 421.301649,108.717912 C421.533073,111.536736 420.596986,114.32685 418.712953,116.433823 C416.956337,118.486256 416.863884,120.5927 419.152107,122.151314 C420.347529,122.920058 421.015935,124.291584 420.885609,125.708349 C420.885609,127.104929 420.885609,128.524657 421.031993,129.921237 C421.386398,133.717465 423.143013,135.615579 426.99524,136.240568 C428.536131,136.487477 430.077021,136.379454 431.617912,136.603216 C433.405516,136.912558 434.922035,138.092863 435.66275,139.751308 C436.248289,140.900979 435.393094,141.850036 434.491673,142.421013 C423.882641,149.187867 418.990313,160.607416 411.432244,169.851078 C406.501394,175.877205 402.109856,182.327707 395.892362,187.219595 C392.633378,189.773562 388.781151,191.53279 385.876572,194.557427 C384.813358,195.660802 383.418852,196.617575 382.794791,197.92928 C381.207674,201.239406 379.058131,201.424588 375.860783,200.159179 C372.844937,199.072496 369.755252,198.203519 366.615439,197.558916 C364.134605,196.957075 363.348751,195.653086 363.287115,193.083688 C362.51667,162.389792 363.371864,131.68818 363.210071,100.978853 C363.048277,69.0812747 363.248593,37.1914126 363.317933,5.30155053 C363.317933,-0.35421257 363.017459,0.556264982 368.025354,0.540833159 C399.356798,0.43795434 430.70365,0.365939166 462.065912,0.324787638 C486.596891,0.324787638 511.127871,0.417378576 535.65885,0.324787638 C538.147389,0.324787638 537.900846,1.55161756 537.970186,3.13337941 C539.033401,27.1530118 538.34,51.188076 538.486385,75.2077084 C538.586543,92.3293159 538.486385,109.443208 538.486385,126.564815 L538.455567,126.580247 Z" id="路径" fill="#90C8C5" fill-rule="evenodd"></path>
                            <path d="M410.900637,222.087799 L412.071714,222.326992 C418.135119,225.984334 425.284851,226.609323 431.733479,229.178722 C437.950973,231.670961 443.860288,230.637029 449.515357,227.635539 C451.996191,226.33155 454.446207,225.421073 457.258333,225.667982 C467.181669,228.044483 476.804531,231.377756 486.535256,234.33295 C503.199988,239.394588 519.918652,244.309624 536.467818,249.764773 C538.185911,250.328035 538.324591,251.122774 538.316887,252.511638 C538.278364,256.269287 538.170502,260.026936 538.386227,263.769153 C538.532611,266.446574 537.777575,267.372483 534.872996,267.349758 C514.841417,267.225881 494.809839,267.30304 474.816782,267.295324 C438.952552,267.295324 403.088321,267.225881 367.224091,267.295324 C364.072969,267.295324 363.22548,266.570028 363.29482,263.437368 C363.741678,242.696998 363.764791,221.941197 363.22548,201.200827 C363.179253,199.403019 363.610702,198.886053 365.421249,199.36444 C369.442973,200.38294 373.495516,201.293418 377.555763,202.188463 C379.096653,202.535679 379.628261,203.222395 379.312378,204.881316 C378.249164,210.552511 381.746985,214.14041 385.714779,217.296218 C387.32501,218.577059 389.305054,218.692798 391.678026,217.959786 C395.622706,216.76382 399.921791,215.74532 403.519771,219.364082 C404.806414,220.660355 406.763346,220.74523 408.435212,221.33164 C409.028455,222.404151 409.952989,222.303844 410.900637,222.087799 Z" id="路径" fill="#ECE5D2" fill-rule="evenodd"></path>
                            <path d="M486.573778,165.931395 C488.546118,172.775409 489.193292,179.858616 490.526163,186.818368 C493.607944,202.736293 494.424616,218.970571 498.145867,235.127689 C494.686567,235.127689 491.83592,233.646234 488.854296,232.812916 C480.194491,230.305245 471.580912,227.643255 462.921106,225.158732 C460.216843,224.387141 459.893256,223.522958 461.118264,220.837821 C466.573017,208.970749 474.215835,198.253348 479.608952,186.393993 C479.909426,185.722708 481.149843,185.066856 480.286944,184.356992 C479.223729,183.485094 478.345422,184.403287 477.659725,185.298333 C473.252778,191.123846 468.761082,196.8722 464.438883,202.774873 C459.407875,209.61117 454.515547,216.540059 448.259531,222.419583 C444.183876,226.277539 439.553499,227.743562 433.929248,226.038346 C425.978252,223.630981 417.957916,221.509106 409.976103,219.186616 C403.134548,217.195911 401.886427,213.785478 405.530633,207.458431 C407.662921,207.484302 409.792339,207.623384 411.90992,207.87509 C421.155264,209.418272 430.315859,211.246943 439.645952,208.847295 C439.784633,208.152863 439.931017,207.458431 440.077402,206.771715 C442.612167,203.731646 443.698495,199.889122 445.763288,196.609859 C451.926851,186.849231 457.58192,176.818546 463.853345,167.127362 C466.226317,163.462304 469.246462,160.607416 472.397584,157.868268 C474.408446,156.10904 477.020256,155.661517 479.477976,157.71395 C482.397964,160.051871 484.208511,163.230826 486.573778,165.931395 Z" id="路径" fill="#90C8C5" fill-rule="evenodd"></path>
                            <path d="M438.590442,140.646353 C439.861677,137.559989 442.381033,135.060034 442.866414,130.893441 C438.572254,133.517472 433.557323,134.708905 428.543835,134.296158 C425.392714,134.080113 423.697734,132.799272 423.443487,129.666611 C423.25858,127.459861 423.004333,125.25311 422.796313,123.046359 C422.711564,122.12045 422.919584,120.785597 422.025868,120.461529 C418.474115,119.103529 420.176799,117.21313 421.255422,115.315016 C422.965811,112.38297 422.796313,109.011116 423.412669,105.847593 C423.705438,104.397001 423.874936,103.856888 425.616143,104.30441 C428.474495,105.076002 431.849046,104.157808 434.314471,104.991127 C436.479422,105.724138 435.678159,109.960174 437.311503,112.34439 C439.907904,116.125187 439.946426,116.264073 443.528997,113.594368 C445.9559,111.781129 447.543017,112.21322 448.683276,114.990948 C450.054669,118.316506 448.683276,121.001643 444.106831,123.779371 C446.764867,124.458371 448.683276,123.779371 449.854353,121.672927 C451.834398,118.185335 451.510811,113.91072 449.022272,111.927731 C446.849616,110.199367 444.584507,110.23023 442.673803,112.290379 C441.687633,113.339743 441.240774,112.915368 440.447216,112.182356 C438.505693,110.407696 437.08037,108.3244 437.588863,105.70099 C438.266855,102.213398 436.687442,102.105376 433.875317,102.529751 C430.925439,103.049155 427.893969,102.847992 425.038309,101.943342 C422.726973,101.17175 421.07822,99.6285681 421.016584,97.1286128 C420.962653,95.1533395 421.394102,93.710464 424.098366,93.4635549 C429.53771,92.9620206 434.460855,90.2537357 439.938722,89.5361559 C450.802001,88.1241441 461.303171,94.8755667 462.23541,104.836808 C462.967333,112.55272 459.608191,119.404449 455.586466,125.878099 C454.615705,127.421281 453.745102,125.345701 452.381414,126.248463 C453.178794,126.785922 453.901592,127.426769 454.530956,128.154293 C455.917758,130.299316 457.142766,132.706681 454.76209,134.82084 C451.063952,138.107819 447.689402,141.765161 443.20541,144.195673 C442.126786,144.774366 441.194548,145.491946 440.046584,144.411718 C439.46875,143.277479 438.336195,142.235831 438.590442,140.646353 Z" id="路径" fill="#ECE5D2" fill-rule="evenodd"></path>
                            <path d="M421.871779,165.159804 C421.918005,174.017671 421.969368,182.878109 422.025868,191.741119 C422.025868,196.247211 418.212163,197.844405 415.500196,200.328929 C413.160185,202.459564 409.830276,203.108091 406.863503,202.010997 C399.15905,199.279565 392.433062,201.239406 385.83805,204.973907 C386.292613,200.560406 389.92141,198.670008 393.095645,196.671587 C395.091099,195.429325 396.631989,194.163915 397.171301,191.880006 C401.223844,193.26887 404.29792,196.06203 407.919014,199.372156 C407.271839,197.234848 406.763346,196.038882 405.607678,194.881495 C403.542884,192.775051 400.684532,192.242653 398.342378,190.738051 C399.786609,190.746611 401.15184,190.07868 402.032811,188.932527 C403.994879,186.602322 405.972355,184.287549 407.96524,181.988207 C412.711184,176.417319 416.786839,170.383476 421.871779,165.159804 Z" id="路径" fill="#90C8C5" fill-rule="evenodd"></path>
                            <path d="M486.573778,165.931395 C484.208511,163.199963 482.397964,160.021007 479.555021,157.659938 C477.0973,155.607506 474.485491,156.055029 472.474628,157.814256 C469.323507,160.584269 466.311066,163.439156 463.930389,167.07335 C457.658964,176.764535 451.980782,186.79522 445.840333,196.555848 C443.775539,199.83511 442.689212,203.677634 440.154446,206.717703 C440.100515,206.486226 440.115924,206.108146 439.977244,206.054135 C435.670455,204.379782 438.351604,202.234759 439.514977,200.128315 C441.641406,196.270359 443.683086,192.366108 445.770993,188.477289 L445.770993,188.477289 C447.8589,185.452651 450.139418,182.536037 451.996191,179.380229 C456.618863,171.548579 462.882584,164.936043 468.029159,157.513336 L467.94441,157.513336 C469.06926,157.196984 469.546936,156.255642 470.093952,155.376028 L470.024612,155.422324 L470.795057,154.650733 L470.702604,154.71246 L471.419118,154.03346 C473.437685,153.470198 474.739738,152.220221 472.613308,150.715618 C470.070839,148.933242 467.828843,146.402423 464.361839,146.170946 C464.454292,145.746571 464.539041,145.306764 464.631495,144.874673 L465.001309,144.103082 C465.494394,142.799093 465.771754,141.109308 467.798025,142.613911 C471.742705,145.561389 475.980155,148.115356 479.470272,151.649243 C483.44577,155.700097 485.564495,160.530257 486.573778,165.931395 Z" id="路径" fill="#ECE5D2" fill-rule="evenodd"></path>
                            <path d="M445.770993,188.539016 C440.601305,184.441867 444.268625,191.517358 441.803199,191.11613 C442.173013,189.04055 440.616714,186.486583 443.582928,184.812231 C444.307147,184.411003 444.137649,183.593117 444.26092,182.914116 C446.911252,167.891237 451.071657,153.362176 458.652839,139.928774 C459.585078,138.277569 460.19373,137.351659 462.412612,138.293 C465.039831,139.419524 463.807118,140.731228 463.136831,142.150956 C461.859686,144.794049 460.962218,147.604755 460.47109,150.499572 C459.839325,154.403824 458.0673,157.281859 453.945418,158.385234 C451.634082,159.010223 451.379835,160.5997 453.043997,161.888258 C457.751418,165.522452 455.987098,169.241521 453.675762,173.184352 C450.95609,177.813899 448.375098,182.5669 445.724766,187.258175 C445.46191,187.652965 445.480525,188.171851 445.770993,188.546732 L445.770993,188.539016 Z" id="路径" fill="#90C8C5" fill-rule="evenodd"></path>
                            <path d="M397.171301,191.864574 C396.631989,194.179347 395.091099,195.413893 393.095645,196.656155 C389.92141,198.654576 386.292613,200.51411 385.83805,204.958475 C384.882698,206.424499 383.580645,207.674476 383.164605,209.696045 C380.537386,207.713056 380.221504,205.529453 381.392581,202.8366 C383.196085,198.956255 386.128783,195.712579 389.805844,193.531211 C398.650556,187.944891 405.276386,180.290707 411.516993,172.181284 C416.370799,165.861952 421.047402,159.403734 425.261738,152.652312 C426.802629,150.18322 429.298872,148.794356 431.386778,146.942537 L431.587094,147.150867 C431.448414,148.886947 428.844309,149.781993 429.95375,151.9193 L429.992272,151.880721 C427.218669,151.965596 428.636289,156.10904 425.762528,156.093608 C426.132341,159.017939 423.743961,160.437666 422.326341,162.428372 C421.840961,163.099656 422.002754,164.226179 421.871779,165.144372 C416.786839,170.383476 412.711184,176.417319 408.003763,181.934196 C406.016014,184.254113 404.038537,186.568887 402.071333,188.878516 C401.190362,190.024668 399.825132,190.6926 398.3809,190.684039 C397.556524,190.691755 396.755261,190.660892 397.171301,191.864574 Z" id="路径" fill="#ECE5D2" fill-rule="evenodd"></path>
                            <path d="M432.026248,162.382076 C431.556276,167.374271 431.186463,172.374181 430.616333,177.350944 C429.699503,185.275185 429.53771,193.222574 429.329689,201.169963 C429.283463,202.852032 429.060034,204.325771 427.103102,204.495521 C424.861106,204.688419 425.261738,202.852032 425.153876,201.532611 C424.206228,189.410914 423.512827,177.289217 424.098366,165.121225 C424.17541,163.408292 424.552928,161.895974 426.224795,161.008644 C427.958297,162.196894 430.215702,161.35586 432.026248,162.382076 Z" id="路径" fill="#90C8C5" fill-rule="evenodd"></path>
                            <path d="M464.384952,146.20181 C467.851956,146.433287 470.093952,148.964106 472.636422,150.746482 C474.762851,152.289664 473.460798,153.501062 471.442232,154.064323 L470.725717,154.743324 L470.818171,154.681596 L470.047725,155.453188 L470.117066,155.406892 C468.476017,155.22171 467.613118,155.792688 467.967523,157.5442 L468.052272,157.5442 C465.848798,157.173836 464.785584,158.994791 463.914981,160.229337 C458.961017,167.289396 459.038062,167.351123 454.893066,159.558052 C463.445009,158.825041 462.358681,151.518073 464.384952,146.20181 Z" id="路径" fill="#90C8C5" fill-rule="evenodd"></path>
                            <path d="M457.782236,135.839341 C454.700454,142.01207 453.090224,148.794356 447.804969,153.69396 C446.395054,154.990233 445.670835,155.098256 444.515167,153.493346 C441.117503,148.794356 441.294706,147.907026 446.056058,144.404002 C448.806548,142.382434 451.318199,140.044512 453.960827,137.884057 C455.03945,136.97358 455.95628,135.839341 457.782236,135.839341 Z" id="路径" fill="#ECE5D2" fill-rule="evenodd"></path>
                            <path d="M439.730701,208.855011 C430.369791,211.254659 421.178378,209.395125 411.994669,207.882806 C409.877088,207.6311 407.74767,207.492018 405.615382,207.466147 C407.248726,204.510953 409.606289,203.608191 413.011657,204.279475 C420.323183,205.699203 427.70405,207.111215 435.161961,206.447646 C437.70443,206.223885 438.867803,206.779431 439.730701,208.855011 Z" id="路径" fill="#ECE5D2" fill-rule="evenodd"></path>
                            <path d="M448.976046,155.76954 C447.003705,163.963838 443.729313,172.042397 442.411851,180.630207 C442.411851,176.317012 442.411851,171.996102 442.411851,167.690623 C442.411851,165.121225 442.411851,162.567258 442.4966,159.974712 C442.535122,158.69387 441.988106,156.82662 444.661552,158.18462 C447.334997,159.542621 446.988297,155.692381 448.976046,155.76954 Z" id="路径" fill="#ECE5D2" fill-rule="evenodd"></path>
                            <path d="M457.258333,225.69113 C454.446207,225.44422 451.996191,226.354698 449.515357,227.658687 C443.860288,230.637029 437.958677,231.670961 431.733479,229.201869 C425.284851,226.632471 418.135119,226.007482 412.071714,222.35014 C418.658604,223.695618 425.14357,225.500393 431.479232,227.751278 C437.958677,229.97346 443.644564,229.29446 449.199475,225.289902 C451.688013,223.445799 454.584888,225.174164 457.258333,225.69113 Z" id="路径" fill="#90C8C5" fill-rule="evenodd"></path>
                            <path d="M433.567139,199.742519 C433.567139,200.660713 433.490094,201.586622 433.443868,202.504816 C430.677969,200.876758 432.873738,198.207053 432.072475,196.170052 C431.944867,186.96655 432.423582,177.76464 433.505503,168.624248 C433.695924,167.718981 433.953452,166.829187 434.275948,165.962259 C435.300641,165.962259 435.624228,166.73385 435.863066,167.505441 C435.097757,178.014513 434.34272,188.523584 433.597957,199.032655 C433.528617,199.094383 433.366823,199.171542 433.382232,199.225553 C433.428047,199.403146 433.489939,199.576185 433.567139,199.742519 L433.567139,199.742519 Z" id="路径" fill="#ECE5D2" fill-rule="evenodd"></path>
                            <path d="M432.026248,162.382076 C430.23111,161.35586 427.973706,162.196894 426.224795,161.008644 C426.740993,160.190757 427.673232,159.9207 428.389746,159.380586 C429.268054,158.717018 432.457697,158.9022 429.545414,156.409961 C428.304997,155.345165 430.539289,153.501062 430.007681,151.880721 L429.969159,151.9193 C432.488515,149.67397 433.266665,146.294401 435.616523,143.825309 C433.940821,149.908238 432.740437,156.112565 432.026248,162.382076 L432.026248,162.382076 Z" id="路径" fill="#ECE5D2" fill-rule="evenodd"></path>
                            <path d="M401.208435,202.612838 C396.631989,202.504816 392.201929,203.160668 388.38052,205.984692 C385.653143,208.299465 384.620747,212.280875 386.069184,214.827126 C386.932083,216.331729 387.610074,216.370309 388.550018,214.912001 C390.360564,216.069388 391.986204,214.557069 393.704297,214.564785 C396.316107,214.564785 399.829337,215.776183 401.285479,214.564785 C402.972754,213.160489 402.82637,209.665181 403.504362,207.072635 C403.545596,206.84109 403.615475,206.615592 403.712382,206.401351 C405.137706,203.669918 403.658451,202.674566 401.208435,202.612838 Z" id="路径" fill="#ECE5D2" fill-rule="evenodd"></path>
                            <path d="M435.832248,167.520873 C435.59341,166.702986 435.269823,165.977691 434.245131,165.977691 C433.359863,162.674734 434.044936,159.147483 436.101904,156.417676 C437.63509,160.144462 436.464013,163.832667 435.832248,167.520873 Z" id="路径" fill="#90C8C5" fill-rule="evenodd"></path>
                            <path d="M438.590442,140.646353 C438.336195,142.235831 439.46875,143.277479 440.131333,144.504309 C439.283843,144.697207 438.813872,145.345344 439.183685,146.047491 C440.786212,149.087561 438.289969,149.681686 435.970928,151.271164 C436.957098,147.282037 437.77377,143.964195 438.590442,140.646353 Z" id="路径" fill="#90C8C5" fill-rule="evenodd"></path>
                            <path d="M419.229151,203.060361 C420.662179,201.733224 422.518953,201.324281 423.682325,199.132962 C424.306386,201.27027 424.768653,203.314986 423.751665,204.094293 C422.734677,204.8736 420.823973,203.831952 419.229151,203.060361 Z" id="路径" fill="#90C8C5" fill-rule="evenodd"></path>
                            <path d="M432.026248,196.170052 C432.796693,198.207053 430.631742,200.876758 433.397641,202.504816 C433.513208,203.353566 433.436163,204.202316 432.365244,204.310339 C431.294325,204.418362 431.348256,203.538748 431.402187,202.890611 C431.57939,200.652997 430.986147,198.338223 432.026248,196.170052 Z" id="路径" fill="#90C8C5" fill-rule="evenodd"></path>
                            <path d="M410.900637,222.087799 C409.952989,222.303844 409.028455,222.404151 408.450621,221.377935 C409.4522,220.999855 410.345916,220.976708 410.900637,222.087799 Z" id="路径" fill="#90C8C5" fill-rule="evenodd"></path>
                            <path d="M431.386778,146.942537 C431.386778,146.649333 431.486936,146.224957 431.864455,146.487298 C432.241973,146.749639 431.864455,147.019696 431.587094,147.150867 L431.386778,146.942537 Z" id="路径" fill="#ECE5D2" fill-rule="evenodd"></path>
                            <path d="M433.567139,199.742519 C433.490805,199.581151 433.428926,199.413314 433.382232,199.240985 C433.382232,199.186974 433.528617,199.109815 433.597957,199.048087 C433.567139,199.279565 433.567139,199.511042 433.567139,199.742519 Z" id="路径" fill="#90C8C5" fill-rule="evenodd"></path>
                            <path d="M465.009013,144.133945 L464.639199,144.905537 L465.009013,144.133945 Z" id="路径" fill="#90C8C5" fill-rule="evenodd"></path>
                            <path d="M467.94441,157.559631 C467.590005,155.808119 468.452904,155.244858 470.093952,155.422324 C469.546936,156.301938 469.06926,157.243279 467.94441,157.559631 Z" id="路径" fill="#33424D" fill-rule="evenodd"></path>
                            <path d="M470.710308,154.743324 L471.426823,154.064323 L470.710308,154.743324 Z" id="路径" fill="#33424D" fill-rule="evenodd"></path>
                            <path d="M470.024612,155.468619 L470.795057,154.697028 L470.024612,155.468619 Z" id="路径" fill="#33424D" fill-rule="evenodd"></path>
                            <path d="M146.761158,230.606165 C143.440538,230.289813 140.127623,229.927165 136.807004,229.680256 C134.988753,229.541369 134.595826,228.800642 135.327749,227.203448 C137.223045,223.060004 139.064409,218.870264 140.967409,214.726819 C141.342403,213.557216 142.527645,212.849641 143.733308,213.075614 C146.219174,213.322697 148.716302,213.438596 151.214332,213.42283 C153.471737,213.42283 154.296113,214.379603 153.602712,216.455184 C152.208206,220.791526 150.728951,225.097004 149.326741,229.433347 C148.879883,230.806779 147.870599,230.745052 146.761158,230.606165 Z" id="路径" fill="#ECE5D2" fill-rule="evenodd"></path>
                        </g>
                    </g>
                </g>
            </g>
        </g>
    </g>
</svg>