<?xml version="1.0" encoding="UTF-8"?>
<svg width="405px" height="258px" viewBox="0 0 405 258" version="1.1" xmlns="http://www.w3.org/2000/svg" xmlns:xlink="http://www.w3.org/1999/xlink">
    <title>工作區域 3</title>
    <defs>
        <rect id="path-1" x="0" y="0" width="405" height="258"></rect>
        <rect id="path-3" x="0" y="0" width="405" height="259"></rect>
    </defs>
    <g id="页面-1" stroke="none" stroke-width="1" fill="none" fill-rule="evenodd">
        <g id="首页-收起-第三页" transform="translate(-968, -426)">
            <g id="编组-7" transform="translate(115, 426)">
                <g id="工作區域-3" transform="translate(853, 0)">
                    <mask id="mask-2" fill="white">
                        <use xlink:href="#path-1"></use>
                    </mask>
                    <g id="蒙版"></g>
                    <g mask="url(#mask-2)">
                        <g transform="translate(0, -1)">
                            <rect id="矩形" fill="#3E3A39" fill-rule="nonzero" x="0" y="0" width="405" height="259"></rect>
                            <g id="Clipped" stroke-width="1" fill="none" fill-rule="evenodd">
                                <mask id="mask-4" fill="white">
                                    <use xlink:href="#path-3"></use>
                                </mask>
                                <g id="矩形"></g>
                                <g id="编组" mask="url(#mask-4)">
                                    <g transform="translate(-18.472, -41.6899)" id="路径">
                                        <path d="M252.702752,202.35062 C252.702752,202.99104 252.702752,203.631461 252.702752,204.271882 C258.041938,202.319756 263.365716,202.99104 269.213396,203.631461 C276.262971,204.403052 276.648193,206.571223 275.800703,209.919929 C273.304461,219.819443 270.022363,229.649515 268.674084,239.64162 C270.41529,241.539734 266.031457,244.425485 271.424574,245.752622 C271.509323,237.319131 275.276801,229.14798 276.62508,220.799364 C277.476212,215.995432 278.574272,211.238679 279.914881,206.548076 C280.523533,204.302745 279.429501,202.805859 275.70825,202.242597 C268.034614,201.069779 260.314752,198.824448 252.702752,202.35062 Z" fill="#90C8C5"></path>
                                        <path d="M97.4117902,130.754677 C93.8831506,125.947665 88.6287134,125.608164 83.3742762,125.885937 C78.4357216,126.155994 74.22909,128.856563 69.0825152,131.472257 C73.5510981,111.927853 81.8796122,95.6549961 98.5597537,85.1150611 C123.799543,69.1585562 150.033207,69.2511471 176.05885,83.3172537 C192.962421,92.4837565 203.702429,106.850784 209.419133,124.890585 C209.943036,126.549506 209.727311,127.575722 208.001514,128.401324 C202.854939,130.870416 200.22772,134.71294 200.751623,140.654192 C201.00587,143.647965 200.266243,146.742046 199.981178,149.782115 C199.526615,154.295923 200.928826,157.845243 205.374295,159.8128 C205.828858,162.528801 204.503692,164.820426 203.61768,167.235507 C202.939688,169.064178 201.699271,170.861985 202.808712,172.952997 C196.267631,182.404989 187.630939,188.161059 175.658219,188.816911 C169.867943,189.023839 164.126681,189.959672 158.569741,191.602355 C155.826956,192.474253 153.731344,190.884775 151.913093,189.133263 C150.618745,187.898718 149.401441,186.617876 147.637122,186.093194 C145.872802,185.568512 144.717134,185.792274 143.885053,187.844706 C141.774033,193.068378 140.071348,193.045231 134.639709,191.764389 C128.106332,190.221207 121.272482,189.7814 114.546494,189.194991 C106.071596,188.4234 99.515106,184.171932 93.313021,179.009988 C91.7721303,177.729146 91.5024745,176.054794 91.3792032,174.295566 C91.188807,171.361258 90.4023054,168.49676 89.0678672,165.877506 C87.2881385,162.405346 88.0354705,160.607539 91.7413125,159.666198 C101.626126,157.143095 103.205539,154.743446 101.271721,145.005966 C100.689024,142.292023 100.543369,139.502228 100.840272,136.742225 C101.14845,134.064803 100.532094,131.533984 97.3039278,130.685234 L97.4117902,130.754677 Z" fill="#ECE5D2"></path>
                                        <path d="M454.066345,309.401175 C454.14865,309.64172 454.075248,309.908198 453.881438,310.07246 C407.438994,310.07246 360.98114,309.771539 314.538695,310.219062 C305.701687,310.296221 298.598181,308.074039 292.157258,302.672901 C288.505347,299.586536 283.38959,298.166808 281.371023,293.267205 C280.022744,285.643884 279.830133,277.835382 277.88861,270.312368 C277.287663,267.997595 278.481853,267.519208 280.485011,267.550072 C286.289033,267.627231 292.090486,267.66581 297.889371,267.66581 L427.77875,267.66581 C434.612601,267.719822 441.46186,268.036174 448.288005,267.719822 C452.525455,267.519208 453.86603,268.661163 453.819803,272.989789 C453.742758,285.111486 453.257378,297.264047 454.066345,309.401175 Z" fill="#ECE5D2"></path>
                                        <path d="M304.676995,162.181585 C304.553723,161.626039 302.881857,161.031914 304.091456,160.715562 C311.79591,158.686277 318.067335,153.555196 325.663926,151.456468 C328.321962,150.684877 331.180314,149.650945 333.106428,153.601491 C334.369958,156.201753 335.209743,153.601491 335.749055,152.420957 C339.601282,143.81 345.526006,137.274623 355.302958,135.530827 C361.905674,134.358008 368.616253,134.442883 374.71818,138.208248 C375.442399,121.703913 393.208868,112.838331 405.397313,114.558979 C406.352666,96.9126897 421.353236,81.2416735 442.232305,77.1290927 L444.743957,77.0365018 L453.704236,77.1290927 L453.704236,77.1290927 C453.704236,105.513359 453.704236,133.897625 453.704236,162.281892 C446.415823,162.281892 439.135115,162.158437 431.846702,162.281892 C393.594091,163.107494 355.356889,163.315824 317.104278,162.281892 L310.855966,162.119857 C310.616574,161.82638 310.253842,161.662006 309.875693,161.675639 C309.497544,161.689273 309.147554,161.879344 308.929853,162.189301 L304.676995,162.181585 Z" fill="#ECE5D2"></path>
                                        <path d="M104.415138,214.179112 C101.07911,209.549565 96.0943287,209.549565 91.5872235,215.120453 C93.4131789,209.518702 92.1111263,204.773416 92.8661627,200.089858 L92.819936,200.136153 C100.746058,202.844242 108.856739,204.976784 117.088964,206.517212 C121.858021,207.419974 126.696417,207.967803 131.511701,208.600508 C132.189693,208.677667 133.422405,208.453906 133.537972,208.10669 C134.816911,204.04812 137.205292,206.254871 139.270085,207.088189 C143.043441,208.529183 147.111961,209.021946 151.119535,208.523349 C163.901223,207.18078 176.813887,207.018746 189.418372,203.963245 C194.686757,202.673215 199.81468,200.864013 204.727121,198.562107 C205.813449,199.457153 205.497566,200.568244 205.65936,201.50187 C206.098514,204.395336 207.35434,207.574292 206.553077,210.112827 C205.651656,213.014009 201.445024,212.118964 198.96419,213.538691 C193.455506,216.702215 187.808142,219.665125 182.422729,223.029263 C178.385595,225.536934 176.582753,229.340878 176.713729,234.217334 C176.960271,243.422417 176.813887,252.642931 177.037316,261.863445 C177.106656,264.756912 176.089668,265.721401 173.223611,265.682821 C158.199927,265.62881 143.176243,265.597946 128.160264,265.813992 C124.146243,265.875719 123.48366,264.054764 123.537592,260.783217 C123.699385,253.19076 123.77643,245.590588 123.645454,238.005847 C123.560705,232.82847 122.797964,227.759116 118.799353,223.816286 C117.104373,222.134217 115.355462,220.490728 112.63579,220.999978 C110.894584,221.331762 110.38609,220.266966 109.762029,218.986125 C108.745041,216.910545 107.620191,214.811817 104.992972,214.248555 C104.908317,214.319034 104.798434,214.35152 104.689131,214.338384 C104.579829,214.325249 104.48074,214.267648 104.415138,214.179112 L104.415138,214.179112 Z" fill="#90C8C5"></path>
                                        <path d="M132.158875,294.092807 C134.616595,293.066591 138.892567,294.864398 139.154519,290.435465 C139.401061,286.253441 135.094272,287.572862 132.92932,286.284305 C131.60588,285.627114 130.242001,285.054979 128.84596,284.571372 C124.677851,282.812145 122.28947,280.659405 123.499069,275.312279 C125.194049,267.758401 124.654737,267.596367 132.875389,267.596367 C146.404409,267.596367 159.941134,267.742969 173.470154,267.596367 C176.667502,267.557788 177.82317,268.506845 177.245336,271.531482 C176.813887,273.792244 176.636684,275.890972 179.271607,277.125518 C180.550546,277.719643 179.957304,278.606973 179.125223,279.062212 C175.00334,281.338405 171.613381,284.903157 166.898255,286.052827 C165.311138,286.430907 163.816474,286.36918 164.371194,288.483339 C164.833462,290.234851 164.286445,293.020295 167.730336,292.295 C169.186478,292.511045 169.872174,294.285705 171.520927,294.131387 L175.758376,294.902978 C186.482976,295.08816 193.609595,300.574173 198.817805,310.003017 L175.180542,310.003017 C156.127429,310.003017 137.097429,309.918141 118.059725,310.003017 C115.031875,310.003017 114.585017,309.516914 115.810025,306.615731 C118.69149,299.74857 122.112268,293.953921 131.049434,294.756375 C131.38843,294.794955 131.789061,294.332 132.158875,294.092807 Z" fill="#ECE5D2"></path>
                                        <path d="M254.875408,207.736326 C257.610489,215.59884 257.895554,223.986036 260.268525,231.933424 C261.254695,235.204971 258.612068,237.928688 254.212825,238.383926 C245.776449,239.26354 237.263028,238.92404 228.84206,238.569108 C223.156174,238.329915 217.585854,238.445654 212.123396,240.112291 C211.698623,240.228231 211.266051,240.313327 210.829048,240.366916 C208.795072,240.752711 206.067696,238.661699 204.804166,241.076779 C203.948971,242.704837 204.53451,245.081337 204.542214,247.118338 C204.542214,256.176818 204.457465,265.235298 204.688599,274.293778 C204.781052,277.9897 203.062959,279.355416 199.726931,279.139371 C197.045781,278.961905 194.118089,280.181019 191.760526,277.943404 C189.17183,276.585404 189.44919,274.131744 189.44919,271.847834 C189.397827,260.176232 189.369577,248.502058 189.364441,236.825312 C189.460764,235.235781 189.684919,233.656617 190.034729,232.103174 C190.889923,226.864071 195.843886,226.925798 199.149097,224.865649 C202.699252,223.556873 206.483825,223.00753 210.258919,223.253024 C220.068524,223.770062 229.898367,222.741614 239.389457,220.205239 C243.765586,219.047852 245.083048,214.904408 246.369692,211.146759 C247.020931,208.919043 247.550752,206.657516 247.956809,204.372189 C249.728833,204.896871 250.676481,206.440053 251.947716,207.574292 C252.918477,208.492485 253.827602,208.99402 254.875408,207.736326 Z" fill="#90C8C5"></path>
                                        <path d="M132.158875,294.092807 C131.789061,294.332 131.38843,294.794955 131.049434,294.764091 C122.112268,293.9925 118.722308,299.756286 115.810025,306.623447 C114.585017,309.52463 115.039579,310.018448 118.059725,310.010732 C137.097429,309.925857 156.127429,310.010732 175.180542,310.010732 L198.817805,310.010732 C193.609595,300.581889 186.49068,295.095876 175.758376,294.910694 C176.582753,293.776455 177.815466,293.938489 178.986542,293.915341 C186.259546,293.683864 193.524846,293.467818 200.782441,293.205477 C202.323332,293.159182 204.241741,293.830466 204.634668,291.415386 C210.59021,298.128229 216.514935,304.864219 223.356489,310.705164 C212.70123,310.766892 202.045971,310.867199 191.390712,310.874915 C143.669328,310.874915 95.9505122,310.874915 48.2342644,310.874915 C33.9604804,310.89549 19.694401,310.885202 5.43602593,310.844051 C3.89513526,310.844051 2.14622435,311.361017 0.767127196,310.07246 C3.92595307,309.52463 7.48541053,311.222131 10.2590137,309.077107 C14.68137,305.666674 18.7955481,301.909025 23.0329974,298.274831 C24.2965278,297.194604 25.3443334,295.960058 25.0977909,294.16225 C27.5323982,294.933841 29.2427868,293.390659 31.114969,292.341295 C33.4879406,294.74866 36.0689325,291.415386 38.4881309,292.603636 C38.4419041,293.14375 38.3956774,293.69158 38.3417463,294.231694 L38.3417463,294.154534 L37.4018029,295.381364 C37.7099811,298.058786 35.2060337,298.969263 33.9733212,300.67448 C33.3954872,301.446071 32.1165479,302.017048 32.5711107,303.189867 C33.0256734,304.362685 34.3662483,303.961458 35.329305,303.961458 C43.0337584,303.961458 50.7844384,303.915162 58.5120052,303.915162 C67.3336043,303.915162 78.3509726,300.242389 85.6393855,294.401444 C86.1941061,294.50175 86.4791709,298.622047 88.1587417,298.622047 C86.4945798,303.313321 80.5313329,305.234583 78.2893369,310.010732 C81.8025677,310.010732 84.9074624,310.010732 88.0200615,310.010732 C89.3506979,310.166933 90.6584094,309.572984 91.4177255,308.46755 C95.131272,303.205299 98.9526809,298.020206 101.872669,292.264136 C111.980912,292.919989 122.019814,294.270273 132.158875,294.092807 Z" fill="#90C8C5"></path>
                                        <path d="M83.3280494,297.580399 C76.047341,303.421344 67.3567176,303.845719 58.5351185,303.838003 C50.8306652,303.838003 43.0799851,303.899731 35.3524183,303.884299 C34.3893617,303.884299 33.0796046,304.393549 32.594224,303.112708 C32.1088435,301.831866 33.4186006,301.392059 33.9964346,300.59732 C35.2291471,298.892104 37.7330944,297.981626 37.4249163,295.304205 L38.3802685,294.115955 L38.3802685,294.193114 C44.8443049,290.173124 44.3049932,283.213372 45.40673,277.14095 C47.0940053,267.881856 46.816645,267.766117 56.1313291,267.688958 C64.2980496,267.619515 72.4570658,267.727538 80.6083774,267.627231 C83.1739604,267.627231 84.2834017,268.08247 84.5222397,271.068527 C85.1463004,278.614689 83.7517944,286.261157 85.7472478,293.730159 C86.2172195,295.651421 84.5145353,296.531035 83.3280494,297.580399 Z" fill="#ECE5D2"></path>
                                        <path d="M222.616862,296.65449 C221.224301,295.499917 220.596217,293.660562 220.991222,291.893772 C222.532113,284.625384 222.455068,277.233541 222.686202,269.872561 C222.755542,267.557788 223.348785,267.395753 224.920493,267.434333 C235.313801,267.727538 245.722517,267.773833 256.092712,267.303163 C258.157505,267.210572 258.820088,268.074754 259.174493,270.026879 C260.145254,275.32771 261.439602,280.566814 262.510521,285.844498 C262.864926,287.572862 262.834108,289.432397 265.153149,289.856772 C267.503007,293.051159 269.868274,296.230115 272.210428,299.44765 C272.865307,300.358127 274.298335,301.122002 273.674274,302.395128 C273.050214,303.668253 271.470801,303.722265 270.130226,303.737696 C264.182388,303.822571 258.226845,303.737696 252.279007,303.922878 C241.669975,304.27781 231.122578,304.532435 222.616862,296.65449 Z" fill="#ECE5D2"></path>
                                        <path d="M25.0977909,294.123671 C25.3135156,295.929194 24.3273456,297.156024 23.0329974,298.236252 C18.7955481,301.870446 14.68137,305.628095 10.2590137,309.038528 C7.48541053,311.183551 3.92595307,309.48605 0.767127196,310.03388 L0.767127196,310.03388 C0.767127196,297.611263 0.874989543,285.188645 0.720900475,272.773744 C0.674673755,269.556209 1.61461707,268.391106 4.98146319,268.414254 C8.34830931,268.437401 11.7999044,269.293868 15.0357748,267.642663 C18.8880015,267.511492 22.7402282,267.488344 26.5231148,267.210572 C29.1118111,267.02539 30.0209366,267.820129 29.4276937,270.389527 C27.9407342,276.840029 27.7866451,283.568304 25.1825399,289.810476 C24.674046,291.052738 25.0977909,292.673079 25.0977909,294.123671 Z" fill="#ECE5D2"></path>
                                        <path d="M222.616862,296.65449 C231.091761,304.532435 241.669975,304.27781 252.279007,303.922878 C258.226845,303.729981 264.182388,303.822571 270.130226,303.737696 C271.470801,303.737696 273.034805,303.699117 273.674274,302.395128 C274.313744,301.091139 272.903829,300.358127 272.210428,299.44765 C269.899092,296.230115 267.503007,293.051159 265.153149,289.856772 L266.208659,289.548135 C268.766537,290.018806 270.122521,292.08667 271.648003,293.768739 C273.959339,296.31499 276.031837,296.322706 278.273833,293.830466 C279.175254,294.37058 279.491137,295.998637 280.84712,295.473955 C281.255456,295.311921 281.232343,294.038796 281.401841,293.267205 C283.38959,298.166808 288.505347,299.6174 292.188076,302.672901 C298.628999,308.074039 305.732505,310.296221 314.569513,310.219062 C360.98114,309.771539 407.423585,310.07246 453.881438,310.07246 C452.779702,311.615642 451.146358,310.844051 449.790374,310.844051 C402.215374,310.890346 354.63267,311.09096 307.057671,310.743744 C295.208221,310.658869 283.428112,312.479824 271.617185,311.569347 C258.134392,310.535414 244.651598,311.09096 231.191918,310.797755 C230.244271,309.52463 229.312032,308.243789 228.348975,306.993811 C225.74487,303.591094 221.615283,301.368912 220.390275,296.916831 L222.616862,296.65449 Z" fill="#90C8C5"></path>
                                        <path d="M66.2472763,265.682821 C61.0313614,265.682821 55.8231509,265.62881 50.607236,265.682821 C48.2265599,265.721401 47.4175923,264.780059 47.8644506,262.488434 C48.8917111,257.046144 49.8804492,251.590995 50.8306652,246.122986 C51.0772077,244.695542 52.0248554,244.579803 53.08807,244.641531 C62.1716205,244.903872 71.2474666,244.84986 80.3233126,244.332894 C82.4266284,244.217155 83.3280494,245.173928 83.4513207,247.087474 C83.8057256,252.781817 84.1061992,258.483876 84.5145353,264.170502 C84.6763288,266.392685 83.1354381,266.014605 81.8719078,266.022321 C76.6559928,266.022321 71.4554868,266.022321 66.2472763,266.022321 L66.2472763,265.682821 Z" fill="#90C8C5"></path>
                                        <path d="M239.936473,244.919303 C243.935084,244.919303 247.949104,244.988747 251.95542,244.919303 C253.920056,244.873008 255.314562,245.050474 255.661262,247.457838 C256.431708,252.781817 257.471809,258.082648 258.396343,263.383479 C258.78927,265.636526 257.310015,265.651957 255.684376,265.651957 C248.442189,265.651957 241.192299,265.698253 233.950113,265.705969 C232.763627,265.705969 231.577141,265.520787 230.390655,265.574798 C223.017493,265.906583 223.079129,265.922014 223.780234,258.47616 C224.116434,255.143717 224.257923,251.794448 224.203979,248.445475 C224.134639,245.714042 224.874267,244.456349 227.932935,244.633815 C231.923841,244.873008 235.937862,244.695542 239.936473,244.695542 L239.936473,244.919303 Z" fill="#90C8C5"></path>
                                        <path d="M166.027652,196.586834 C165.858154,196.108447 165.69636,195.637777 165.534567,195.167106 C169.772016,194.503538 174.009466,193.562197 178.246915,193.261276 C187.977639,192.566844 195.612753,187.860138 202.369558,181.463648 C203.417364,180.476011 205.52068,179.148874 203.479,177.165885 L209.295862,170.182985 C208.679506,173.770884 208.679506,176.625771 211.252793,179.712136 C212.385348,181.070136 211.029364,184.465137 210.775117,186.926513 C210.10483,193.46189 209.311271,199.981835 210.258919,206.563507 C210.620177,208.194175 210.317976,209.901792 209.419133,211.308793 C206.691757,200.159301 208.040036,189.279866 205.328068,178.763078 C205.328068,183.099421 205.235615,187.428047 205.366591,191.764389 C205.443635,194.51897 204.149287,196.154743 201.730089,197.165527 C191.113352,201.656188 179.818623,203.191654 168.485372,204.557371 C166.012243,204.858291 165.665543,203.724052 166.243377,201.764211 C167.275773,199.989551 167.568543,198.245755 166.027652,196.586834 Z" fill="#90C8C5"></path>
                                        <path d="M248.342032,193.160969 C245.6917,197.358425 245.730222,202.281177 244.84421,206.87986 C243.103003,215.961488 240.05204,219.063284 230.583267,219.742284 C223.957437,220.210383 217.331607,220.691341 210.705777,221.18516 C210.366781,216.48617 212.570255,214.294851 217.28538,213.152896 C221.137607,212.219271 225.898959,212.473896 228.510769,208.369031 C229.666437,208.230144 230.822105,207.990951 231.970068,207.960087 C233.118032,207.929224 234.281404,209.657588 235.367732,207.782621 C236.338493,206.069689 234.458607,205.097484 233.826841,204.696257 C229.905275,201.97254 231.037829,198.376925 231.600254,194.81989 C233.449323,197.458732 235.090372,196.532823 236.222926,194.31064 C236.769943,193.214981 236.561922,191.748957 236.692898,190.452684 L236.692898,190.452684 C239.404866,190.414105 241.38491,189.056104 243.064481,187.096263 C244.351125,185.599376 245.483679,183.438921 247.987627,184.982103 C249.690311,186.046899 249.813582,191.579207 248.342032,193.160969 Z" fill="#90C8C5"></path>
                                        <path d="M235.922453,170.329587 C232.3707,174.040941 231.346007,178.585613 230.937671,183.523796 C230.459995,189.357025 229.227283,195.143959 229.581688,201.008051 C229.782003,204.310461 228.487655,205.884507 225.351943,206.50178 C222.532113,207.057326 219.296242,209.819622 217.07736,207.674599 C215.081906,205.745621 216.360846,201.980256 217.208336,199.287403 C218.826271,194.110026 219.681465,188.801479 220.683044,183.508364 C220.929587,182.605602 221.453489,181.725988 220.960404,180.769215 C220.875655,181.695125 220.81402,182.636466 220.729271,183.570091 C218.194506,186.934229 219.095927,191.286003 216.984906,195.984993 C216.984906,189.318445 216.984906,183.755273 216.984906,178.192101 C216.984906,177.243044 216.715251,175.614987 217.99419,175.638134 C223.163878,175.715293 223.479761,171.008587 225.837323,168.346598 C228.06391,170.599644 229.997728,173.863475 233.780615,170.329587 C234.181246,169.982371 235.205939,170.314155 235.922453,170.329587 Z" fill="#90C8C5"></path>
                                        <path d="M101.895782,292.171545 C98.9757942,297.927615 95.1543854,303.112708 91.4408388,308.374959 C90.6815228,309.480393 89.3738112,310.074342 88.0431749,309.918141 C84.9613936,309.918141 81.825681,309.918141 78.3124503,309.918141 C80.5544462,305.141992 92.6350291,299.115865 91.6719724,286.176282 C91.1018429,281.114644 91.3560899,275.975847 91.0710251,270.891061 C90.9554583,268.746038 91.3560899,267.804697 93.8600372,267.758401 C100.200802,267.611799 100.239325,267.465197 100.547503,273.830824 C100.809454,279.162518 103.436673,284.409338 101.032883,289.833624 C100.639956,290.782681 101.333357,291.492545 101.895782,292.171545 Z" fill="#ECE5D2"></path>
                                        <path d="M220.413388,296.95541 C221.638396,301.407491 225.806506,303.629674 228.372088,307.032391 C229.335145,308.282368 230.267384,309.56321 231.215032,310.836335 C228.580109,312.618711 225.983708,310.705164 223.356489,310.766892 C216.514935,304.902799 210.59021,298.166808 204.634668,291.477113 C204.002902,288.390749 204.750234,285.150066 203.463591,282.14086 C203.54834,281.824508 203.625384,281.50044 203.702429,281.176371 C207.639404,278.776723 206.291125,274.625562 206.868959,271.230561 C207.292704,268.707458 207.924469,267.789265 210.644141,267.789265 C213.602651,267.789265 213.564129,269.286152 213.510198,271.361732 C213.379222,276.315347 213.379222,281.29211 213.325291,286.253441 C211.961603,288.514203 212.316008,290.582067 214.034101,292.495613 C215.870625,294.360026 218.032766,295.871592 220.413388,296.95541 Z" fill="#ECE5D2"></path>
                                        <path d="M235.922453,170.329587 C235.205939,170.329587 234.181246,169.982371 233.803728,170.329587 C230.020842,173.863475 228.087024,170.599644 225.860437,168.346598 C226.535562,166.549458 227.742459,165.001578 229.319736,163.909949 L230.436882,164.056551 L230.752765,164.241733 L230.406064,164.087415 C230.406064,163.740199 230.344429,163.392983 230.321315,163.045767 C231.053238,160.538096 232.124157,159.673914 234.597287,161.649187 C240.760849,166.525643 245.383522,172.34344 247.925991,179.773863 C251.007772,188.909502 253.804489,198.114584 254.859999,207.736326 C253.835307,208.986304 252.926181,208.507917 251.947716,207.612871 C250.676481,206.478632 249.728833,204.93545 247.956809,204.410768 C248.08008,200.660835 248.21876,196.910902 248.349736,193.160969 C249.821287,191.617787 249.698015,186.046899 247.972218,184.982103 C245.46827,183.438921 244.335716,185.599376 243.049072,187.096263 C241.369501,189.056104 239.389457,190.414105 236.677489,190.452684 C236.916327,188.55457 238.719169,186.594729 236.515696,184.812353 C234.820716,183.454353 233.980931,185.684251 232.663469,185.908013 C232.886898,181.463648 233.688161,177.196748 236.515696,173.523975 C237.532684,174.372725 237.548092,175.506964 237.540388,176.718362 C237.540388,178.261544 234.766785,179.804727 236.469469,180.908102 C238.172153,182.011477 239.713044,179.565533 241.415728,178.863385 C242.814374,178.408599 243.93288,177.345147 244.458987,175.969919 C241.153777,175.692146 241.122959,171.263213 237.617433,171.124326 C237.30155,170.291008 236.600445,170.314155 235.922453,170.329587 Z" fill="#ECE5D2"></path>
                                        <path d="M214.650457,164.627529 C214.003283,159.318982 212.015534,156.325208 206.553077,156.911617 C203.779473,157.204822 203.18623,154.890048 202.901166,152.8299 C202.277105,148.292944 203.509817,143.840863 203.817996,139.342487 C203.948971,137.398077 205.443635,136.518463 207.308113,136.904259 C209.796651,137.428941 212.901546,137.266907 213.471676,140.762215 C213.608203,142.066603 213.659675,143.378518 213.625765,144.689613 C213.625765,146.009034 213.54872,147.513637 215.066498,148.053751 C216.892453,148.709603 217.115882,146.880932 217.886327,145.939591 C218.225323,145.515216 218.572024,145.106273 218.972655,144.62017 C219.273129,145.044545 219.596716,145.33775 219.53508,145.468921 C217.686012,149.712672 218.91102,152.027445 223.70319,152.891627 C225.567667,153.231127 226.014526,155.121526 224.304137,156.602981 C221.307105,159.187811 218.248437,161.649187 214.650457,164.627529 Z" fill="#ECE5D2"></path>
                                        <path d="M97.7045594,80.9098893 C95.9402396,81.2725372 95.3932234,79.9068209 94.7999805,78.7957296 C88.6749401,67.7928399 82.4574462,56.8671092 76.540426,45.7716286 C72.7652439,38.6652741 69.3906933,31.35059 65.9236893,24.0822014 C62.0714626,16.019074 56.4857339,8.83556039 53.5965639,0.286330495 L56.1621469,0.494660104 C56.7939121,4.71526367 59.7601266,7.82477599 61.7093533,11.3818112 C71.2166488,28.6654528 80.9704867,45.8102081 90.5779401,63.0244066 C93.0048429,67.3684647 95.6936971,71.5890683 97.3501546,76.3266379 C97.9202841,77.8852521 98.6367983,79.3126957 97.7045594,80.9098893 Z" fill="#ECE5D2"></path>
                                        <path d="M86.6101466,150.183342 C88.5735272,149.049348 89.7570585,146.927676 89.6919279,144.65875 C89.3144097,138.810089 92.7737093,137.251475 97.781604,137.074009 C98.274689,141.387203 98.9526809,145.708114 99.2223367,150.044456 C99.5459238,155.121526 97.781604,156.988776 92.4732356,156.988776 C89.8845393,156.988776 87.8505636,157.305129 86.7488267,159.897675 C85.6470899,162.490221 84.0291547,162.389914 82.5421952,160.430073 C80.7855798,158.115299 76.7484463,156.703288 76.9949888,154.072162 C77.2415313,151.441036 81.9566567,153.015082 83.8288389,150.854627 C84.7610778,150.607718 85.885928,151.217275 86.6101466,150.183342 Z" fill="#ECE5D2"></path>
                                        <path d="M219.773919,22.4541441 C215.490242,23.9973264 213.3407,27.7163957 211.406882,31.1962718 C202.585283,47.0987653 192.191975,62.0984972 183.755599,78.2633317 C183.154652,79.3667071 182.723202,81.6814805 180.912656,80.7169916 C179.610603,80.0148436 180.542842,78.0550021 181.112972,76.6970017 C185.134696,67.1987147 191.128761,58.7883712 196.236814,49.8764935 C200.859486,41.7362069 204.873506,33.1715451 211.052477,25.9571679 C213.448562,23.1871557 215.31304,19.4449387 219.781623,19.1054385 C219.766214,20.2396775 219.766214,21.3430529 219.773919,22.4541441 Z" fill="#ECE5D2"></path>
                                        <path d="M181.55983,0.20917138 C179.903372,9.62258336 175.927874,18.364711 173.44704,27.5389298 C169.756607,41.2346726 166.158628,54.9612791 162.522126,68.6801697 C162.329514,69.3823176 162.221652,70.1076133 161.975109,70.8020453 C161.68234,71.6507956 161.204664,72.5381254 160.141449,72.3452276 C159.078235,72.1523298 159.024304,71.1029659 159.032008,70.2310679 C159.07053,65.0614072 161.381866,60.3624171 162.329514,55.3933701 C165.48834,38.8195923 172.514802,23.4032012 176.967976,7.20750308 C177.563557,5.09699469 177.8872,2.91887346 177.931032,0.726137448 C179.055882,0.162875912 180.242368,-0.276931042 181.55983,0.20917138 Z" fill="#ECE5D2"></path>
                                        <path d="M222.331797,241.539734 C228.895991,239.572177 235.583457,241.269677 242.216991,241.022768 C249.859809,240.744995 257.541149,241.285109 265.183967,240.482654 C265.314942,241.254245 263.1654,241.346836 264.621542,242.465644 C264.182388,243.237235 262.633793,242.697121 262.73395,243.777348 C262.857222,245.251088 264.113048,244.410053 264.698586,244.224871 C267.125489,243.45328 266.76338,246.107554 268.011501,246.732543 L267.926752,246.655383 C268.27572,251.747067 269.088058,256.796219 270.353655,261.73999 C271.05476,264.517718 269.768116,265.235298 267.395145,265.721401 C264.452044,266.323242 264.798744,264.494571 264.552201,262.689047 C263.928141,258.059501 262.903448,253.514829 262.418068,248.885282 C261.932687,244.255735 259.682987,242.828291 254.960157,242.998041 C245.475975,243.345257 235.945566,243.036621 226.45368,242.94403 C225.132332,242.853634 223.817624,242.683575 222.516704,242.43478 C222.447364,242.172439 222.385728,241.840655 222.331797,241.539734 Z" fill="#90C8C5"></path>
                                        <path d="M278.273833,293.869046 C276.031837,296.361285 273.951635,296.353569 271.648003,293.807318 C270.107112,292.12525 268.766537,290.057385 266.208659,289.586715 C268.381315,284.671679 266.046865,279.864666 265.823436,275.003642 C265.730983,273.267562 265.561485,271.531482 265.384282,269.803118 C265.106922,267.256867 267.071558,267.681242 268.566222,267.32631 C270.338246,266.901935 270.962307,267.272299 271.601776,269.170413 C273.404618,274.571551 274.336857,280.119291 275.454003,285.659316 C275.969594,288.524105 276.920579,291.292828 278.273833,293.869046 L278.273833,293.869046 Z" fill="#ECE5D2"></path>
                                        <path d="M0.150770926,76.3652175 C23.1254509,86.6196638 47.2172765,94.443598 69.3213532,107.414045 C65.307333,108.185636 62.2794829,106.040613 59.3055639,104.636317 C41.8421362,96.4986025 24.1218935,89.0167403 6.14483564,82.1907306 C4.66477385,81.4984297 3.00824952,81.2775904 1.39889237,81.5580259 C-0.141998301,80.068855 -0.141998301,78.2633317 0.150770926,76.3652175 Z" fill="#ECE5D2"></path>
                                        <path d="M100.30096,253.792602 C100.30096,256.562614 100.085236,259.348058 100.347187,262.094922 C100.73241,266.122628 98.1514177,266.037753 95.3161789,266.215219 C92.3576688,266.400401 91.0170939,265.567082 91.0633206,262.357263 C91.1403652,256.956125 90.8938227,251.554987 90.7166202,246.207861 C90.5548267,241.300541 94.5688469,242.998041 96.9957497,242.388484 C100.077531,241.616893 100.331778,243.561303 100.223916,245.891508 C100.100644,248.507202 100.223916,251.138328 100.223916,253.754022 L100.30096,253.792602 Z" fill="#90C8C5"></path>
                                        <path d="M88.8213247,293.174614 C87.280434,292.80425 87.5577943,291.74717 87.5192721,290.983295 C86.9183247,276.122449 86.2172195,261.215308 85.7626567,246.323599 C85.6779077,243.62303 85.3312073,242.635394 82.164677,242.758848 C70.7235637,243.175507 59.2670416,243.252666 47.8182239,243.298962 C45.7149081,243.298962 43.6115924,242.527371 41.5005721,242.149291 C41.5005721,241.609177 41.5545033,241.061348 41.5699122,240.521234 C56.3547582,240.521234 71.1396042,240.567529 85.9244502,240.451791 C87.7195879,240.451791 87.4653409,241.346836 87.4653409,242.295893 C87.6733611,250.906851 88.6518267,259.471512 88.6749401,268.121049 C88.6749401,274.941915 89.1449117,281.816792 89.3067053,288.676237 C89.3760453,290.18084 89.5840656,291.74717 88.8213247,293.174614 Z" fill="#ECE5D2"></path>
                                        <path d="M145.341195,192.667151 C143.029859,196.031288 143.800304,197.296698 147.367466,197.06522 C149.933049,196.903186 152.467814,198.238039 155.48796,197.435584 C153.430871,195.259697 149.655688,195.583765 149.239648,191.764389 C151.735891,192.103889 153.769867,193.400163 155.773024,194.210333 C158.492696,195.290561 156.913284,198.477232 157.383255,200.707131 C157.691433,202.14229 157.706842,203.909234 155.464846,204.565086 C149.301284,206.247155 143.253288,206.355178 137.359381,203.508007 C135.95717,202.829006 134.886251,202.072847 134.940183,200.251892 C135.009523,198.307482 135.61047,196.748868 137.528879,196.100732 C140.017417,195.19797 142.390389,194.048299 145.341195,192.667151 Z" fill="#ECE5D2"></path>
                                        <path d="M138.538162,0.332625964 C138.715365,17.4156539 137.890988,34.490966 139.146814,51.573994 C139.524332,56.627916 139.015838,61.7435653 138.946498,66.8360668 C138.946498,67.7928399 138.753887,68.6801697 137.65215,68.7500792 C136.711939,68.7713281 135.929023,68.0319547 135.895535,67.0906919 C135.759418,65.9334719 135.707918,64.7678375 135.741446,63.6030999 C135.741446,49.8610616 135.564243,36.1190233 135.88783,22.3924168 C136.065033,15.0700169 134.616595,7.87878737 134.90166,0.587251042 L138.538162,0.332625964 Z" fill="#ECE5D2"></path>
                                        <path d="M1.71477496,104.458851 C12.7440011,107.823739 23.987172,110.44022 35.3678273,112.290501 C44.4051511,113.833684 53.3808392,115.700934 62.3796407,117.44473 C63.7125112,117.699355 65.4614221,118.146878 64.9067015,119.759504 C64.3134585,121.649902 62.5953654,120.253322 61.5090375,120.044992 C42.5946045,116.580548 23.5723092,113.663933 4.93523647,108.841489 C3.91683409,108.666023 2.88663094,108.568008 1.85345512,108.548284 C1.23709885,107.205716 0.790240556,105.855431 1.71477496,104.458851 Z" fill="#ECE5D2"></path>
                                        <path d="M235.452481,115.67007 C247.509951,113.270422 259.598238,110.986512 271.617185,108.417114 C277.464865,107.143988 283.381886,107.182568 289.283497,106.372397 C290.130987,106.248943 291.317472,105.955738 291.525493,107.074545 C291.772035,108.471125 290.369825,108.563716 289.414472,108.748898 C284.614598,109.643944 279.822428,110.708739 274.976327,111.272001 C261.508942,112.815183 248.611687,116.93548 235.375437,119.450867 C234.520097,118.325998 234.552028,116.759053 235.452481,115.67007 Z" fill="#ECE5D2"></path>
                                        <path d="M2.16933771,151.556775 C15.2669084,150.553706 28.4184103,149.342308 41.5776167,148.632444 C49.5054581,148.276109 57.4486143,148.490133 65.3458553,149.272865 C44.3974466,152.035161 23.2179043,152.073741 2.26179115,154.60456 C1.49905027,153.609207 1.71477496,152.582991 2.16933771,151.556775 Z" fill="#ECE5D2"></path>
                                        <path d="M235.914748,79.0117751 C245.836465,73.8206084 255.211242,67.642459 263.897323,60.5707467 C268.080841,57.1757457 272.487788,54.0353697 277.310776,50.3857436 C277.40323,54.5909154 274.552582,56.2575522 272.410744,58.1016551 C261.177651,67.607658 248.711845,75.447024 236.423242,83.6258902 C235.889704,83.8666047 235.323844,84.0277766 234.743671,84.1042767 C234.443198,82.2601739 235.39855,80.678412 235.914748,79.0117751 Z" fill="#ECE5D2"></path>
                                        <path d="M234.89776,146.580012 C252.009351,148.030603 269.136351,149.404035 286.240238,151.024377 C288.274213,151.217275 292.326756,150.769752 291.864489,153.33915 C291.448448,155.653924 287.858173,153.802105 285.608473,153.71723 C274.205882,153.292855 262.972789,151.109252 251.554789,150.816047 C245.984469,150.661729 240.298582,150.816047 234.874647,149.049103 C234.882352,148.223501 234.882352,147.405614 234.89776,146.580012 Z" fill="#ECE5D2"></path>
                                        <path d="M51.4778392,195.429447 C53.6581995,185.028399 55.568904,174.542475 62.3565274,165.784915 C62.8346615,165.049636 63.4129389,164.384797 64.0746205,163.809642 C67.5878512,161.217096 70.523248,155.322139 74.2444989,156.278912 C78.5589928,157.428583 81.8487944,162.413062 85.4775919,165.838927 C86.0181776,166.265917 86.3405525,166.912031 86.3569403,167.601345 C86.3733282,168.290659 86.0820229,168.951406 85.5623409,169.403678 C83.9675191,170.838837 83.1893693,168.948439 82.4805596,168.099689 C80.0844746,165.175358 78.8363531,161.371414 75.5465515,159.118368 C74.7761062,158.609118 74.0056609,156.996492 73.1119443,158.408504 C70.6542237,162.420778 66.0007338,164.087415 63.2425395,167.667598 C58.7585477,173.462247 57.5643574,180.630329 55.2222036,187.304592 C54.1666935,190.32923 53.3962481,193.477322 52.5025315,196.563686 L51.4778392,195.429447 Z" fill="#ECE5D2"></path>
                                        <path d="M38.4881309,292.565057 C36.0689325,291.376806 33.4879406,294.71008 31.114969,292.302716 C32.373363,285.342963 33.6317571,278.380639 34.8901511,271.415743 C35.3061916,269.154981 35.8455034,267.280015 39.0274426,267.735254 C42.4405154,268.229072 41.0151916,270.651868 40.7917624,272.056164 C39.8711366,278.185957 39.4050268,284.375611 39.3972564,290.574351 C38.6653333,291.006443 38.1953616,291.554272 38.4804264,292.46475 L38.4881309,292.565057 Z" fill="#ECE5D2"></path>
                                        <path d="M87.5654988,177.219896 C89.4437044,178.358052 91.2452834,179.618456 92.9586162,180.992977 C102.06528,189.225854 113.360009,190.977366 125.032256,191.887844 C133.653539,192.582276 133.653539,192.736594 132.867685,200.822869 C132.736709,202.119142 132.274442,203.384552 132.15117,204.680825 C132.027899,205.977098 131.249749,206.393757 130.063264,206.139132 C128.738098,205.853644 129.254296,204.904587 129.292818,204.063552 C129.500838,200.907744 131.94315,196.995777 129.747381,194.873902 C128.044697,193.245844 123.868883,193.978856 120.787102,193.901697 C107.019244,193.577628 96.4410291,186.61016 86.5408065,178.176669 L87.5654988,177.219896 Z" fill="#ECE5D2"></path>
                                        <path d="M214.296052,255.420659 C214.296052,257.604262 214.296052,259.795581 214.296052,261.994615 C214.296052,264.19365 215.066498,266.30781 211.214271,266.09948 C208.001514,265.922014 207.231068,264.826355 207.362044,261.902024 C207.523838,256.500886 207.362044,251.099748 207.261886,245.69861 C207.261886,243.977962 207.523838,242.81286 209.650267,243.059769 C211.329838,243.252666 213.417745,242.619962 213.564129,245.374542 C213.733627,248.730964 213.987874,252.079669 214.211303,255.405227 L214.296052,255.420659 Z" fill="#90C8C5"></path>
                                        <path d="M181.798668,233.916414 C184.880449,237.404006 184.318024,241.840655 184.541453,245.852929 C185.034538,254.872829 184.818814,263.931309 184.895858,272.966642 C184.895858,274.949631 184.957494,276.940336 182.168482,274.756733 L180.373344,273.985142 L180.327117,273.985142 C180.088279,270.759891 181.62917,267.681242 181.097563,264.425128 C179.533559,254.209261 181.521308,244.078269 181.798668,233.916414 Z" fill="#90C8C5"></path>
                                        <path d="M47.0940053,192.713446 L47.0940053,194.619277 C43.8658393,192.667151 40.6453778,193.346151 37.0782159,193.978856 C32.8176532,194.750447 32.5865196,196.918618 33.102718,200.267324 C34.6436086,210.166838 36.5928353,219.996909 37.4095074,229.989015 C36.3617017,231.894845 39.0043292,234.780596 35.737641,236.107732 C35.6914143,227.666525 33.426305,219.503091 32.6019285,211.154475 C32.1396613,206.386042 31.3846249,201.640756 30.6141795,196.903186 C30.2443658,194.657856 30.9069488,193.160969 33.1489447,192.597708 C37.8178434,191.424889 42.4867422,189.179559 47.0940053,192.713446 Z" fill="#90C8C5"></path>
                                        <path d="M181.798668,233.916414 C181.521308,244.078269 179.533559,254.209261 181.120676,264.409696 C181.62917,267.66581 180.088279,270.744459 180.350231,273.96971 C178.308551,271.948141 179.125223,269.340163 179.071291,267.02539 C178.832453,255.536398 178.832453,244.031974 178.80934,232.535265 C178.80934,228.33781 180.827907,225.344036 184.772587,223.73141 C185.604668,223.384194 186.744927,222.496865 187.47685,223.824001 C187.977639,224.734479 187.137854,225.475206 186.521498,226.061616 C184.202457,228.283798 181.606057,230.266787 181.798668,233.916414 Z" fill="#ECE5D2"></path>
                                        <path d="M220.305526,72.576705 C212.855319,77.6460588 207.346635,84.7292655 200.836372,90.7708242 C199.788567,91.743029 199.072052,94.3201435 197.169052,92.6843702 C195.266052,91.048597 197.238392,89.1581987 198.347834,88.2477211 C204.719417,83.0549127 208.995388,75.7710923 215.867761,71.1955568 C217.886327,69.8529882 217.92485,66.820635 220.736975,66.5119986 C221.43808,68.564431 220.536659,70.5628521 220.305526,72.576705 Z" fill="#ECE5D2"></path>
                                        <path d="M199.141392,224.904229 C195.836182,226.964377 190.882218,226.90265 190.027024,232.141754 C189.677215,233.695197 189.453059,235.274361 189.356737,236.863892 C189.356737,248.535494 189.384986,260.209668 189.441486,271.886414 C189.441486,274.201187 189.17183,276.623984 191.752822,277.981984 C188.208773,278.6687 187.40751,277.287552 187.499963,273.807676 C187.815846,262.272388 187.538486,250.721669 187.82355,239.186381 C187.885186,236.670994 185.828097,234.641709 187.261125,231.740527 C189.803595,226.624877 193.378461,224.155786 199.141392,224.904229 Z" fill="#ECE5D2"></path>
                                        <path d="M43.5961834,249.88835 C43.6886369,254.139818 42.3557665,258.221535 41.9936571,262.380411 C41.6777746,265.837139 39.3279163,265.790844 37.4557341,265.543935 C35.1443981,265.25073 36.484973,263.028548 36.5466086,261.685979 C36.8008556,256.145955 38.542062,250.883703 39.9750904,245.56744 C40.2524507,244.541224 39.9365681,242.951746 41.7933414,243.252666 C43.3727543,243.476428 43.2186652,244.927019 43.3727543,246.007247 C43.5576612,247.249509 43.5268434,248.568929 43.5961834,249.88835 Z" fill="#90C8C5"></path>
                                        <path d="M72.7960617,147.189569 L68.5663168,148.223501 C68.8899038,145.785273 68.9284261,143.323897 69.2057864,140.877953 C69.7450982,136.248406 70.184252,132.035519 75.4463937,129.898211 C81.7409321,127.35196 87.8813814,126.179142 94.2837821,129.265506 C95.3161789,129.767041 96.371689,130.260859 97.4117902,130.754677 C92.6913377,128.084576 86.9720865,127.868922 82.0645191,130.175984 C73.820754,132.459894 70.846835,138.092509 72.7960617,147.189569 Z" fill="#ECE5D2"></path>
                                        <path d="M203.479,177.165885 C205.52068,179.179738 203.417364,180.476011 202.369558,181.463648 C195.612753,187.87557 187.977639,192.566844 178.246915,193.261276 C173.986352,193.562197 169.772016,194.503538 165.534567,195.167106 C164.602328,193.623924 163.369615,192.080742 166.774984,191.934139 C170.026263,191.810685 173.246725,191.162548 176.505708,190.961935 C187.577008,190.259787 195.743728,184.141069 203.479,177.165885 Z" fill="#ECE5D2"></path>
                                        <path d="M222.331797,241.539734 C222.385728,241.840655 222.447364,242.141575 222.501295,242.43478 C222.015914,259.278615 220.613704,276.068438 219.365583,292.950852 C217.293085,292.642216 217.724534,291.361374 217.770761,290.528056 C218.541206,277.503597 219.473445,264.486855 220.251595,251.462396 C220.475165,248.546476 220.451969,245.616839 220.182255,242.704837 C219.881781,239.996552 221.569056,241.825223 222.331797,241.539734 Z" fill="#ECE5D2"></path>
                                        <path d="M118.884102,232.604709 C117.489596,228.623298 115.070397,225.814707 110.478543,225.459775 C109.623349,225.398047 108.560134,225.459775 108.775859,224.140354 C108.991584,222.820933 109.916118,222.249955 111.318329,222.597171 C115.417098,223.661967 119.130644,224.965956 119.924203,229.996731 C120.286312,232.311504 120.478924,234.579982 120.694648,236.863892 C120.586786,243.653894 119.924203,250.451612 121.087575,257.218466 C121.087575,257.804875 121.087575,258.383569 121.087575,258.969978 C121.002826,259.062569 120.833328,259.178308 120.848737,259.247751 C120.93582,259.463458 121.038831,259.672366 121.156915,259.87274 C121.796385,265.0424 119.723887,270.204345 121.010531,275.397154 C121.056758,275.582335 120.432697,275.937267 119.423413,276.816881 L119.423413,268.04389 C119.461936,258.344989 119.546685,248.646089 119.508162,238.954904 C119.546685,236.840744 120.216972,234.60313 118.884102,232.604709 Z" fill="#ECE5D2"></path>
                                        <path d="M35.7684588,236.107732 C39.0351471,234.780596 36.3925196,231.894845 37.4403252,229.989015 C38.8887624,233.353152 37.3632807,237.319131 39.6206855,240.521234 C37.0859204,241.879234 37.8640701,244.417769 37.4865519,246.508781 C35.4217584,258.082648 33.4417139,269.656515 31.4308516,281.230383 C30.7374508,279.795223 31.7236208,277.974268 30.3599326,276.693427 C30.9069488,265.474491 33.6497342,254.618204 35.9533657,243.692473 C36.5003819,241.123075 37.1167382,238.615404 35.7684588,236.107732 Z" fill="#90C8C5"></path>
                                        <path d="M89.8999482,218.816375 C86.6717822,219.973762 85.1617093,219.294761 85.8397012,215.814885 C86.7180089,211.23935 87.0030737,206.478632 88.5131466,202.126858 C89.6071789,199.040494 88.1664462,198.376925 86.0862438,197.373857 C81.5469867,195.148328 77.3449444,192.290846 73.6050293,188.886354 C77.372507,189.843127 79.8841588,193.214981 83.4127984,194.287492 C90.6087579,196.463379 91.3021587,201.116074 90.1850129,207.404542 C89.52243,211.115895 87.9276081,214.989283 89.8999482,218.816375 Z" fill="#90C8C5"></path>
                                        <path d="M104.415138,214.179112 C104.483159,214.270237 104.58661,214.328156 104.699747,214.338457 C104.812884,214.348757 104.925068,214.31047 105.008381,214.233123 C104.823474,216.06951 106.241094,217.103443 107.173333,218.35342 C107.943778,219.395068 108.444567,220.506159 107.442988,221.509228 C106.025369,222.944388 105.501466,221.254603 104.738725,220.537023 C103.58258,219.273963 102.104128,218.350891 100.462754,217.867318 C99.6923084,219.904318 101.911191,220.84566 102.188551,222.75149 C98.7985918,222.195944 96.3023489,220.25925 94.2606688,217.929045 C92.9817295,216.478454 93.4362923,214.580339 95.6089481,214.341146 C98.513527,214.024794 101.456628,212.589634 104.415138,214.179112 Z" fill="#ECE5D2"></path>
                                        <path d="M269.729594,249.278793 C270.785104,248.653805 270.353655,247.534997 270.63872,246.647668 C275.045667,259.888172 276.802282,273.560767 277.40323,287.433976 C275.407776,274.579267 272.480084,261.956036 269.729594,249.278793 Z" fill="#90C8C5"></path>
                                        <path d="M203.779473,214.780953 C205.435931,214.37201 205.805745,216.123522 206.221785,217.643556 C206.722575,219.479943 205.782631,220.189807 203.96438,220.490728 C200.196903,221.115716 196.467947,221.918171 192.731287,222.697478 C192.13034,222.820933 191.506279,223.029263 191.267441,222.350262 C191.018633,221.483197 191.346623,220.553543 192.084113,220.035489 C195.204417,217.188318 198.902554,215.552544 203.779473,214.780953 Z" fill="#ECE5D2"></path>
                                        <path d="M229.358259,159.357561 C228.926809,159.751073 228.479951,160.129152 228.071615,160.53038 C225.667825,162.937744 224.558384,166.101268 222.871109,168.933007 C222.193117,170.074962 222.015914,173.014724 220.089801,171.695304 C218.47957,170.60736 216.306915,167.999382 217.624376,165.730904 C219.804736,161.988687 224.034481,160.329766 227.640165,158.084436 C228.279635,157.690924 228.803538,158.771152 229.358259,159.357561 Z" fill="#ECE5D2"></path>
                                        <path d="M263.712416,278.205745 C259.536602,267.565503 260.268525,256.099659 257.818509,245.166213 C261.038971,255.968489 263.535214,266.863356 263.712416,278.205745 Z" fill="#ECE5D2"></path>
                                        <path d="M203.702429,281.114644 C203.625384,281.438712 203.54834,281.762781 203.463591,282.079133 C201.044392,281.361553 198.478809,282.001974 196.013384,281.091496 C194.141202,280.412496 191.899206,279.964973 189.957684,281.006621 C183.979028,284.21644 178.062008,287.549714 172.121874,290.828977 C170.580984,291.685443 169.772016,292.673079 171.520927,294.115955 C169.872174,294.270273 169.209591,292.495613 167.730336,292.279568 C171.752061,288.815124 176.690615,286.716396 180.981996,283.714906 C188.224182,278.684132 196.00568,280.798292 203.702429,281.114644 Z" fill="#90C8C5"></path>
                                        <path d="M51.4778392,195.429447 L52.510236,196.517391 C51.5233735,206.263583 49.5880671,215.8899 46.731896,225.259161 C46.5084668,226.030752 46.5855114,227.095548 45.3527988,227.211287 L45.4144344,227.265298 C47.8182239,216.709931 48.6965316,205.907655 51.4778392,195.429447 Z" fill="#90C8C5"></path>
                                        <path d="M214.041805,292.433886 C212.323712,290.52034 211.969307,288.452476 213.332996,286.191714 C215.937101,284.347611 214.373097,281.685621 214.588821,279.432575 C215.004862,275.235119 214.111145,270.906493 216.291506,266.901935 C216.50723,275.49746 216.252983,284.04669 214.041805,292.433886 Z" fill="#90C8C5"></path>
                                        <path d="M42.6562401,273.938846 C41.9628393,270.644152 43.180143,267.542356 43.8350215,264.432843 C45.2141187,257.843455 46.7935316,251.315794 47.1325275,244.533508 C48.6734182,254.633636 45.3527988,264.139639 43.5653656,273.853971 L42.6562401,273.938846 Z" fill="#ECE5D2"></path>
                                        <path d="M220.282412,95.2846324 C214.665866,96.6040533 210.752004,100.68577 206.121627,104.335397 C205.212502,101.426498 206.167854,99.8833156 208.117081,98.7490766 C212.431574,96.2439774 216.748637,93.7440221 221.068267,91.2492107 L220.282412,95.2846324 Z" fill="#ECE5D2"></path>
                                        <path d="M228.510769,208.369031 C225.898959,212.473896 221.168425,212.226986 217.28538,213.152896 C212.570255,214.294851 210.351372,216.48617 210.705777,221.18516 C206.722575,214.950703 206.953708,213.924487 213.733627,211.926066 C218.579728,210.475475 223.579918,209.534133 228.510769,208.369031 Z" fill="#ECE5D2"></path>
                                        <path d="M237.555797,171.124326 C241.061323,171.263213 241.092141,175.692146 244.397351,175.969919 C243.871245,177.345147 242.752739,178.408599 241.354092,178.863385 C239.651408,179.565533 238.048882,181.996045 236.407833,180.908102 C234.766785,179.820158 237.463343,178.284692 237.478752,176.718362 C237.478752,175.506964 237.478752,174.403589 236.45406,173.523975 C236.461463,172.603044 236.862558,171.729436 237.555797,171.124326 Z" fill="#90C8C5"></path>
                                        <path d="M104.268754,279.980405 C109.862187,279.810655 115.578891,278.49895 120.848737,281.176371 C115.424802,279.980405 109.446146,283.421702 104.268754,279.980405 Z" fill="#90C8C5"></path>
                                        <path d="M87.5654988,177.219896 L86.5793288,178.184385 C81.8333855,174.619634 78.3817904,169.503985 72.9424463,166.710825 C79.1368268,168.369746 83.643932,172.38202 87.5654988,177.219896 Z" fill="#90C8C5"></path>
                                        <path d="M118.884102,232.604709 C120.216972,234.60313 119.546685,236.840744 119.562094,238.954904 C119.562094,248.646089 119.515867,258.344989 119.477345,268.04389 C118.20611,259.031705 119.061304,249.965509 118.837875,240.930177 C118.76083,238.160165 118.860988,235.382437 118.884102,232.604709 Z" fill="#90C8C5"></path>
                                        <path d="M163.44666,199.812085 C163.44666,201.540449 163.44666,202.273461 163.44666,202.99104 C163.44666,203.70862 163.354207,204.487927 162.344923,204.46478 C161.674636,204.46478 161.343344,203.986393 161.250891,203.345972 C160.845123,200.485941 160.441923,197.62591 160.041292,194.765879 C159.956543,194.171754 160.041292,193.569913 160.76551,193.392447 C161.122426,193.282782 161.509306,193.333782 161.825728,193.53221 C162.14215,193.730638 162.35691,194.056926 162.414263,194.426379 C162.891939,196.525107 163.230935,198.662414 163.44666,199.812085 Z" fill="#ECE5D2"></path>
                                        <path d="M232.632651,185.908013 C233.973226,185.684251 234.813011,183.454353 236.484878,184.812353 C238.688352,186.563865 236.885509,188.55457 236.646671,190.452684 L236.646671,190.452684 C234.581878,191.394026 233.079509,190.892491 232.239724,188.755184 C232.401518,187.782979 232.532493,186.849354 232.632651,185.908013 Z" fill="#90C8C5"></path>
                                        <path d="M232.278246,188.732036 C233.118032,190.869344 234.589582,191.370878 236.685194,190.429537 C236.554218,191.72581 236.762238,193.191833 236.215222,194.287492 C235.105781,196.509675 233.464732,197.435584 231.59255,194.796743 C231.823684,192.775174 232.052249,190.753605 232.278246,188.732036 Z" fill="#ECE5D2"></path>
                                        <path d="M30.3599326,276.716574 C31.7236208,277.997416 30.7374508,279.802939 31.4308516,281.25353 C30.8761309,284.108418 30.4292726,286.986453 29.705054,289.795044 C29.4893293,290.636079 28.718884,291.893772 27.4476492,291.207056 C26.5077059,290.697806 26.9545642,289.602147 27.3860136,288.853703 C29.5740783,285.088338 29.9053698,280.875451 30.3599326,276.716574 Z" fill="#ECE5D2"></path>
                                        <path d="M90.0001061,240.050563 C94.2194977,239.222941 98.577438,239.448184 102.689341,240.706416 C98.3902558,241.16937 94.1142842,241.786643 90.0001061,240.050563 Z" fill="#90C8C5"></path>
                                        <path d="M86.6101466,150.183342 C85.885928,151.217275 84.7610778,150.607718 83.8365434,150.846911 C84.1867322,148.981389 84.0487106,147.056846 83.4359118,145.260591 C83.1893693,144.573875 82.9505312,143.717409 83.8057256,143.385624 C84.6609199,143.05384 85.1231871,143.73284 85.5623409,144.311534 C86.9183247,146.101625 86.6563733,148.161774 86.6101466,150.183342 Z" fill="#ECE5D2"></path>
                                        <path d="M121.110689,257.233898 C119.924203,250.467044 120.609899,243.669326 120.717762,236.879324 C121.765567,243.646178 121.133802,250.451612 121.110689,257.233898 Z" fill="#90C8C5"></path>
                                        <path d="M42.8103292,274.810744 C42.6485357,279.262825 43.3881632,283.807497 41.3387786,288.058964 C40.9843738,283.57602 41.107645,279.131655 42.8796693,274.85704 L42.8103292,274.810744 Z" fill="#90C8C5"></path>
                                        <path d="M166.027652,196.586834 C167.568543,198.245755 167.275773,199.989551 166.243377,201.764211 C166.174036,200.035846 166.104696,198.315198 166.027652,196.586834 Z" fill="#ECE5D2"></path>
                                        <path d="M308.960671,162.212448 C309.178372,161.902491 309.528362,161.712421 309.906511,161.698787 C310.28466,161.685153 310.647392,161.849528 310.886784,162.143005 L308.960671,162.212448 Z" fill="#90C8C5"></path>
                                        <path d="M180.373344,273.992858 L182.168482,274.764449 L180.373344,273.992858 Z" fill="#ECE5D2"></path>
                                        <path d="M38.4804264,292.487898 C38.1953616,291.57742 38.6653333,291.02959 39.3972564,290.597499 C39.5975722,291.461681 39.5128232,292.194693 38.4804264,292.487898 Z" fill="#90C8C5"></path>
                                        <path d="M97.3193368,132.529337 L97.4580169,132.529337 C97.4279134,132.563846 97.3996254,132.599903 97.3732679,132.63736 C97.3732679,132.63736 97.3193368,132.529337 97.3193368,132.529337 Z" fill="#ECE5D2"></path>
                                        <path d="M121.210847,259.919035 C121.092762,259.718661 120.989751,259.509753 120.902669,259.294046 C120.902669,259.224603 121.056758,259.108865 121.141507,259.016274 L121.210847,259.919035 Z" fill="#90C8C5"></path>
                                        <path d="M42.6562401,273.938846 L43.5653656,273.83854 C43.6290704,274.074901 43.5769909,274.327514 43.4250223,274.51928 C43.2730537,274.711045 43.0392314,274.819203 42.7949203,274.810744 L42.8719648,274.85704 L42.6562401,273.938846 Z" fill="#90C8C5"></path>
                                        <path d="M230.321315,163.045767 C230.321315,163.392983 230.382951,163.740199 230.406064,164.087415 L230.406064,164.087415 L229.288918,163.940813 L230.321315,163.045767 Z" fill="#90C8C5"></path>
                                        <path d="M92.8661627,200.089858 C92.7428524,200.078648 92.6226864,200.044638 92.5117579,199.989551 C92.4578267,199.950971 92.5117579,199.812085 92.4732356,199.719494 L92.819936,200.136153 L92.8661627,200.089858 Z" fill="#90C8C5"></path>
                                        <path d="M96.8801829,3.41899055 C100.724945,10.4889935 103.793803,17.9552369 106.033074,25.687111 C109.684984,38.757865 112.967082,51.92121 117.227644,64.8453617 C117.882523,66.8129191 120.471219,70.5319884 116.711446,71.4270342 C113.159693,72.2757844 114.099636,68.1091922 113.498689,66.0258961 C108.55243,49.0508909 104.738725,31.6900901 98.6290938,14.9928577 C97.2885189,11.3432316 96.3793934,7.45441224 96.8801829,3.41899055 Z" fill="#ECE5D2"></path>
                                        <path d="M11.4146817,20.4943026 C12.602749,20.2551372 13.8179863,20.7541255 14.4964631,21.7597121 C25.5831715,34.3289319 37.8178434,45.8333558 48.8198028,58.4797347 C55.9310133,66.6354531 64.4367298,73.6106371 72.2105232,81.2185258 C75.0226487,83.9731062 77.5574139,87.0208912 80.1229968,90.006949 C80.6314908,90.6010741 81.3171871,91.6350063 80.6237863,92.3757338 C79.9303855,93.1164613 78.6745596,92.9312794 77.7346163,92.4297452 C77.0862673,92.0821282 76.5024831,91.6253685 76.0088188,91.0794607 C67.2873775,81.1259349 57.5181307,72.1754776 48.3883534,62.5923155 C37.3324629,50.9490051 27.1934022,38.4723763 15.9371959,27.0219637 C14.2268072,25.2858836 13.1173659,22.9711102 11.4146817,20.4943026 Z" fill="#ECE5D2"></path>
                                        <path d="M399.842403,124.967744 C399.911743,125.793346 399.988787,126.626665 400.058127,127.452267" fill="#90C8C5"></path>
                                        <path d="M38.3802685,294.115955 L37.4403252,295.342785 L38.3802685,294.115955 Z" fill="#6B7FA7"></path>
                                        <path d="M220.729271,183.570091 C220.81402,182.636466 220.875655,181.695125 220.960404,180.769215 C221.461194,181.725988 220.960404,182.605602 220.683044,183.508364 L220.729271,183.570091 Z" fill="#6B7FA7"></path>
                                        <polygon fill="#90C8C5" points="230.406064 164.087415 230.752765 164.241733 230.436882 164.056551"></polygon>
                                    </g>
                                </g>
                            </g>
                        </g>
                    </g>
                </g>
            </g>
        </g>
    </g>
</svg>