<svg width="178" height="34" viewBox="0 0 178 34" fill="none" xmlns="http://www.w3.org/2000/svg">
<path d="M23.115 27.3652L23.3543 27.2927L23.3005 27.1152H23.115V27.3652ZM12.2632 27.3652V27.1152H12.0764L12.0235 27.2944L12.2632 27.3652ZM10.7553 32.474V32.724H10.9422L10.9951 32.5448L10.7553 32.474ZM1 32.474L0.76596 32.3861L0.639065 32.724H1V32.474ZM12.6216 1.52832V1.27832H12.4484L12.3875 1.44043L12.6216 1.52832ZM23.0438 1.52832L23.2778 1.44044L23.217 1.27832H23.0438V1.52832ZM34.6631 32.474V32.724H35.024L34.8972 32.3861L34.6631 32.474ZM24.6625 32.474L24.4233 32.5465L24.477 32.724H24.6625V32.474ZM21.1334 20.6738V20.9238H21.4717L21.3724 20.6004L21.1334 20.6738ZM17.7196 9.5501L17.9586 9.47675L17.7183 8.6937L17.4804 9.47748L17.7196 9.5501ZM14.3432 20.6738L14.1039 20.6012L14.006 20.9238H14.3432V20.6738ZM23.115 27.3652V27.1152H12.2632V27.3652V27.6152H23.115V27.3652ZM12.2632 27.3652L12.0235 27.2944L10.5155 32.4032L10.7553 32.474L10.9951 32.5448L12.503 27.436L12.2632 27.3652ZM10.7553 32.474V32.224H1V32.474V32.724H10.7553V32.474ZM1 32.474L1.23404 32.5619L12.8556 1.61621L12.6216 1.52832L12.3875 1.44043L0.76596 32.3861L1 32.474ZM12.6216 1.52832V1.77832H23.0438V1.52832V1.27832H12.6216V1.52832ZM23.0438 1.52832L22.8098 1.6162L34.4291 32.5619L34.6631 32.474L34.8972 32.3861L23.2778 1.44044L23.0438 1.52832ZM34.6631 32.474V32.224H24.6625V32.474V32.724H34.6631V32.474ZM24.6625 32.474L24.9018 32.4015L23.3543 27.2927L23.115 27.3652L22.8758 27.4377L24.4233 32.5465L24.6625 32.474ZM21.1334 20.6738L21.3724 20.6004L17.9586 9.47675L17.7196 9.5501L17.4807 9.62344L20.8944 20.7471L21.1334 20.6738ZM17.7196 9.5501L17.4804 9.47748L14.1039 20.6012L14.3432 20.6738L14.5824 20.7464L17.9589 9.62271L17.7196 9.5501ZM14.3432 20.6738V20.9238H21.1334V20.6738V20.4238H14.3432V20.6738Z" fill="#0A090F"/>
<path d="M37.8316 32.4682H37.5816V32.7183L37.8317 32.7182L37.8316 32.4682ZM37.8316 1.52258V1.27258H37.5816V1.52258H37.8316ZM60.5276 2.28279L60.4505 2.52058L60.4518 2.52101L60.5276 2.28279ZM64.3032 5.10076L64.0964 5.24128L64.098 5.24368L64.3032 5.10076ZM64.64 14.557L64.8555 14.6838L64.8556 14.6836L64.64 14.557ZM61.6219 17.5865L61.4943 17.3715L61.4927 17.3724L61.6219 17.5865ZM58.2657 18.8105L58.2102 18.5668L57.341 18.7646L58.1864 19.0476L58.2657 18.8105ZM60.7526 19.952L60.6051 20.1538L60.6065 20.1548L60.7526 19.952ZM63.6193 23.5019L63.3956 23.6136L63.3971 23.6165L63.6193 23.5019ZM68.246 32.4694V32.7194H68.6563L68.4681 32.3547L68.246 32.4694ZM57.4507 32.4694L57.2307 32.5881L57.3015 32.7194H57.4507V32.4694ZM52.3492 23.0109L52.1282 23.1277L52.1292 23.1296L52.3492 23.0109ZM50.6197 20.6262L50.7661 20.4235L50.7626 20.421L50.6197 20.6262ZM48.2787 19.9078V20.1579L48.2819 20.1578L48.2787 19.9078ZM47.4343 19.9078V19.6578H47.1843V19.9078H47.4343ZM47.4343 32.4649L47.4344 32.7149L47.6843 32.7148V32.4649H47.4343ZM47.4286 14.0615H47.1786V14.3115H47.4286V14.0615ZM53.9883 13.6395L53.9413 13.3938L53.9335 13.3956L53.9883 13.6395ZM55.5392 12.6678L55.3417 12.5144L55.3388 12.5184L55.5392 12.6678ZM56.1406 10.8736H55.8906L55.8906 10.8769L56.1406 10.8736ZM51.6258 7.77054L51.6258 8.02054L51.6259 8.02054L51.6258 7.77054ZM47.4286 7.77054V7.52054H47.1786V7.77054H47.4286ZM37.8316 32.4682H38.0816V1.52258H37.8316H37.5816V32.4682H37.8316ZM37.8316 1.52258V1.77258H53.7566V1.52258V1.27258H37.8316V1.52258ZM53.7566 1.52258V1.77258C56.7004 1.77258 58.9264 2.02589 60.4505 2.52058L60.5276 2.28279L60.6048 2.045C59.006 1.52608 56.718 1.27258 53.7566 1.27258V1.52258ZM60.5276 2.28279L60.4518 2.52101C61.9367 2.99378 63.2201 3.95167 64.0964 5.24127L64.3032 5.10076L64.5099 4.96026C63.5708 3.57807 62.1952 2.55133 60.6035 2.04457L60.5276 2.28279ZM64.3032 5.10076L64.098 5.24368C65.0202 6.56732 65.4876 8.18606 65.4876 10.1134H65.7376H65.9876C65.9876 8.10241 65.4987 6.3794 64.5083 4.95785L64.3032 5.10076ZM65.7376 10.1134H65.4876C65.4876 11.7946 65.1297 13.2303 64.4245 14.4303L64.64 14.557L64.8556 14.6836C65.6138 13.3934 65.9876 11.8667 65.9876 10.1134H65.7376ZM64.64 14.557L64.4245 14.4302C63.7113 15.6423 62.7033 16.6541 61.4943 17.3715L61.6219 17.5865L61.7494 17.8015C63.031 17.0411 64.0995 15.9685 64.8555 14.6838L64.64 14.557ZM61.6219 17.5865L61.4927 17.3724C60.7081 17.8459 59.6178 18.2463 58.2102 18.5668L58.2657 18.8105L58.3212 19.0543C59.7562 18.7276 60.9034 18.312 61.751 17.8005L61.6219 17.5865ZM58.2657 18.8105L58.1864 19.0476C59.3171 19.426 60.1167 19.7968 60.6051 20.1538L60.7526 19.952L60.9001 19.7501C60.3485 19.3469 59.4902 18.9567 58.3451 18.5735L58.2657 18.8105ZM60.7526 19.952L60.6065 20.1548C60.9278 20.3862 61.4185 20.9035 62.0859 21.7352L62.2809 21.5787L62.4759 21.4223C61.8094 20.5917 61.2813 20.0246 60.8987 19.7491L60.7526 19.952ZM62.2809 21.5787L62.0859 21.7352C62.7512 22.5642 63.1829 23.1879 63.3956 23.6136L63.6193 23.5019L63.8429 23.3901C63.605 22.9138 63.1445 22.2554 62.4759 21.4223L62.2809 21.5787ZM63.6193 23.5019L63.3971 23.6165L68.0238 32.584L68.246 32.4694L68.4681 32.3547L63.8414 23.3872L63.6193 23.5019ZM68.246 32.4694V32.2194H57.4507V32.4694V32.7194H68.246V32.4694ZM57.4507 32.4694L57.6707 32.3507L52.5693 22.8922L52.3492 23.0109L52.1292 23.1296L57.2307 32.5881L57.4507 32.4694ZM52.3492 23.0109L52.5703 22.8941C51.9225 21.6678 51.3235 20.8261 50.7661 20.4235L50.6197 20.6262L50.4734 20.8289C50.9288 21.1578 51.4828 21.906 52.1282 23.1277L52.3492 23.0109ZM50.6197 20.6262L50.7626 20.421C50.0333 19.9134 49.1638 19.6466 48.2755 19.6579L48.2787 19.9078L48.2819 20.1578C49.0658 20.1479 49.8333 20.3833 50.4769 20.8314L50.6197 20.6262ZM48.2787 19.9078V19.6578H47.4343V19.9078V20.1578H48.2787V19.9078ZM47.4343 19.9078H47.1843V32.4649H47.4343H47.6843V19.9078H47.4343ZM47.4343 32.4649L47.4342 32.2149L37.8315 32.2182L37.8316 32.4682L37.8317 32.7182L47.4344 32.7149L47.4343 32.4649ZM47.4286 14.0615V14.3115H51.4574V14.0615V13.8115H47.4286V14.0615ZM51.4574 14.0615V14.3115C51.926 14.3115 52.7964 14.1638 54.0432 13.8834L53.9883 13.6395L53.9335 13.3956C52.6783 13.6779 51.8614 13.8115 51.4574 13.8115V14.0615ZM53.9883 13.6395L54.0353 13.8851C54.7168 13.7547 55.3249 13.3737 55.7397 12.8172L55.5392 12.6678L55.3388 12.5184C54.9986 12.9748 54.5001 13.2871 53.9414 13.394L53.9883 13.6395ZM55.5392 12.6678L55.7367 12.8211C56.1693 12.2637 56.3998 11.5759 56.3906 10.8703L56.1406 10.8736L55.8906 10.8769C55.8984 11.4693 55.7049 12.0467 55.3417 12.5145L55.5392 12.6678ZM56.1406 10.8736H56.3906C56.3906 9.81803 56.0532 8.97442 55.3525 8.38173L55.1911 8.57261L55.0296 8.76348C55.595 9.24172 55.8906 9.9321 55.8906 10.8736H56.1406ZM55.1911 8.57261L55.3525 8.38173C54.9942 8.07867 54.4963 7.86526 53.8798 7.72659C53.2617 7.58753 52.5089 7.52016 51.6257 7.52054L51.6258 7.77054L51.6259 8.02054C52.4865 8.02017 53.1998 8.0861 53.7701 8.2144C54.3421 8.34307 54.7549 8.53108 55.0296 8.76348L55.1911 8.57261ZM51.6258 7.77054V7.52054H47.4286V7.77054V8.02054H51.6258V7.77054ZM47.4286 7.77054H47.1786V14.0615H47.4286H47.6786V7.77054H47.4286Z" fill="#0A090F"/>
<path fill-rule="evenodd" clip-rule="evenodd" d="M68.7535 1.52258H97.7979V9.16426H88.0527V32.4682H78.4987V9.16426H68.7535V1.52258Z" stroke="#0A090F" stroke-width="0.5"/>
<path fill-rule="evenodd" clip-rule="evenodd" d="M102.501 1.52258H112.078V32.4682H102.501V1.52258Z" stroke="#0A090F" stroke-width="0.5"/>
<path fill-rule="evenodd" clip-rule="evenodd" d="M117.267 22.2304L126.357 21.6648C126.554 23.1422 126.955 24.2682 127.56 25.0427C128.543 26.2954 129.95 26.9214 131.779 26.9206C133.142 26.9206 134.193 26.6005 134.931 25.9602C135.67 25.3199 136.039 24.5778 136.039 23.7338C136.039 22.9314 135.687 22.2149 134.984 21.5844C134.281 20.9539 132.65 20.3544 130.091 19.7857C125.901 18.8438 122.913 17.5915 121.127 16.0288C119.327 14.4662 118.426 12.4748 118.426 10.0546C118.426 8.46482 118.887 6.96288 119.808 5.5488C120.729 4.13473 122.114 3.0227 123.963 2.21271C125.812 1.40348 128.347 0.999247 131.567 1C135.518 1 138.532 1.73494 140.61 3.20483C142.689 4.67472 143.922 7.01454 144.311 10.2243L135.305 10.7515C135.066 9.35927 134.563 8.34604 133.797 7.71178C133.032 7.07752 131.973 6.76114 130.622 6.76265C129.511 6.76265 128.674 6.99833 128.113 7.46969C127.551 7.94105 127.27 8.51422 127.268 9.1892C127.268 9.68243 127.5 10.1259 127.965 10.5196C128.417 10.9276 129.485 11.3077 131.17 11.6599C135.348 12.5604 138.339 13.4714 140.146 14.393C141.952 15.3146 143.267 16.4579 144.09 17.823C144.918 19.2058 145.345 20.7916 145.324 22.4035C145.334 24.3561 144.761 26.2672 143.679 27.8924C142.581 29.5666 141.049 30.8366 139.081 31.7024C137.113 32.5682 134.631 33.0008 131.635 33C126.376 33 122.734 31.9868 120.709 29.9603C118.684 27.9338 117.536 25.3572 117.267 22.2304Z" stroke="#0A090F" stroke-width="0.5"/>
<path fill-rule="evenodd" clip-rule="evenodd" d="M147.956 1.52258H177V9.16426H167.256V32.4682H157.702V9.16426H147.957L147.956 1.52258Z" stroke="#0A090F" stroke-width="0.5"/>
<path fill-rule="evenodd" clip-rule="evenodd" d="M36.023 32.7692C36.2174 32.7692 36.3135 32.7171 36.3135 32.604C36.3142 32.4947 36.1477 32.4324 35.8138 32.4174C35.3097 32.4038 34.9774 32.3585 34.8157 32.2782C34.6541 32.1979 34.5218 32.0124 34.4189 31.7194C32.5734 26.6807 31.4181 23.5351 30.9532 22.2824C30.3601 20.6805 29.9791 19.6273 29.8103 19.1228C29.7843 19.0492 29.7527 19.0096 29.7142 19.0096C29.6487 19.0096 29.5978 19.0809 29.5594 19.2235L29.4757 19.5775C29.3952 19.7408 29.3349 19.9133 29.296 20.0911C28.2508 22.9819 26.8992 26.8127 25.2413 31.5836C25.1373 31.8947 24.996 32.104 24.8151 32.2149C24.6343 32.3257 24.3404 32.3879 23.9334 32.4004C23.5265 32.4128 23.3241 32.4784 23.3241 32.595C23.3241 32.7115 23.4146 32.7692 23.5943 32.7692C23.6792 32.767 23.7636 32.7564 23.8464 32.7375C24.0435 32.6941 24.2448 32.6725 24.4466 32.673C24.6535 32.673 24.8535 32.6787 25.0468 32.6923C25.8351 32.7435 26.5258 32.7692 27.1189 32.7692C27.455 32.7692 27.623 32.7047 27.623 32.5757C27.623 32.4596 27.4346 32.3951 27.0578 32.3823C26.4508 32.3427 26.1286 32.3178 26.0891 32.3042C25.9381 32.2714 25.8374 32.1284 25.8573 31.975C25.8566 31.6651 26.2436 30.4765 27.0183 28.4093H31.1566C31.6088 29.7796 31.8925 30.6654 32.0078 31.0666L32.1073 31.337L32.2655 31.8495C32.2821 31.899 32.2953 31.9497 32.3051 32.0011C32.3059 32.2152 31.738 32.3284 30.6016 32.3404C30.2523 32.3404 30.0782 32.4309 30.0782 32.5667C30.0782 32.7024 30.2071 32.7692 30.466 32.7692C30.5631 32.7694 30.6602 32.763 30.7565 32.7499L33.2151 32.673L35.6748 32.7499C35.7904 32.7633 35.9066 32.7697 36.023 32.7692ZM30.0048 25.0834C30.4901 26.4243 30.8375 27.3851 31.047 27.9658H27.1302C27.8868 25.6814 28.5349 23.8254 29.0744 22.3978L30.0048 25.0834Z" fill="#0A090F"/>
<path fill-rule="evenodd" clip-rule="evenodd" d="M64.1517 32.7692C65.056 32.77 65.5081 32.4989 65.5081 31.9559C65.5081 31.6331 65.3563 31.4743 65.0526 31.4796C64.7677 31.4796 64.6264 31.6153 64.6264 31.8857C64.6343 32.0077 64.6674 32.1267 64.7237 32.2353C64.7349 32.2451 64.7418 32.2589 64.7429 32.2737C64.7429 32.3484 64.6457 32.3869 64.4524 32.3869C63.8329 32.3869 63.4712 31.8555 63.3672 30.7929C63.1976 28.9135 62.8585 27.6148 62.3498 26.8968C61.8412 26.1789 60.9086 25.7026 59.5521 25.4681C59.4221 25.4681 59.3577 25.4432 59.3577 25.3911C59.3712 25.3651 59.4391 25.3459 59.5521 25.3323C60.7888 25.229 61.7684 24.8836 62.4911 24.2961C63.2138 23.7086 63.5752 22.9623 63.5752 22.0573C63.5737 21.1402 63.2217 20.4136 62.5194 19.8774C61.817 19.3412 60.8649 19.073 59.6629 19.073C59.4564 19.0723 59.095 19.0896 58.5788 19.1251C58.1139 19.1424 57.7525 19.1511 57.4948 19.1511L54.9186 19.0923C54.8611 19.0816 54.803 19.0752 54.7445 19.073C54.5377 19.073 54.4348 19.15 54.4348 19.2665C54.4348 19.383 54.5965 19.4407 54.9186 19.4407C55.4736 19.4543 55.8037 19.512 55.9168 19.616C56.026 19.7194 56.0807 20.0293 56.0807 20.5459V31.2432C56.0807 31.6821 56.055 31.934 56.0038 31.9988C55.9526 32.1414 55.6232 32.2191 55.0158 32.2319C54.639 32.2447 54.4506 32.2964 54.4506 32.3869C54.4506 32.5034 54.5931 32.5611 54.8768 32.5611H59.4289C59.6448 32.5611 59.7578 32.4898 59.7578 32.3869C59.7578 32.2839 59.6742 32.2319 59.5058 32.2319C59.0287 32.2191 58.7318 32.2059 58.615 32.1923C58.202 32.1282 57.9956 31.9668 57.9956 31.7081V25.5993C59.0152 25.6272 59.7511 25.8112 60.2032 26.1513C60.6554 26.4915 60.9191 27.0763 60.9945 27.9059C61.1362 29.2755 61.2428 30.1281 61.3144 30.4637C61.4036 30.8399 61.5648 31.1953 61.7892 31.5101C62.3574 32.3495 63.1449 32.7692 64.1517 32.7692ZM59.1045 19.4758C60.7051 19.4758 61.5054 20.3993 61.5054 22.2462C61.5054 23.2915 61.2311 24.0472 60.6825 24.5133C60.1339 24.9794 59.2397 25.2056 58.0001 25.192V20.2699C58.0001 19.9728 58.0777 19.7661 58.2329 19.65C58.3882 19.5338 58.6787 19.4758 59.1045 19.4758Z" fill="#0A090F"/>
<path d="M93.1881 22.7508C93.1881 22.9183 93.1101 23.002 92.9552 23.002C92.8004 23.002 92.6907 22.8345 92.6263 22.4986L92.5483 21.8006C92.4757 21.3819 92.3246 20.9808 92.1029 20.6184C91.8316 20.1915 91.3863 19.9204 90.7668 19.805C90.4491 19.7351 90.1244 19.7024 89.7992 19.7077C89.1922 19.7247 88.8236 19.7383 88.6948 19.7462V31.4502C88.6948 31.9163 88.8176 32.2074 89.0633 32.3236C89.1922 32.388 89.5539 32.4276 90.1473 32.4367C90.3022 32.4491 90.3802 32.5046 90.3802 32.6019C90.3802 32.6991 90.2762 32.7659 90.0693 32.7659C89.9789 32.7666 89.8886 32.7602 89.7992 32.7467C89.0237 32.721 88.4751 32.7082 88.1533 32.7082C87.7272 32.7082 87.327 32.7172 86.9517 32.7376C86.5764 32.758 86.1005 32.7659 85.5195 32.7659C85.2222 32.7659 85.0741 32.715 85.0741 32.6109C85.0741 32.5068 85.3511 32.4299 85.9061 32.4163C86.3063 32.4163 86.5647 32.3322 86.6816 32.1641C86.746 32.0611 86.7776 31.7953 86.7776 31.3722V19.7462C85.4965 19.7598 84.7026 19.8246 84.3959 19.9408C83.5828 20.2387 83.105 21.0332 82.9626 22.3243C82.9241 22.7112 82.8337 22.9058 82.6924 22.9058C82.5511 22.9058 82.4595 22.7701 82.4595 22.4986C82.4595 22.356 82.4663 22.2146 82.4788 22.0721L82.5172 21.6264C82.5564 21.0328 82.6148 20.2511 82.6924 19.2812H83.5639L87.5135 19.3401C87.9785 19.3529 88.7016 19.3529 89.6827 19.3401L92.8976 19.2812C92.9225 20.0053 93.0061 21.0777 93.1485 22.4986C93.15 22.5474 93.1565 22.5959 93.1678 22.6434C93.1772 22.6786 93.184 22.7145 93.1881 22.7508Z" fill="#0A090F"/>
<path d="M114.135 32.6064C114.135 32.7195 114.057 32.7715 113.901 32.7715H113.707C113.632 32.7323 112.751 32.7127 111.064 32.7127C110.74 32.7127 110.415 32.7263 110.092 32.7512C109.924 32.7647 109.664 32.7715 109.314 32.7715C109.146 32.7715 109.061 32.7127 109.061 32.5962C109.061 32.4797 109.23 32.4356 109.565 32.422C110.081 32.4095 110.385 32.3484 110.47 32.2376C110.554 32.1267 110.605 31.7545 110.605 31.1199V20.8956C110.605 20.2609 110.572 19.9034 110.507 19.8265C110.429 19.6964 110.069 19.6195 109.428 19.5935C109.18 19.5822 109.055 19.5358 109.055 19.4566C109.055 19.3536 109.135 19.3027 109.291 19.3027H111.936C112.132 19.3027 112.508 19.3091 113.066 19.322L113.81 19.3027C114.019 19.3027 114.124 19.357 114.124 19.4679C114.124 19.5788 113.832 19.6274 113.25 19.6512C112.92 19.6647 112.718 19.7228 112.646 19.8254C112.573 19.9279 112.536 20.1994 112.533 20.6399V30.9853C112.533 31.7206 112.565 32.1165 112.631 32.1867C112.774 32.3281 113.196 32.4129 113.905 32.4378C114.069 32.4412 114.135 32.4966 114.135 32.6064Z" fill="#0A090F"/>
<path d="M141.679 28.7578C141.679 29.8695 141.256 30.8159 140.41 31.5973C139.585 32.3716 138.489 32.7922 137.358 32.7693C136.661 32.7693 135.828 32.5562 134.86 32.1301C134.679 32.0354 134.482 31.9763 134.279 31.9559C134.124 31.9559 134.028 32.1346 133.989 32.4921C133.976 32.6776 133.892 32.7693 133.738 32.7693C133.608 32.7693 133.543 32.6923 133.543 32.5373C133.541 32.4592 133.548 32.3811 133.562 32.3043C133.662 31.5788 133.713 30.8476 133.717 30.1153C133.717 29.9852 133.705 29.6243 133.679 29.0293C133.665 28.9266 133.658 28.823 133.66 28.7193C133.66 28.5259 133.738 28.4286 133.892 28.4286C134.021 28.4286 134.112 28.5858 134.163 28.8981C134.499 31.2202 135.591 32.3816 137.441 32.3824C138.228 32.3824 138.837 32.1595 139.27 31.7138C139.702 31.2681 139.919 30.6383 139.919 29.8246C139.936 29.1524 139.714 28.4959 139.29 27.9738C138.87 27.4633 138.15 26.9561 137.13 26.4523C135.904 25.8452 135.052 25.2573 134.574 24.6887C134.096 24.12 133.857 23.416 133.857 22.5766C133.857 21.5042 134.203 20.6191 134.894 19.9215C135.585 19.2239 136.46 18.8751 137.518 18.8751C137.956 18.8751 138.563 19.0237 139.338 19.3208C139.528 19.4044 139.731 19.4568 139.938 19.4758C140.038 19.4891 140.14 19.461 140.219 19.3977C140.29 19.2729 140.333 19.1344 140.345 18.9916C140.351 18.8792 140.446 18.7925 140.558 18.797C140.687 18.797 140.752 18.8751 140.752 19.0301C140.753 19.106 140.747 19.1818 140.732 19.2563C140.69 19.6296 140.671 20.0051 140.674 20.3808C140.665 20.8729 140.697 21.3648 140.771 21.8514L140.79 22.1614C140.803 22.304 140.745 22.3741 140.616 22.3741C140.487 22.3741 140.378 22.2259 140.326 21.9284C140.201 21.2011 139.849 20.5326 139.318 20.0199C138.791 19.5101 138.197 19.2548 137.537 19.2541C136.892 19.2541 136.379 19.4611 135.997 19.8751C135.616 20.2892 135.428 20.851 135.432 21.5607C135.432 22.3903 135.71 23.0555 136.265 23.5563C136.575 23.8413 137.246 24.2418 138.278 24.7577C139.492 25.3648 140.364 25.9817 140.893 26.6084C141.409 27.2047 141.688 27.9693 141.679 28.7578Z" fill="#0A090F"/>
<path d="M172.575 22.7508C172.575 22.9183 172.498 23.002 172.348 23.002C172.199 23.002 172.083 22.8345 172.018 22.4986C171.992 22.2655 171.967 22.0336 171.941 21.8006C171.868 21.3821 171.717 20.9811 171.496 20.6184C171.225 20.1915 170.779 19.9204 170.16 19.805C169.842 19.735 169.517 19.7023 169.191 19.7077C168.584 19.7247 168.217 19.7383 168.088 19.7462V31.4502C168.088 31.9163 168.21 32.2074 168.455 32.3236C168.584 32.388 168.946 32.4276 169.541 32.4367C169.695 32.4491 169.767 32.5046 169.767 32.6019C169.767 32.6991 169.664 32.7659 169.457 32.7659C169.366 32.7666 169.275 32.7602 169.186 32.7467C168.412 32.721 167.863 32.7082 167.54 32.7082C167.114 32.7082 166.713 32.7172 166.339 32.7376C165.965 32.758 165.487 32.7659 164.906 32.7659C164.609 32.7659 164.461 32.715 164.461 32.6109C164.461 32.5068 164.739 32.4299 165.294 32.4163C165.694 32.4163 165.952 32.3322 166.068 32.1641C166.132 32.0611 166.165 31.7953 166.165 31.3722V19.7462C164.884 19.7598 164.09 19.8246 163.783 19.9408C162.97 20.2387 162.492 21.0332 162.35 22.3243C162.312 22.7112 162.221 22.9058 162.079 22.9058C161.936 22.9058 161.853 22.7701 161.853 22.4986C161.853 22.356 161.853 22.2146 161.872 22.0721L161.91 21.6264C161.949 21.0328 162.007 20.2511 162.084 19.2812H162.956L166.912 19.3401C167.377 19.3529 168.099 19.3529 169.08 19.3401L172.295 19.2812C172.322 20.0053 172.406 21.0777 172.547 22.4986C172.548 22.5474 172.555 22.596 172.567 22.6434C172.572 22.679 172.574 22.7149 172.575 22.7508V22.7508Z" fill="#0A090F"/>
</svg>
