<svg xmlns="http://www.w3.org/2000/svg" xmlns:xlink="http://www.w3.org/1999/xlink" width="264.916015625" height="48.75" viewBox="0 0 264.916015625 48.75" fill="none"><path d="M34.0724 39.8141L36.313 47.211L50.4943 47.211L33.3469 1.54248L18.2331 1.54248L1.0824 47.211L14.8936 47.211L17.0762 39.8166L17.1556 39.5478L33.9918 39.5478L34.0724 39.8141L34.0724 39.8141ZM17.7162 40.2978L15.5336 47.6921L15.4543 47.961L-0.000402749 47.961L17.6223 1.03564L17.7136 0.79248L33.8665 0.79248L33.9578 1.03566L51.3867 47.4542L51.577 47.961L35.7566 47.961L35.6759 47.6947L33.4353 40.2978L17.7162 40.2978ZM25.9789 13.0902L25.6185 11.9156L25.2616 13.0913L20.1969 29.7768L20.05 30.2607L31.2485 30.2607L31.0996 29.7757L25.9789 13.0902ZM30.2338 29.5107L25.6224 14.4848L21.0614 29.5107L30.2338 29.5107Z" fill-rule="evenodd"  fill="#FFFFFF" fill-opacity="0.4"></path><path d="M55.4131 1.15894L55.4131 47.9526L55.7882 47.9524L70.1923 47.9473L70.5671 47.9472L70.5671 29.1118L71.4611 29.1118L71.4635 29.1118Q72.3454 29.1006 73.1887 29.3593Q74.0303 29.6176 74.7533 30.1202Q75.8208 30.8932 77.233 33.5666L77.2337 33.568L77.2345 33.5694L84.8867 47.7571L84.9929 47.9541L102.025 47.9541L101.743 47.4072L94.8051 33.9602L94.8028 33.9559Q94.277 32.9058 92.7545 31.0084Q91.224 29.1012 90.3909 28.5003Q90.3898 28.4995 90.3887 28.4987Q89.4631 27.8228 87.7302 27.1551Q90.1422 26.4955 91.6648 25.5773Q91.666 25.5766 91.6672 25.5759Q93.1076 24.7208 94.29 23.5339Q95.4734 22.3461 96.3239 20.9007L96.324 20.9006L96.324 20.9005Q98.0221 18.011 98.0221 14.0451Q98.0221 9.49936 95.8056 6.31544Q95.8044 6.31363 95.8031 6.31182Q94.7473 4.75916 93.2428 3.63626Q91.7374 2.51265 89.9479 1.94256L89.9459 1.94192Q86.3764 0.783936 79.6756 0.783936L55.4131 0.783936L55.4131 1.15894ZM56.1631 1.53394L56.1631 47.2023L69.8171 47.1975L69.8171 28.3618L71.4587 28.3618Q72.4555 28.3499 73.4087 28.6423Q74.3642 28.9355 75.1845 29.5066L75.1872 29.5084L75.1899 29.5104Q76.3998 30.3842 77.8946 33.2134L77.8961 33.2162L85.4406 47.2041L100.794 47.2041L94.1363 34.2998L94.1352 34.2976L94.1341 34.2955Q93.6451 33.3166 92.1695 31.4778Q90.7009 29.6477 89.9504 29.1073L89.9494 29.1065L89.9483 29.1057Q88.8253 28.2849 86.3203 27.4465L85.0521 27.022L86.356 26.7252Q89.4951 26.0106 91.2797 24.9337L91.2809 24.933L91.2821 24.9323Q92.6422 24.1253 93.7587 23.0046Q94.8751 21.8841 95.6774 20.5205L95.6775 20.5204Q97.2721 17.8068 97.2721 14.0451Q97.2721 9.73229 95.1877 6.74058L95.1852 6.73696Q94.1994 5.28617 92.7942 4.2373Q91.3889 3.18844 89.7184 2.65657L89.7174 2.65625L89.7164 2.65593Q86.2596 1.53394 79.6756 1.53394L56.1631 1.53394ZM70.1836 20.3423L69.8086 20.3423L69.8086 10.1558L76.4793 10.1558Q80.5402 10.1541 82.0694 11.4476Q83.6257 12.7641 83.6265 15.183Q83.6365 15.9755 83.3846 16.727Q83.1329 17.4779 82.6479 18.1037Q82.1819 18.7279 81.5219 19.1415Q80.8629 19.5544 80.0996 19.7015Q77.249 20.3423 76.2267 20.3423L70.1836 20.3423ZM79.9527 18.966Q80.5812 18.8458 81.1237 18.5059Q81.6661 18.166 82.0488 17.6526L82.0489 17.6525L82.051 17.6496L82.0532 17.6467Q82.4617 17.1205 82.6735 16.4886Q82.8853 15.8567 82.8765 15.1903L82.8765 15.1879L82.8765 15.1854Q82.8765 13.1127 81.585 12.0202Q80.2656 10.9042 76.4795 10.9058L70.5586 10.9058L70.5586 19.5923L76.2267 19.5923Q77.1668 19.5923 79.9408 18.9685L79.9467 18.9671L79.9527 18.966Z" fill-rule="evenodd"  fill="#FFFFFF" fill-opacity="0.4"></path><path d="M102.171 1.15894L145.737 1.15894L145.737 12.6214L131.12 12.6214L131.12 47.5774L116.789 47.5774L116.789 12.6214L102.171 12.6214L102.171 1.15894Z" stroke="rgba(255, 255, 255, 0.4)" stroke-width="0.75"   ></path><path d="M152.793 1.15894L167.158 1.15894L167.158 47.5774L152.793 47.5774L152.793 1.15894Z" stroke="rgba(255, 255, 255, 0.4)" stroke-width="0.75"   ></path><path d="M174.941 32.2206L188.577 31.3721C188.872 33.5883 189.474 35.2773 190.381 36.4391C191.857 38.3181 193.966 39.257 196.709 39.2559C198.754 39.2559 200.331 38.7757 201.438 37.8152C202.546 36.8548 203.1 35.7416 203.1 34.4758C203.1 33.2721 202.573 32.1974 201.518 31.2517C200.463 30.3059 198.017 29.4066 194.178 28.5536C187.893 27.1407 183.411 25.2622 180.732 22.9182C178.031 20.5742 176.681 17.5871 176.681 13.9569C176.681 11.5722 177.372 9.31932 178.753 7.19821C180.134 5.07709 182.212 3.40905 184.986 2.19407C187.76 0.980227 191.562 0.37387 196.392 0.375002C202.318 0.375002 206.839 1.47742 209.957 3.68225C213.075 5.88707 214.925 9.39681 215.508 14.2115L202 15.0022C201.64 12.9139 200.886 11.3941 199.738 10.4427C198.589 9.49127 197.002 9.01671 194.975 9.01897C193.307 9.01897 192.053 9.37249 191.211 10.0795C190.368 10.7866 189.946 11.6463 189.944 12.6588C189.944 13.3987 190.292 14.0638 190.988 14.6544C191.667 15.2664 193.27 15.8365 195.797 16.3648C202.063 17.7155 206.551 19.0821 209.26 20.4645C211.97 21.8469 213.942 23.5619 215.176 25.6095C216.418 27.6837 217.059 30.0625 217.028 32.4802C217.042 35.4092 216.183 38.2758 214.561 40.7135C212.914 43.2249 210.614 45.13 207.663 46.4287C204.711 47.7274 200.988 48.3761 196.494 48.375C188.605 48.375 183.142 46.8551 180.104 43.8154C177.067 40.7757 175.346 36.9108 174.941 32.2206Z" stroke="rgba(255, 255, 255, 0.4)" stroke-width="0.75"   ></path><path d="M220.975 1.15894L264.541 1.15894L264.541 12.6214L249.925 12.6214L249.925 47.5774L235.594 47.5774L235.594 12.6214L220.976 12.6214L220.975 1.15894Z" stroke="rgba(255, 255, 255, 0.4)" stroke-width="0.75"   ></path><path d="M51.2673 47.2895C51.5098 47.41 52.0011 47.4792 52.7573 47.4995C53.2581 47.5222 53.5073 47.6155 53.5073 47.7795C53.5073 47.9492 53.369 48.0295 53.0773 48.0295C52.9028 48.0295 52.7307 48.0195 52.5573 47.9995L48.8673 47.8895L45.1773 47.9995C45.0329 48.019 44.8831 48.0295 44.7373 48.0295C44.3491 48.0295 44.1573 47.9332 44.1573 47.7295C44.1573 47.5259 44.4234 47.3895 44.9473 47.3895C46.652 47.3714 47.4973 47.2008 47.4973 46.8795C47.4827 46.8025 47.4622 46.7239 47.4373 46.6495L47.1973 45.8795L47.0573 45.4795C46.8844 44.8777 46.4556 43.545 45.7773 41.4895L39.5673 41.4895C38.4053 44.5903 37.8273 46.3746 37.8273 46.8395C37.7974 47.0695 37.9509 47.2803 38.1773 47.3295C38.2367 47.3499 38.7168 47.3901 39.6273 47.4495C40.1925 47.4688 40.4773 47.5653 40.4773 47.7395C40.4773 47.933 40.2215 48.0295 39.7173 48.0295C38.8277 48.0295 37.7897 47.9865 36.6073 47.9095C36.3224 47.8895 36.0279 47.8895 35.7233 47.8895L35.7073 47.8895C35.4046 47.8895 35.103 47.9144 34.8073 47.9795C34.6832 48.0079 34.5646 48.0295 34.4373 48.0295C34.1677 48.0295 34.0273 47.9443 34.0273 47.7695C34.0273 47.5947 34.3269 47.4982 34.9373 47.4795C35.5478 47.4609 35.996 47.3658 36.2673 47.1995C36.5386 47.0332 36.7514 46.7162 36.9073 46.2495C39.3942 39.0932 41.4195 33.3457 42.9873 29.0095C43.0457 28.7427 43.1366 28.4844 43.2573 28.2395L43.3773 27.7095C43.435 27.4957 43.519 27.3895 43.6173 27.3895C43.675 27.3895 43.7183 27.4492 43.7573 27.5595C44.0106 28.3163 44.5777 29.8967 45.4673 32.2995C46.1648 34.1786 47.899 38.8916 50.6673 46.4495C50.8216 46.889 51.0249 47.169 51.2673 47.2895ZM42.6563 32.4717L44.0463 36.5017C44.7743 38.5131 45.3021 39.9507 45.6163 40.8217L39.7363 40.8217C40.8713 37.3951 41.847 34.6132 42.6563 32.4717Z" fill-rule="evenodd"  fill="#FFFFFF" ></path><path d="M95.9834 46.7045C95.9834 46.2989 96.1961 46.0945 96.6234 46.0945C97.0789 46.0945 97.3034 46.3203 97.3034 46.8045C97.3034 47.619 96.6298 48.0245 95.2734 48.0245C93.7632 48.0245 92.5757 47.4036 91.7234 46.1445C91.3869 45.6722 91.1472 45.1388 91.0134 44.5745C90.906 44.0711 90.7459 42.7889 90.5334 40.7345C90.4203 39.4901 90.0216 38.6147 89.3434 38.1045C88.6651 37.5943 87.5628 37.3164 86.0334 37.2745L86.0334 46.4345C86.0334 46.8225 86.3439 47.0683 86.9634 47.1645C87.1386 47.1849 87.5878 47.2053 88.3034 47.2245C88.556 47.2245 88.6734 47.3001 88.6734 47.4545C88.6734 47.6089 88.5072 47.7145 88.1834 47.7145L81.3534 47.7145C80.9278 47.7145 80.7134 47.6293 80.7134 47.4545C80.7134 47.3187 80.9982 47.2437 81.5634 47.2245C82.4745 47.2053 82.9665 47.0883 83.0434 46.8745C83.1202 46.7772 83.1634 46.4029 83.1634 45.7445L83.1634 29.6945C83.1634 28.9196 83.0773 28.4495 82.9134 28.2945C82.7438 28.1384 82.2559 28.0549 81.4234 28.0345C80.9401 28.0345 80.6934 27.9493 80.6934 27.7745C80.6934 27.5997 80.8431 27.4845 81.1534 27.4845C81.241 27.4845 81.3371 27.4986 81.4234 27.5145L85.2834 27.6045C85.67 27.6045 86.2159 27.5905 86.9134 27.5645C87.6877 27.5113 88.2236 27.4845 88.5334 27.4845C90.3363 27.4845 91.7698 27.8902 92.8234 28.6945C93.8769 29.4988 94.4034 30.5889 94.4034 31.9645C94.4034 33.322 93.8574 34.4332 92.7734 35.3145C91.6893 36.1958 90.2283 36.7195 88.3734 36.8745C88.2038 36.8949 88.0937 36.9255 88.0734 36.9645C88.0734 37.0426 88.1784 37.0745 88.3734 37.0745C90.4081 37.4263 91.8003 38.1475 92.5634 39.2245C93.3264 40.3015 93.839 42.2454 94.0934 45.0645C94.2494 46.6584 94.7942 47.4545 95.7234 47.4545C96.0133 47.4545 96.1534 47.3965 96.1534 47.2845C96.1534 47.2622 96.1402 47.2392 96.1234 47.2245C96.039 47.0617 95.9952 46.8875 95.9834 46.7045ZM86.3911 28.3486C86.6239 28.1744 87.0624 28.0886 87.7011 28.0886C90.102 28.0886 91.3011 29.4781 91.3011 32.2486C91.3011 33.8165 90.884 34.9495 90.0611 35.6486C89.2381 36.3477 87.9006 36.679 86.0411 36.6586L86.0411 29.2786C86.0411 28.8329 86.1582 28.5228 86.3911 28.3486Z" fill-rule="evenodd"  fill="#FFFFFF" ></path><path d="M138.823 33.0011C138.823 33.2523 138.706 33.3778 138.474 33.3778C138.242 33.3778 138.077 33.1267 137.981 32.6227L137.864 31.5757C137.755 30.9478 137.528 30.3461 137.196 29.8025C136.789 29.1622 136.121 28.7555 135.191 28.5824C134.715 28.4775 134.228 28.4285 133.74 28.4365C132.829 28.4619 132.277 28.4823 132.083 28.4942L132.083 46.0502C132.083 46.7493 132.268 47.186 132.636 47.3602C132.829 47.4569 133.372 47.5163 134.262 47.5299C134.494 47.5486 134.611 47.6317 134.611 47.7777C134.611 47.9236 134.455 48.0237 134.145 48.0237C134.01 48.0248 133.874 48.0152 133.74 47.9949C132.577 47.9564 131.754 47.9372 131.271 47.9372C130.632 47.9372 130.032 47.9507 129.469 47.9813C128.906 48.0118 128.192 48.0237 127.32 48.0237C126.874 48.0237 126.652 47.9473 126.652 47.7912C126.652 47.6351 127.068 47.5197 127.9 47.4994C128.501 47.4994 128.888 47.3732 129.063 47.121C129.16 46.9665 129.208 46.5678 129.208 45.9331L129.208 28.4942C127.286 28.5145 126.095 28.6118 125.635 28.786C124.415 29.2329 123.699 30.4247 123.485 32.3614C123.427 32.9417 123.292 33.2336 123.08 33.2336C122.868 33.2336 122.73 33.03 122.73 32.6227C122.73 32.4089 122.741 32.1968 122.759 31.983L122.817 31.3144C122.876 30.4241 122.963 29.2516 123.08 27.7968L124.387 27.7968L130.311 27.885C131.009 27.9042 132.094 27.9042 133.565 27.885L138.388 27.7968C138.425 28.8828 138.55 30.4914 138.764 32.6227C138.766 32.6959 138.776 32.7687 138.793 32.8399C138.807 32.8928 138.817 32.9467 138.823 33.0011Z"   fill="#FFFFFF" ></path><path d="M170.244 47.7844C170.244 47.9541 170.127 48.0322 169.893 48.0322L169.601 48.0322C169.488 47.9734 168.167 47.9439 165.637 47.9439C165.15 47.9439 164.664 47.9643 164.179 48.0016C163.926 48.022 163.536 48.0322 163.012 48.0322C162.76 48.0322 162.633 47.9439 162.633 47.7692C162.633 47.5944 162.885 47.5282 163.389 47.5078C164.162 47.4892 164.618 47.3975 164.745 47.2312C164.872 47.065 164.949 46.5067 164.949 45.5547L164.949 30.2182C164.949 29.2662 164.9 28.73 164.801 28.6146C164.684 28.4195 164.145 28.3041 163.184 28.2651C162.811 28.2481 162.624 28.1785 162.624 28.0598C162.624 27.9053 162.743 27.829 162.977 27.829L166.944 27.829C167.238 27.829 167.803 27.8386 168.64 27.8578L169.756 27.829C170.069 27.829 170.227 27.9104 170.227 28.0767C170.227 28.243 169.79 28.316 168.916 28.3516C168.42 28.372 168.118 28.4591 168.009 28.6129C167.901 28.7668 167.844 29.174 167.84 29.8347L167.84 45.3528C167.84 46.4558 167.889 47.0497 167.987 47.1549C168.203 47.367 168.835 47.4943 169.898 47.5316C170.144 47.5367 170.244 47.6198 170.244 47.7844Z"   fill="#FFFFFF" ></path><path d="M211.559 42.0117C211.559 43.6792 210.925 45.0989 209.657 46.2709C208.418 47.4323 206.775 48.0632 205.079 48.0289C204.033 48.0289 202.784 47.7093 201.331 47.0701C201.06 46.9282 200.764 46.8395 200.46 46.8088C200.228 46.8088 200.083 47.0769 200.024 47.6131C200.005 47.8914 199.88 48.0289 199.648 48.0289C199.453 48.0289 199.356 47.9135 199.356 47.681C199.353 47.5638 199.363 47.4466 199.385 47.3315C199.534 46.2432 199.611 45.1464 199.617 44.048C199.617 43.8528 199.599 43.3115 199.56 42.419C199.538 42.2649 199.528 42.1095 199.531 41.954C199.531 41.6638 199.648 41.5179 199.88 41.5179C200.073 41.5179 200.209 41.7538 200.285 42.2221C200.789 45.7053 202.428 47.4474 205.202 47.4485C206.383 47.4485 207.297 47.1143 207.946 46.4457C208.595 45.7771 208.919 44.8325 208.919 43.6119C208.946 42.6036 208.612 41.6189 207.976 40.8358C207.346 40.0699 206.266 39.3091 204.736 38.5534C202.897 37.6428 201.619 36.7609 200.902 35.908C200.186 35.055 199.827 33.999 199.827 32.7399C199.827 31.1312 200.346 29.8037 201.382 28.7573C202.419 27.7109 203.731 27.1876 205.318 27.1876C205.976 27.1876 206.886 27.4105 208.048 27.8562C208.333 27.9816 208.637 28.0601 208.948 28.0887C209.099 28.1087 209.251 28.0665 209.37 27.9716C209.476 27.7844 209.54 27.5767 209.558 27.3624C209.568 27.1938 209.71 27.0638 209.879 27.0706C210.072 27.0706 210.169 27.1876 210.169 27.4201C210.171 27.534 210.162 27.6477 210.14 27.7595C210.077 28.3194 210.047 28.8827 210.052 29.4462C210.039 30.1843 210.087 30.9222 210.198 31.6522L210.226 32.1171C210.245 32.3309 210.159 32.4361 209.965 32.4361C209.772 32.4361 209.608 32.2138 209.53 31.7676C209.343 30.6767 208.814 29.6738 208.019 28.9049C207.228 28.1402 206.337 27.7572 205.347 27.7561C204.379 27.7561 203.609 28.0666 203.037 28.6877C202.465 29.3088 202.183 30.1516 202.189 31.2161C202.189 32.4605 202.606 33.4582 203.439 34.2094C203.904 34.637 204.91 35.2377 206.459 36.0115C208.28 36.9222 209.587 37.8475 210.381 38.7876C211.154 39.6821 211.573 40.829 211.559 42.0117Z"   fill="#FFFFFF" ></path><path d="M257.903 33.0011C257.903 33.2523 257.788 33.3778 257.564 33.3778C257.34 33.3778 257.165 33.1267 257.069 32.6227C257.03 32.2732 256.992 31.9253 256.953 31.5757C256.844 30.948 256.617 30.3465 256.285 29.8025C255.878 29.1622 255.21 28.7555 254.281 28.5824C253.804 28.4773 253.316 28.4283 252.828 28.4365C251.918 28.4619 251.366 28.4823 251.173 28.4942L251.173 46.0502C251.173 46.7493 251.357 47.186 251.724 47.3602C251.918 47.4569 252.46 47.5163 253.352 47.5299C253.584 47.5486 253.691 47.6317 253.691 47.7777C253.691 47.9236 253.537 48.0237 253.227 48.0237C253.09 48.0248 252.954 48.0152 252.82 47.9949C251.659 47.9564 250.836 47.9372 250.351 47.9372C249.712 47.9372 249.111 47.9507 248.55 47.9813C247.989 48.0118 247.272 48.0237 246.4 48.0237C245.954 48.0237 245.732 47.9473 245.732 47.7912C245.732 47.6351 246.149 47.5197 246.982 47.4994C247.582 47.4994 247.969 47.3732 248.143 47.121C248.24 46.9665 248.289 46.5678 248.289 45.9331L248.289 28.4942C246.367 28.5145 245.176 28.6118 244.716 28.786C243.496 29.2329 242.779 30.4247 242.566 32.3614C242.509 32.9417 242.373 33.2336 242.159 33.2336C241.946 33.2336 241.82 33.03 241.82 32.6227C241.82 32.4089 241.82 32.1968 241.849 31.983L241.907 31.3144C241.964 30.4241 242.051 29.2516 242.168 27.7968L243.475 27.7968L249.41 27.885C250.106 27.9042 251.19 27.9042 252.662 27.885L257.484 27.7968C257.524 28.8828 257.65 30.4914 257.862 32.6227C257.864 32.696 257.873 32.7688 257.891 32.8399C257.899 32.8933 257.902 32.9472 257.903 33.0011Z"   fill="#FFFFFF" ></path></svg>