<?xml version="1.0" encoding="UTF-8"?>
<svg width="422px" height="240px" viewBox="0 0 422 240" version="1.1" xmlns="http://www.w3.org/2000/svg" xmlns:xlink="http://www.w3.org/1999/xlink">
    <title>编组 4</title>
    <g id="页面-1" stroke="none" stroke-width="1" fill="none" fill-rule="evenodd">
        <g id="首页-收起-第一页" transform="translate(-112, -616)" fill="#FFFFFF">
            <g id="编组-4" transform="translate(112, 616)">
                <path d="M1.72114304,1.18520336 L89.6428665,1.18520336 L89.6428665,11.4287467 L63.3513033,11.4287467 L63.3513033,25.4487455 L70.3572381,25.4487455 C82.1257375,26.5995951 88.0099872,33.3206552 88.0099872,45.6119256 C87.72313,58.8405619 82.2998132,65.741979 71.7400368,66.3161769 L63.8772081,66.3161769 L63.8772081,82.607202 L91.0293428,82.607202 L91.0293428,92.961168 L0,92.961168 L0,82.607202 L28.2260103,82.607202 L28.2260103,66.0033127 L6.03135594,65.89289 L6.03135594,25.0365008 L27.4647355,25.0365008 L27.4647355,11.4471505 L1.72114304,11.4471505 L1.72114304,1.18520336 Z M38.129938,11.4287467 L38.129938,35.1548985 L16.5788735,35.1548985 L16.5788735,56.2897982 L38.5602238,56.2897982 L38.5602238,82.607202 L53.1053535,82.607202 L53.1053535,56.0799951 L69.6989377,56.0799951 C74.6539663,55.7217349 77.1314806,52.2348322 77.1314806,45.6192872 C77.1314806,38.6479357 74.1893557,35.16226 68.305106,35.16226 L53.0060568,35.16226 L53.0060568,11.4361082 L38.129938,11.4287467 Z M109.899396,20.4870867 L120.347617,20.4870867 L120.347617,0 L130.475882,0 L130.475882,20.4870867 L140.821128,20.4870867 L140.821128,30.73063 L130.475882,30.73063 L130.475882,71.1710938 C133.778417,70.6656033 137.154505,70.052144 140.604147,69.3307159 L140.604147,79.5742592 C132.344131,81.2919453 122.144765,82.5495368 110.006048,83.3470339 L110.006048,72.9967487 C113.382136,72.9255874 116.829326,72.7096497 120.347617,72.3489356 L120.347617,30.73063 L109.899396,30.73063 L109.899396,20.4870867 Z M167.5393,53.8089688 L142.328967,53.8089688 L142.328967,43.7789093 L202.127655,43.7789093 L202.127655,53.8089688 L177.777894,53.8089688 L177.777894,63.9457702 L200.83312,63.9457702 L200.83312,73.8838108 L177.777894,73.8838108 L177.777894,84.7751672 C178.340537,84.9179354 178.918595,84.9908716 179.499037,84.9923318 C190.419224,84.9923318 198.176626,84.6684252 202.771245,84.0206122 L202.771245,94.0175449 C196.886995,94.3046439 189.094042,94.4481934 179.392385,94.4481934 C167.109014,93.9427029 159.027977,88.982271 155.149276,79.5668977 C152.278253,88.4007116 146.962814,93.8285995 139.20296,95.8505613 L139.20296,85.1763695 C144.878809,82.7225324 147.716733,75.2469174 147.716733,62.7495246 L147.606404,58.1117723 L157.536075,58.1117723 L157.536075,62.7495246 C157.540498,64.7306299 157.432446,66.7103864 157.212441,68.6792221 C160.014815,74.2862401 163.462005,78.4577633 167.55401,81.1937918 L167.5393,53.8089688 Z M185.857704,39.4540212 L146.315546,39.4540212 L146.315546,1.50910987 L184.886803,1.50910987 C190.344445,1.86982394 194.474452,3.63167904 197.276826,6.79467517 C200.439611,10.2447703 202.019777,14.7377462 202.017328,20.2736028 C202.017328,26.0229434 200.437159,30.5870805 197.276826,33.9660144 C194.479356,37.5633397 190.672982,39.3963561 185.857704,39.4650635 L185.857704,39.4540212 Z M156.333481,10.1257592 L156.333481,16.0554567 L191.675756,16.0554567 C190.167917,12.4630391 186.935258,10.4864732 181.977777,10.1257592 L156.333481,10.1257592 Z M191.24547,25.0070548 L156.333481,25.0070548 L156.333481,30.6128458 L183.397352,30.6128458 C187.192693,29.9723943 189.808733,28.1074781 191.24547,25.018097 L191.24547,25.0070548 Z M228.632522,59.7386663 L238.562193,59.7386663 C237.846276,76.7069505 231.848019,88.8534446 220.567422,96.1781486 L220.567422,83.0194467 C225.370441,77.9252807 228.058808,70.1650206 228.632522,59.7386663 Z M284.981568,1.50910987 C293.744197,1.79620882 300.172739,4.42058769 304.267197,9.38224649 C308.795617,14.4886817 311.124799,20.7790933 311.254743,28.2534814 C311.254743,35.8726458 308.956208,42.4501564 304.359138,47.9860131 C300.98305,53.1611558 294.338751,55.7487271 284.426242,55.7487271 L227.540258,55.6419852 L227.540258,1.50910987 L284.981568,1.50910987 Z M262.032994,10.8913564 L238.326823,10.8913564 L238.326823,23.8292129 L262.032994,23.8292129 L262.032994,10.8913564 Z M238.326823,33.7525305 L238.326823,46.1677198 L262.032994,46.1677198 L262.032994,33.7672535 L238.326823,33.7525305 Z M245.31437,59.7386663 L255.766268,59.7386663 C255.692715,64.7003251 255.655939,70.8116066 255.655939,78.0725109 C255.72704,81.8808662 259.570191,83.7862708 267.18539,83.7887246 C278.316429,83.7887246 287.54612,83.5359794 294.874463,83.0304889 L294.874463,93.1672904 C284.459341,93.5280044 273.613933,93.7083615 262.33824,93.7083615 C250.986541,93.7083615 245.239591,88.1013435 245.097388,76.8873075 C245.254301,70.1294399 245.332758,64.4132262 245.332758,59.7386663 L245.31437,59.7386663 Z M265.46057,59.7386663 L276.666388,59.7386663 C279.743678,66.1403668 282.087755,72.8698316 283.653934,79.7987854 L272.665098,79.7987854 C271.397533,73.1856941 269.002153,66.4989878 265.478958,59.7386663 L265.46057,59.7386663 Z M299.725291,23.8292129 C298.961175,20.9338512 297.561575,18.2454607 295.628382,15.9597571 C292.612704,13.0151524 288.482697,11.3256855 283.238359,10.8913564 L272.466505,10.8913564 L272.466505,23.8292129 L299.725291,23.8292129 Z M272.484893,46.1677198 L283.904015,46.1677198 C289.648514,46.1677198 293.778521,44.4426722 296.294038,40.9925771 C298.162287,39.1963683 299.388173,36.7879271 299.971694,33.7672535 L272.499603,33.7672535 L272.484893,46.1677198 Z M289.722067,59.5399055 L301.358171,59.5399055 C306.315651,70.1085823 310.229903,81.6821054 313.100926,94.2604748 L302.005438,94.1537329 C299.373416,82.1423592 295.246763,70.5087421 289.722067,59.5251825 L289.722067,59.5399055 Z M3.41060513e-13,228.479234 L15.835987,228.479234 L15.835987,214.124287 L25.533966,214.124287 L25.533966,228.479234 L39.1081945,228.479234 L39.1081945,209.825164 L3.55997107,209.825164 L3.55997107,201.197473 L88.6756429,201.197473 L88.6756429,209.825164 L49.0231553,209.825164 L49.0231553,214.893565 L84.9023678,214.893565 L84.9023678,223.410834 L49.0231553,223.410834 L49.0231553,228.479234 L91.4743392,228.479234 L91.4743392,237.537574 L3.41060513e-13,237.537574 L3.41060513e-13,228.479234 Z M0.860571518,146.851113 L19.3922804,146.851113 L19.3922804,142.64401 L28.9836074,142.64401 L28.9836074,146.851113 L47.0813529,146.851113 L47.0813529,155.154898 L28.9836074,155.154898 L28.9836074,158.927673 L34.1543918,158.927673 C37.5304801,159.141157 40.2593009,160.184038 42.3408542,162.056316 C44.6424039,163.779975 45.9676509,166.512258 45.8971476,169.388381 C45.8971476,173.054414 44.9274723,175.857923 42.9881217,177.798908 C42.1531293,178.784736 41.1272791,179.591083 39.9724437,180.169315 C40.7619139,183.26115 42.6289373,185.885528 45.5735139,188.042451 L45.5735139,198.919085 C38.6791347,195.110729 34.1543918,189.215386 31.9992854,181.233053 L28.9836074,181.233053 L28.9836074,198.271272 L19.3922804,198.271272 L19.3922804,181.251457 L16.3766024,181.251457 C15.0109662,189.089013 10.3060182,194.948776 2.26175848,198.830747 L2.3684105,188.800687 C5.52629117,186.717379 7.53796904,184.200969 8.4034441,181.251457 L3.76959746,181.251457 L3.76959746,158.931354 L19.3922804,158.931354 L19.3922804,155.154898 L0.860571518,155.154898 L0.860571518,146.851113 Z M19.3922804,166.359119 L13.0372907,166.359119 L13.0372907,173.477701 L19.3922804,173.477701 L19.3922804,166.359119 Z M28.9836074,173.477701 L33.1834906,173.477701 C35.767657,173.477701 37.060966,172.250782 37.0634178,169.796945 C37.0634178,167.568861 35.4832516,166.418011 32.3229191,166.344396 L28.9836074,166.344396 L28.9836074,173.477701 Z M56.2423941,142.74339 L66.3706589,142.74339 C65.6498383,145.047543 64.9670202,147.240047 64.3222045,149.320901 L90.396786,149.320901 L90.396786,158.062696 L86.0865731,158.062696 C84.7209368,166.616772 81.7395836,173.948837 77.1425135,180.058892 C81.497424,183.893244 86.3998199,187.055504 91.6876432,189.441139 L91.6876432,199.57794 C83.0696692,197.124103 75.8872069,193.026195 70.1402564,187.284216 C64.3908541,192.172259 57.2439425,195.975707 48.6995216,198.694559 L48.6995216,188.561438 C54.875532,186.107601 59.9396644,183.162996 63.8919187,179.727624 C60.841207,175.206791 58.3793613,170.31482 56.5660279,165.170235 C54.4876872,168.305494 51.9442145,171.105548 49.0231553,173.47402 L49.0231553,160.223299 C52.0388333,156.846819 54.4452462,151.022637 56.2423941,142.750751 L56.2423941,142.74339 Z M63.568285,158.059015 C64.8874549,163.351021 67.2301438,168.332961 70.4638901,172.723146 C73.5156608,168.354117 75.5077305,163.333198 76.281942,158.059015 L63.568285,158.059015 Z M122.17909,183.827986 C117.94243,187.928348 113.596666,191.128152 109.141799,193.427397 L109.141799,181.350837 C117.904427,175.461628 125.872682,163.49181 133.046563,145.441384 L174.313542,145.441384 C177.402773,145.441384 180.743311,147.957794 184.335155,152.990614 C190.795571,163.988712 196.792602,172.937857 202.326248,179.838047 L202.326248,195.367155 C200.10004,193.570947 196.79015,189.724557 192.396577,183.827986 L122.17909,183.827986 Z M179.609367,194.719342 C192.603751,195.153672 199.100944,202.378995 199.100944,216.395313 C199.100944,229.33685 193.498648,236.310656 182.294056,237.316729 L119.038371,237.316729 L119.038371,194.726704 L179.609367,194.719342 Z M129.508658,227.073186 L180.260312,227.179928 C185.654207,227.106312 188.351155,223.295503 188.351155,215.7475 C188.351155,208.199497 185.364898,204.430403 179.392385,204.440199 L129.508658,204.440199 L129.508658,227.073186 Z M185.103785,173.584443 C182.652014,169.992025 180.029845,166.038893 177.237279,161.725048 C174.868868,157.482363 171.708536,155.361021 167.756281,155.361021 L140.710799,155.361021 C137.897028,161.710397 134.545488,167.807117 130.692863,173.584443 L185.103785,173.584443 Z M241.669813,143.615729 L252.871953,143.615729 C245.619615,159.141157 234.594002,170.068094 219.795114,176.39654 L219.795114,165.181277 C228.41554,160.293234 235.707106,153.104718 241.669813,143.615729 Z M233.803306,193.972149 C229.473862,197.221708 224.770937,199.94031 219.795114,202.069812 L219.795114,190.306116 C230.641748,183.908963 239.835888,174.492362 247.377535,162.056316 L258.583353,162.056316 C254.707103,170.536777 250.002155,177.868842 244.468509,184.052512 L244.468509,240 L233.803306,240 L233.803306,193.972149 Z M257.829433,171.434881 L313.218611,171.434881 L313.218611,181.571683 L301.450112,181.571683 C301.66832,188.116066 301.776197,197.893381 301.773746,210.903626 C301.773746,219.246672 301.235582,224.961659 300.159255,228.048586 C298.291005,234.673946 292.72426,238.19643 283.459019,238.616036 C273.897113,238.473713 266.498895,237.791547 261.264364,236.569536 L261.264364,226.863383 C268.041871,227.877103 274.881707,228.417027 281.734198,228.479234 C285.539346,228.265751 288.197065,226.829029 289.707356,224.169069 C290.499278,222.512729 290.894013,218.126495 290.891561,211.010367 C290.822912,197.639409 290.715034,187.82406 290.567928,181.564321 L257.814723,181.564321 L257.829433,171.434881 Z M260.845111,146.740691 L310.30223,146.740691 L310.30223,156.77075 L260.845111,156.77075 L260.845111,146.740691 Z M355.986074,144.907674 C359.717669,145.484326 362.626695,148.183547 364.713152,153.005337 C367.223765,164.216919 369.198666,174.424882 370.637855,183.629225 L361.050206,183.629225 C360.616243,181.253911 360.220282,178.88105 359.862323,176.510644 L355.121825,176.510644 L355.121825,189.128274 L369.777284,189.128274 L369.777284,198.617263 L355.121825,198.617263 L355.121825,227.301393 C360.079305,227.087909 365.035559,226.83639 369.990588,226.546838 L369.990588,236.035826 C359.717669,236.825962 346.968461,237.365806 331.742965,237.655359 L331.742965,227.842464 C336.48469,227.842464 341.225188,227.770075 345.964461,227.625299 L345.964461,198.617263 L331.849617,198.617263 L331.849617,189.128274 L345.94975,189.128274 L345.94975,176.503282 L340.34868,176.503282 C339.701413,179.163242 339.08847,181.463714 338.509852,183.404699 L328.061631,183.404699 C331.148411,173.128029 334.846907,160.295687 339.15712,144.907674 L355.986074,144.907674 Z M332.390232,202.169192 L340.576695,202.169192 C341.079308,208.92706 341.618697,216.043188 342.194863,223.517576 L333.898071,223.517576 C333.469012,216.33274 332.966399,209.216612 332.390232,202.169192 L332.390232,202.169192 Z M342.731801,167.014294 L358.453781,167.014294 C357.963427,163.851297 357.425263,160.723882 356.83929,157.632047 C356.263124,155.767131 354.969815,154.437151 352.959363,153.642108 L345.740124,153.642108 C344.6687,158.535059 343.665926,162.992454 342.731801,167.014294 Z M360.616243,202.386357 L368.707086,202.386357 C368.561976,209.392232 367.947655,216.380486 366.868258,223.304092 L358.678118,223.304092 C359.538689,216.190418 360.184731,209.217839 360.616243,202.386357 Z M373.532171,146.096558 L383.87374,146.096558 C384.739215,151.845899 385.889095,157.883565 387.323381,164.209558 L376.871482,164.209558 C375.589206,158.317895 374.476102,152.280228 373.532171,146.096558 Z M408.981098,168.092755 C415.012453,169.101282 418.812698,172.228698 420.381831,177.475002 C421.315956,182.363045 421.855346,191.600515 422,205.187412 C422,213.670327 421.819795,220.392614 421.459385,225.354273 C419.877992,233.476474 415.604556,237.789093 408.639076,238.292129 C402.460613,238.292129 397.755665,237.96945 394.524232,237.324091 L394.524232,227.941844 C397.971421,228.300104 401.634367,228.551623 405.513068,228.696399 C408.455193,228.554076 410.251115,227.116128 410.900834,224.382553 C411.117816,222.586344 411.2686,220.701797 411.33112,218.776762 L384.197373,218.776762 L384.197373,239.587755 L373.962457,239.587755 L373.962457,168.092755 L391.416612,168.092755 L391.416612,143.615729 L402.081815,143.615729 L402.081815,168.092755 L408.981098,168.092755 Z M384.197373,188.583522 L411.349508,188.583522 C411.204854,186.129685 410.989098,183.972762 410.702241,182.112754 C410.488937,178.878596 408.729791,177.260291 405.424804,177.257837 L384.197373,177.257837 L384.197373,188.583522 Z M384.197373,209.070609 L411.673142,209.070609 L411.673142,198.182934 L384.197373,198.182934 L384.197373,209.070609 Z M410.81257,145.879394 L421.260791,145.879394 C420.239266,152.150863 418.800555,158.347082 416.954256,164.426722 L407.024585,164.426722 C408.478485,158.174345 409.74605,151.991902 410.827281,145.879394 L410.81257,145.879394 Z M366.860903,5.46960309 L371.46165,5.46960309 L371.46165,8.22280842 L379.096464,8.22280842 L379.096464,12.5881848 L376.819995,12.5881848 C376.628757,14.9340531 376.374999,17.0701184 376.05872,18.9963806 L379.475263,18.9963806 L379.475263,23.4132875 L371.413841,23.4132875 L371.413841,26.5014416 L379.41642,26.5014416 L379.41642,30.9183486 L377.51875,30.9183486 C377.709988,34.6849887 378.232215,37.8958346 379.085431,40.5508864 L379.085431,48.048586 C376.302672,44.537145 374.50062,38.8270658 373.679277,30.9183486 L371.402808,30.9183486 L371.402808,48.2878351 L366.84987,48.2878351 L366.84987,30.9183486 L364.573401,30.9183486 C364.193376,38.6994663 362.407261,44.4733452 359.215056,48.2399853 L359.262865,41.5005214 C360.116081,38.7178701 360.622372,35.1904791 360.781737,30.9183486 L358.692829,30.9183486 L358.692829,26.5014416 L366.84987,26.5014416 L366.84987,23.4132875 L358.218411,23.4132875 L358.218411,18.9963806 L362.131437,18.9963806 C361.940199,16.8468192 361.718314,14.7107539 361.465781,12.5881848 L358.619275,12.5881848 L358.619275,8.22280842 L366.871936,8.22280842 L366.860903,5.46960309 Z M366.243056,18.9963806 L371.983878,18.9963806 C372.297704,16.8468192 372.550237,14.7107539 372.741475,12.5881848 L365.581078,12.5881848 C365.865484,14.7745537 366.086143,16.910619 366.243056,18.9963806 L366.243056,18.9963806 Z M399.43758,6.08797006 L399.389771,10.4533464 C395.280603,10.7404454 390.586688,10.9306178 385.308025,11.0238636 L385.308025,16.5449972 L399.581009,16.5449972 L399.581009,20.9103736 L395.314928,20.9103736 L395.314928,48.2951966 L390.817154,48.2951966 L390.817154,20.9103736 L385.30067,20.9103736 L385.30067,23.2366113 C385.30067,32.8531992 385.110658,41.0477885 384.730633,47.8203791 L380.416743,47.8203791 C380.733021,42.787559 380.891161,34.8616649 380.891161,24.0426968 L380.891161,6.78363291 C387.881159,6.78363291 394.063299,6.55174529 399.43758,6.08797006 L399.43758,6.08797006 Z M363.400228,65.7456598 L362.591144,67.2179621 L358.041883,67.2179621 L363.602499,55.3696092 L377.022266,55.3696092 C379.456875,55.5904546 381.148596,56.8873075 382.097432,59.2601681 L385.274927,67.6633335 L380.626369,67.6633335 L379.868772,65.7640636 L363.400228,65.7456598 Z M377.246603,68.2117661 C381.703923,68.6559107 384.011039,70.8876756 384.167952,74.9070609 C384.138531,79.3681369 381.909871,81.6146249 377.481973,81.6465248 L364.823481,81.6465248 C364.536624,86.7995828 364.10879,91.529354 363.539979,95.8358383 L359.369517,95.8358383 C360.156536,87.1688853 360.677537,77.9669959 360.932521,68.2301699 L377.246603,68.2117661 Z M364.963232,78.3228023 L376.731732,78.3228023 C378.026266,78.1976566 378.835351,77.5866511 379.151629,76.5192319 L365.073562,76.5192319 C365.025752,77.1523219 364.996331,77.7522851 364.963232,78.3228023 L364.963232,78.3228023 Z M365.15447,73.4826084 L379.129563,73.4826084 C378.747087,72.3759279 377.846061,71.7268879 376.426486,71.5354886 L365.187569,71.5354886 C365.20228,72.2311515 365.183892,72.8826452 365.15447,73.4826084 Z M378.291058,61.7594013 L377.860772,60.8097663 C377.493006,59.7349856 376.643468,59.1791915 375.348933,59.1497454 L367.191892,59.1497454 L365.676697,61.7594013 L378.291058,61.7594013 Z M377.342222,83.7335133 C381.166985,83.9543586 383.111239,85.9947243 383.174985,89.8546101 C383.174985,93.9034415 381.309187,95.9290841 377.577592,95.9315379 L366.544624,95.9315379 L366.496815,83.7335133 L377.342222,83.7335133 Z M370.748185,92.464266 L376.915614,92.464266 C378.210149,92.464266 378.857417,91.5784308 378.857417,89.8067603 C378.857417,88.1945893 378.082657,87.2928041 376.533138,87.1014048 L370.748185,87.1014048 L370.748185,92.464266 Z M392.990649,54.4494203 L397.683338,54.4494203 C397.999617,59.0675419 398.205565,70.2999816 398.301184,88.1467395 C398.109946,90.8680449 397.587719,92.7084228 396.734503,93.6678731 C395.596881,95.3143979 394.125819,96.1364333 392.321316,96.133985 C389.880896,96.120405 387.442894,95.9778841 385.017491,95.7070118 L385.017491,91.2901049 C387.061327,91.5657868 389.122833,91.6888186 391.18492,91.6581805 C392.952647,91.6581805 393.837736,89.6178149 393.840188,85.5370836 C393.74702,68.259616 393.463841,57.8970615 392.990649,54.4494203 L392.990649,54.4494203 Z M386.161242,55.4947549 L390.618561,55.4947549 L390.618561,88.7651064 L386.161242,88.7651064 L386.161242,55.4947549 Z" id="形状结合" fill-rule="nonzero"></path>
            </g>
        </g>
    </g>
</svg>