<?xml version="1.0" encoding="UTF-8"?>
<svg width="266px" height="50px" viewBox="0 0 266 50" version="1.1" xmlns="http://www.w3.org/2000/svg" xmlns:xlink="http://www.w3.org/1999/xlink">
    <title>编组 3</title>
    <g id="页面-1" stroke="none" stroke-width="1" fill="none" fill-rule="evenodd">
        <g id="首页-收起-第一页" transform="translate(-1111, -807)">
            <g id="编组-3" transform="translate(1112, 808)">
                <path d="M33.1725263,39.5477772 L16.8948606,39.5477772 L14.6329433,47.2109435 L0,47.2109435 L17.4323627,0.792450358 L33.0657041,0.792450358 L50.4946756,47.2109435 L35.4937893,47.2109435 L33.1725263,39.5477772 Z M30.2001567,29.5106583 L25.0794744,12.8251148 L20.0147465,29.5106583 L30.2001567,29.5106583 Z" id="形状" stroke-opacity="0.4" stroke="#FFFFFF" stroke-width="0.75"></path>
                <path d="M55.2474149,47.2024591 L55.2474149,0.783965895 L79.1348893,0.783965895 C83.5637709,0.783965895 86.9492993,1.16406981 89.2914745,1.92427763 C91.5989053,2.6589226 93.593163,4.14739904 94.9547457,6.15123674 C96.389215,8.21013292 97.1064497,10.7164431 97.1064497,13.6701672 C97.1064497,16.24605 96.5576436,18.4678478 95.4600316,20.3355608 C94.3581114,22.2082213 92.8007241,23.7714747 90.9328058,24.8798388 C89.7085897,25.6185526 88.0305206,26.2305652 85.8985986,26.7158764 C87.6054927,27.2871636 88.8489255,27.8578851 89.628897,28.4280409 C90.1567907,28.8081448 90.9209367,29.6215219 91.9213349,30.8681723 C92.9217331,32.1148226 93.590926,33.076395 93.9289137,33.7528895 L100.868964,47.204156 L84.676078,47.204156 L77.0238796,33.0164381 C76.054002,31.1804005 75.189251,29.9880507 74.4296266,29.4393888 C73.3999618,28.7226574 72.1722011,28.3459182 70.9180593,28.3618621 L69.6514535,28.3618621 L69.6514535,47.1973684 L55.2474149,47.2024591 Z M69.6429755,19.5923219 L75.6860589,19.5923219 C76.3405567,19.5923219 77.6060322,19.3813416 79.4824853,18.959381 C80.4126868,18.7814741 81.2426174,18.261461 81.8088351,17.5017504 C82.4056266,16.7329079 82.7236933,15.7839583 82.710889,14.8104789 C82.710889,13.3126885 82.2361238,12.1621955 81.2865933,11.3589997 C80.3370628,10.5558039 78.5544323,10.1547717 75.9387018,10.1559006 L69.6429755,10.1559006 L69.6429755,19.5923219 Z" id="形状" stroke-opacity="0.4" stroke="#FFFFFF" stroke-width="0.75"></path>
                <polygon id="路径" stroke-opacity="0.4" stroke="#FFFFFF" stroke-width="0.75" points="101.630284 0.783965895 145.196778 0.783965895 145.196778 12.2464744 130.579095 12.2464744 130.579095 47.2024591 116.247967 47.2024591 116.247967 12.2464744 101.630284 12.2464744"></polygon>
                <polygon id="路径" stroke-opacity="0.4" stroke="#FFFFFF" stroke-width="0.75" points="152.252129 0.783965895 166.617169 0.783965895 166.617169 47.2024591 152.252129 47.2024591"></polygon>
                <path d="M174.399928,31.8455823 L188.035864,30.9971361 C188.330897,33.2132776 188.932266,34.9022513 189.839972,36.064057 C191.315136,37.9430826 193.42445,38.8820297 196.167915,38.8808985 C198.212797,38.8808985 199.78913,38.4006779 200.896916,37.4402368 C202.004701,36.4797956 202.558594,35.3666342 202.558594,34.1007524 C202.558594,32.89709 202.031266,31.8223915 200.976609,30.8766567 C199.921951,29.930922 197.475215,29.031569 193.636399,28.1785977 C187.351411,26.7656519 182.869401,24.887192 180.190369,22.5432179 C177.489859,20.1992438 176.139604,17.2121474 176.139604,13.5819288 C176.139604,11.1972293 176.830274,8.94432172 178.211615,6.82320615 C179.592956,4.70209058 181.670619,3.03404529 184.444604,1.81907029 C187.21859,0.605226556 191.020668,-0.00112968166 195.850839,0 C201.776362,0 206.297936,1.10241605 209.415561,3.30724498 C212.533186,5.51207391 214.38364,9.02181315 214.966923,13.8364627 L201.458156,14.6272146 C201.098691,12.5389056 200.344719,11.0190556 199.196239,10.0676645 C198.047759,9.11627349 196.460122,8.64170923 194.433326,8.64397176 C192.765996,8.64397176 191.511259,8.99749102 190.669116,9.70452954 C189.826973,10.4115681 189.404771,11.2713269 189.40251,12.2838061 C189.40251,13.0236512 189.750671,13.688833 190.446994,14.2793516 C191.12523,14.8913642 192.728128,15.46152 195.255687,15.9898192 C201.521458,17.3405456 206.00912,18.7071097 208.718673,20.0895114 C211.428226,21.4719131 213.400198,23.1869057 214.634587,25.2344893 C215.876329,27.3086507 216.517395,29.6874683 216.486172,32.1052069 C216.5006,35.0341602 215.641611,37.9008356 214.019088,40.3385291 C212.372105,42.8499299 210.072885,44.7549745 207.121427,46.0536629 C204.16997,47.3523512 200.447019,48.0011298 195.952575,48 C188.063559,48 182.600367,46.4801485 179.563,43.4404485 C176.525633,40.4007485 174.804609,36.5357931 174.399928,31.8455823 Z" id="路径" stroke-opacity="0.4" stroke="#FFFFFF" stroke-width="0.75"></path>
                <polygon id="路径" stroke-opacity="0.4" stroke="#FFFFFF" stroke-width="0.75" points="220.433506 0.783965895 264 0.783965895 264 12.2464744 249.384013 12.2464744 249.384013 47.2024591 235.052884 47.2024591 235.052884 12.2464744 220.435201 12.2464744"></polygon>
                <path d="M52.9702411,47.4060862 C52.9702411,47.5757754 52.8261121,47.6538785 52.5344706,47.6538785 C52.3599713,47.6546331 52.1855801,47.6450003 52.0122288,47.6249853 L48.3226246,47.5095966 L44.6347159,47.6249853 C44.4902848,47.6445064 44.3446913,47.6541445 44.1989492,47.6538785 C43.8106591,47.6538785 43.6173618,47.5537158 43.6173618,47.3500887 C43.6173618,47.1464616 43.8784827,47.0107102 44.4024201,47.0107102 C46.1070534,46.99261 46.9588049,46.8229208 46.9576745,46.5016425 C46.9430276,46.4245979 46.9232007,46.3486307 46.8983288,46.2742589 L46.6609462,45.5055666 L46.5117343,45.1000093 C46.3387841,44.4981781 45.9131909,43.1695113 45.2349548,41.1140089 L39.0273992,41.1140089 C37.8653547,44.2147971 37.2848977,45.9976654 37.2860281,46.462614 C37.2560799,46.6925973 37.4071492,46.9072067 37.6336241,46.9564097 C37.6929697,46.9767724 38.1762129,47.014104 39.0867449,47.0734952 C39.6519416,47.0927267 39.9345399,47.1894496 39.9345399,47.3636639 C39.9345399,47.5571096 39.6824622,47.6538785 39.1783067,47.6538785 C38.2886871,47.6538785 37.2526815,47.6153696 36.0702899,47.5384438 C35.780344,47.5180811 35.4802245,47.5095966 35.1699315,47.5095966 C34.8671805,47.5087858 34.5652546,47.5412209 34.2695731,47.6063195 C34.1454271,47.6347039 34.0187608,47.6506204 33.8914565,47.6538785 C33.6218577,47.6538785 33.4862105,47.5672909 33.4862105,47.392511 C33.4862105,47.2177311 33.7897211,47.1193113 34.4001336,47.1006455 C35.0105461,47.0819797 35.4513995,46.9886506 35.7226939,46.8223552 C35.9939884,46.6560597 36.2059371,46.3421346 36.3619314,45.8754892 C38.848797,38.719128 40.8761577,32.9728846 42.4440134,28.6367587 C42.5023246,28.3699697 42.5928561,28.1112723 42.7136122,27.8663695 L42.8390859,27.3352422 C42.896736,27.1214337 42.9730375,27.0145295 43.0713818,27.0145295 C43.1290318,27.0145295 43.1765084,27.0739207 43.2155069,27.1842187 C43.4687151,27.9410328 44.040129,29.5208397 44.9297486,31.9236394 C45.6272014,33.802665 47.3600945,38.5211573 50.1284281,46.0791163 C50.2827268,46.5186114 50.4811109,46.7969018 50.7235803,46.9173811 C50.9660497,47.0378605 51.4645532,47.1057362 52.2207864,47.1260989 C52.7215507,47.1487241 52.9713676,47.2420532 52.9702411,47.4060862 Z M45.0704826,40.4488271 C44.7562332,39.5777556 44.2351218,38.1365283 43.5071485,36.1251451 L42.1116777,32.0967224 C41.302316,34.2382007 40.3301777,37.0222356 39.1952626,40.4488271 L45.0704826,40.4488271 Z" id="形状" fill="#FFFFFF" fill-rule="nonzero"></path>
                <path d="M96.7622449,46.4337668 C96.7622449,47.2482752 96.0840088,47.6549637 94.7275366,47.6538348 C93.217331,47.6538348 92.0360698,47.0242854 91.1837532,45.7651912 C90.8472953,45.2929263 90.6054563,44.7598956 90.4716053,44.1955656 C90.3642179,43.6921542 90.2042672,42.4132629 89.9917533,40.3588918 C89.8787139,39.114504 89.4830762,38.2372106 88.8048401,37.7270116 C88.1266041,37.2168126 87.0227749,36.9407847 85.4933525,36.8989281 L85.4933525,46.0621473 C85.4933525,46.4501701 85.8030803,46.6922601 86.4225359,46.7884173 C86.5977469,46.80878 87.0431219,46.8285771 87.758661,46.8478085 C88.0113039,46.8478085 88.1367776,46.9258656 88.1367776,47.0802828 C88.1367776,47.2347 87.9672186,47.3416042 87.6433609,47.3416042 L80.8152192,47.3416042 C80.3896261,47.3416042 80.1759817,47.2550627 80.1759817,47.0802828 C80.1759817,46.9445314 80.4585801,46.86704 81.0237768,46.8478085 C81.9348739,46.8285771 82.4288559,46.7120571 82.5057226,46.4982487 C82.5825894,46.4009602 82.6210227,46.0231188 82.6210227,45.3647245 L82.6210227,29.3189095 C82.6210227,28.5439952 82.5390692,28.0790467 82.3751622,27.9240639 C82.2056032,27.7679498 81.7104908,27.6814082 80.877956,27.6610455 C80.3947128,27.6610455 80.1522434,27.574504 80.1522434,27.3997241 C80.1522434,27.2249442 80.3065422,27.1095201 80.6168352,27.1095201 C80.7044594,27.1128199 80.7917301,27.1224611 80.877956,27.1384027 L84.7422061,27.2266411 C85.1288006,27.2266411 85.6708243,27.2136316 86.368277,27.1876125 C87.1425966,27.1344432 87.6846202,27.1084242 87.994348,27.1095201 C89.7973256,27.1095201 91.2255777,27.511719 92.2791044,28.316046 C93.3326311,29.120373 93.8605249,30.2103436 93.8627856,31.5859578 C93.8627856,32.9434717 93.320762,34.0628551 92.2367147,34.944108 C91.1526673,35.8253608 89.6831559,36.3434786 87.8281802,36.4984614 C87.6586212,36.5188242 87.5568858,36.5476713 87.5365387,36.5866999 C87.5365387,36.6647569 87.6331873,36.7020885 87.8281802,36.7020885 C89.8628884,37.0539109 91.2617503,37.7683026 92.0247659,38.8452637 C92.7877815,39.9222248 93.2964585,41.8702573 93.5507971,44.6893613 C93.7067914,46.283309 94.2493802,47.0802828 95.1785636,47.0802828 C95.4685096,47.0802828 95.6143303,47.0225885 95.6143303,46.9105936 C95.6126864,46.8883143 95.6023287,46.8675829 95.5855053,46.8528992 C95.5011735,46.6900979 95.4515196,46.5115534 95.4396845,46.3285595 C95.4396845,45.9230022 95.6516333,45.7193751 96.078922,45.7193751 C96.5344706,45.7114562 96.7622449,45.9495868 96.7622449,46.4337668 Z M90.75816,31.8693388 C90.75816,29.0988791 89.5576822,27.7136492 87.1567265,27.7136492 C86.5180542,27.7136492 86.0822875,27.8007563 85.8494265,27.9749706 C85.6165654,28.1491849 85.5001349,28.4591506 85.5001349,28.9048677 L85.5001349,36.2880468 C87.3596321,36.3084095 88.7008439,35.969031 89.5237704,35.2699113 C90.3466968,34.5707916 90.75816,33.4372675 90.75816,31.8693388 Z" id="形状" fill="#FFFFFF" fill-rule="nonzero"></path>
                <path d="M138.282162,32.6261529 C138.282162,32.8772929 138.165166,33.002863 137.93287,33.002863 C137.700574,33.002863 137.536102,32.7517229 137.439453,32.2477458 L137.322458,31.2007632 C137.213542,30.5727951 136.986867,29.9711256 136.654395,29.4275106 C136.247453,28.7872165 135.579391,28.3805279 134.650207,28.2074449 C134.173715,28.1024848 133.686615,28.0535096 133.198782,28.0615121 C132.28825,28.0869655 131.735488,28.1073282 131.542191,28.1192065 L131.542191,45.6752559 C131.542191,46.3743755 131.726445,46.8110425 132.094953,46.9852568 C132.28825,47.0819797 132.830839,47.1413709 133.721024,47.1549461 C133.95332,47.1736119 134.070316,47.2567596 134.070316,47.4026924 C134.070316,47.5486251 133.914321,47.6488293 133.604028,47.6488293 C133.468397,47.6498623 133.33289,47.6402163 133.198782,47.6198946 C132.035607,47.5814317 131.212681,47.5622003 130.730003,47.5622003 C130.090765,47.5622003 129.490527,47.5757754 128.927591,47.6063195 C128.364655,47.6368635 127.650811,47.6488293 126.779278,47.6488293 C126.333338,47.6488293 126.111215,47.5723816 126.111215,47.4162675 C126.111215,47.2601534 126.526635,47.1447647 127.35917,47.124402 C127.959409,47.124402 128.347134,46.9982663 128.522345,46.745995 C128.618993,46.5915778 128.66647,46.1928081 128.66647,45.5581703 L128.66647,28.1192065 C126.744801,28.1395692 125.553931,28.2368577 125.093861,28.411072 C123.874167,28.8579203 123.157497,30.0497045 122.943853,31.9864244 C122.886203,32.5667616 122.750556,32.8586271 122.538607,32.8586271 C122.326658,32.8586271 122.189315,32.655 122.189315,32.2477458 C122.189315,32.0339374 122.199489,31.8218258 122.21814,31.6080174 L122.27579,30.9394418 C122.334571,30.0491388 122.422176,28.8765862 122.538607,27.4217837 L123.845907,27.4217837 L129.770299,27.5100221 C130.467752,27.5292535 131.552364,27.5292535 133.024136,27.5100221 L137.846395,27.4217837 C137.883698,28.5077949 138.009172,30.1164489 138.222816,32.2477458 C138.225036,32.3209377 138.234695,32.3937135 138.251641,32.4649481 C138.265837,32.5178417 138.276039,32.5717285 138.282162,32.6261529 Z" id="路径" fill="#FFFFFF" fill-rule="nonzero"></path>
                <path d="M169.703143,47.4094799 C169.703143,47.5791692 169.586148,47.6572262 169.352156,47.6572262 L169.060515,47.6572262 C168.947475,47.5984006 167.626045,47.5689878 165.096225,47.5689878 C164.60959,47.5689878 164.122956,47.5893505 163.638017,47.6266822 C163.385374,47.6470449 162.995389,47.6572262 162.471451,47.6572262 C162.218808,47.6572262 162.091639,47.5689878 162.091639,47.3942079 C162.091639,47.219428 162.344282,47.1532492 162.847872,47.1328865 C163.621061,47.1142207 164.077175,47.0225885 164.204344,46.856293 C164.331514,46.6899975 164.407815,46.1317199 164.407815,45.1797633 L164.407815,29.8432492 C164.407815,28.8912926 164.358643,28.3550745 164.260299,28.2396859 C164.143303,28.0445432 163.604105,27.9291545 162.642706,27.890126 C162.269676,27.8731571 162.083161,27.8035845 162.083161,27.684802 C162.083161,27.5303848 162.201852,27.4540246 162.435844,27.4540246 L166.403525,27.4540246 C166.697427,27.4540246 167.262624,27.4636404 168.099115,27.4828718 L169.214813,27.4540246 C169.528497,27.4540246 169.686187,27.5354755 169.686187,27.7017709 C169.686187,27.8680664 169.248725,27.9410328 168.375496,27.9766675 C167.879253,27.9970302 167.576873,28.0841374 167.468355,28.237989 C167.359838,28.3918405 167.303318,28.7990947 167.298796,29.4597515 L167.298796,44.9778331 C167.298796,46.0808132 167.347969,46.6747255 167.446313,46.7799328 C167.661653,46.9920444 168.294108,47.1193113 169.357243,47.156643 C169.603103,47.1617336 169.703143,47.2448814 169.703143,47.4094799 Z" id="路径" fill="#FFFFFF" fill-rule="nonzero"></path>
                <path d="M211.017894,41.6366518 C211.017894,43.3041315 210.383743,44.7238648 209.115441,45.8958519 C207.877118,47.0572803 206.234143,47.6881804 204.537348,47.6538325 C203.491734,47.6538325 202.242649,47.334251 200.790094,46.6950882 C200.518911,46.553111 200.223075,46.4644071 199.91856,46.4337668 C199.686264,46.4337668 199.542139,46.7018758 199.482794,47.2380938 C199.464142,47.5163842 199.338668,47.6538325 199.106373,47.6538325 C198.91138,47.6538325 198.814731,47.5384438 198.814731,47.3059695 C198.811593,47.1887468 198.821259,47.0715317 198.843556,46.9564097 C198.992548,45.8681646 199.070146,44.7713205 199.075852,43.6729228 C199.075852,43.4777801 199.0572,42.9364714 199.018202,42.043906 C198.996728,41.8898888 198.987091,41.7344499 198.989377,41.5789575 C198.989377,41.2887889 199.106373,41.1428561 199.338668,41.1428561 C199.531966,41.1428561 199.667613,41.3787242 199.743915,41.8470665 C200.24807,45.3302211 201.88714,47.072364 204.661126,47.0734952 C205.841257,47.0734952 206.755745,46.7392074 207.404591,46.0706318 C208.053437,45.4020562 208.37786,44.4574527 208.37786,43.2368214 C208.404646,42.2285209 208.070266,41.2438701 207.435112,40.4607053 C206.804352,39.6948412 205.724261,38.9340678 204.194839,38.178385 C202.355689,37.2677194 201.077779,36.3859009 200.361109,35.5329296 C199.64444,34.6799584 199.286105,33.6239256 199.286105,32.3648314 C199.286105,30.7561774 199.804391,29.4286418 200.840961,28.3822248 C201.877532,27.3358078 203.189354,26.8125993 204.776426,26.8125993 C205.434315,26.8125993 206.344282,27.0354578 207.506326,27.4811749 C207.792014,27.6065796 208.096033,27.6850778 208.406685,27.7136492 C208.557471,27.7336732 208.709905,27.6914001 208.828887,27.5965636 C208.934571,27.4093682 208.998761,27.2016028 209.017097,26.9873792 C209.026233,26.8187767 209.168978,26.6887718 209.337564,26.6955137 C209.530861,26.6955137 209.62751,26.8125993 209.62751,27.0450736 C209.630124,27.1589079 209.62046,27.2726924 209.598685,27.3844521 C209.535292,27.9443918 209.505848,28.5076603 209.510514,29.0711632 C209.497374,29.8092708 209.546152,30.5471802 209.656335,31.2771234 L209.68516,31.7420719 C209.703811,31.9558803 209.617336,32.0610877 209.424039,32.0610877 C209.230742,32.0610877 209.066269,31.8387948 208.988272,31.392512 C208.802043,30.301668 208.27277,29.2987835 207.477501,28.5298545 C206.686226,27.7651216 205.795476,27.3821895 204.805251,27.3810583 C203.837634,27.3810583 203.067836,27.6915896 202.495857,28.3126522 C201.923878,28.9337149 201.64128,29.7765048 201.648062,30.841022 C201.648062,32.0854098 202.064612,33.0831826 202.897712,33.8343403 C203.362304,34.2619572 204.368919,34.8626571 205.917558,35.6364401 C207.738622,36.5471057 209.045922,37.4724777 209.839458,38.4125561 C210.612756,39.3070294 211.031964,40.4539462 211.017894,41.6366518 Z" id="路径" fill="#FFFFFF" fill-rule="nonzero"></path>
                <path d="M257.361764,32.6261529 C257.361764,32.8772929 257.246464,33.002863 257.022646,33.002863 C256.798829,33.002863 256.624183,32.7517229 256.527534,32.2477458 C256.488535,31.898186 256.451233,31.550323 256.412234,31.2007632 C256.302415,30.573042 256.075802,29.9715371 255.744171,29.4275106 C255.33723,28.7872165 254.669167,28.3805279 253.739984,28.2074449 C253.262939,28.1023534 252.775262,28.0533774 252.286863,28.0615121 C251.376331,28.0869655 250.825264,28.1073282 250.631967,28.1192065 L250.631967,45.6752559 C250.631967,46.3743755 250.815656,46.8110425 251.183034,46.9852568 C251.376331,47.0819797 251.91892,47.1413709 252.8108,47.1549461 C253.043096,47.1736119 253.149918,47.2567596 253.149918,47.4026924 C253.149918,47.5486251 252.99562,47.6488278 252.685327,47.6488278 C252.549132,47.6498525 252.413063,47.6402068 252.278385,47.6198946 C251.117471,47.5814317 250.294545,47.5622003 249.809606,47.5622003 C249.170368,47.5622003 248.570129,47.5757754 248.008889,47.6063195 C247.447649,47.6368635 246.730414,47.6488278 245.858881,47.6488278 C245.41294,47.6488278 245.190818,47.5723816 245.190818,47.4162675 C245.190818,47.2601534 245.607933,47.1447647 246.440468,47.124402 C247.040707,47.124402 247.427867,46.9982663 247.601947,46.745995 C247.698596,46.5915778 247.747768,46.1928081 247.747768,45.5581703 L247.747768,28.1192065 C245.826099,28.1395692 244.63523,28.2368577 244.17516,28.411072 C242.954335,28.8579203 242.237665,30.0497045 242.025151,31.9864244 C241.967501,32.5667616 241.831854,32.8586271 241.61821,32.8586271 C241.404565,32.8586271 241.279092,32.655 241.279092,32.2477458 C241.279092,32.0339374 241.279092,31.8218258 241.307917,31.6080174 L241.365567,30.9394418 C241.423217,30.0491388 241.510257,28.8765862 241.626688,27.4217837 L242.933988,27.4217837 L248.868553,27.5100221 C249.564876,27.5292535 250.648923,27.5292535 252.120695,27.5100221 L256.942954,27.4217837 C256.982517,28.5077949 257.108556,30.1164489 257.32107,32.2477458 C257.322441,32.3210044 257.332112,32.393871 257.349895,32.4649481 C257.357321,32.5183706 257.361286,32.572218 257.361764,32.6261529 L257.361764,32.6261529 Z" id="路径" fill="#FFFFFF" fill-rule="nonzero"></path>
            </g>
        </g>
    </g>
</svg>