<svg width="30" height="30" viewBox="0 0 30 30" fill="none" xmlns="http://www.w3.org/2000/svg">
<circle cx="15" cy="15" r="15" fill="#0A090F" fill-opacity="0.06"/>
<path d="M17.45 12.2C16.246 12.1958 15.0899 12.6707 14.2363 13.5198C13.3828 14.369 12.9021 15.5227 12.9 16.7266V21.3C12.9 21.6866 13.2134 22 13.6 22H15.2333C15.6199 22 15.9333 21.6866 15.9333 21.3V16.7266C15.933 16.2978 16.1152 15.8892 16.4343 15.6027C16.7534 15.3163 17.1793 15.1791 17.6055 15.2255C18.388 15.3241 18.9728 15.9925 18.9667 16.7811V21.3C18.9667 21.6866 19.2801 22 19.6667 22H21.3C21.6866 22 22 21.6866 22 21.3V16.7266C21.9979 15.5227 21.5172 14.369 20.6636 13.5198C19.8101 12.6707 18.6539 12.1958 17.45 12.2V12.2Z" fill="black"/>
<path d="M8.7 12.9H10.8C11.2667 12.9 11.5 13.1334 11.5 13.6V21.3C11.5 21.7667 11.2667 22 10.8 22H8.7C8.23333 22 8 21.7667 8 21.3V13.6C8 13.1334 8.23333 12.9 8.7 12.9Z" fill="black"/>
<path d="M8 9.75C8 10.3752 8.33355 10.9529 8.875 11.2655C9.41645 11.5782 10.0835 11.5782 10.625 11.2655C11.1665 10.9529 11.5 10.3752 11.5 9.75C11.5 9.12479 11.1665 8.54706 10.625 8.23446C10.0835 7.92185 9.41645 7.92185 8.875 8.23446C8.33355 8.54706 8 9.12479 8 9.75V9.75Z" fill="black"/>
</svg>
