<svg width="30" height="30" viewBox="0 0 30 30" fill="none" xmlns="http://www.w3.org/2000/svg">
<circle cx="15" cy="15" r="15" fill="#0A090F" fill-opacity="0.06"/>
<path d="M14.9981 12.6656C13.7128 12.6656 12.6638 13.7146 12.6638 15C12.6638 16.2853 13.7128 17.3343 14.9981 17.3343C16.2835 17.3343 17.3324 16.2853 17.3324 15C17.3324 13.7146 16.2835 12.6656 14.9981 12.6656Z" fill="black"/>
<path fill-rule="evenodd" clip-rule="evenodd" d="M21.9992 15L21.9995 14.6464C22.0004 13.7994 22.0013 12.9577 21.9537 12.1105C21.8994 10.9898 21.6437 9.99512 20.8242 9.17556C20.0029 8.35426 19.01 8.10034 17.8893 8.04605C17.0406 7.99839 16.1987 7.99932 15.3528 8.00026L14.9999 8.00052L14.6463 8.00026C13.7993 7.99932 12.9576 7.99839 12.1105 8.04605C10.9897 8.10034 9.99508 8.35601 9.17554 9.17556C8.35425 9.99687 8.10034 10.9898 8.04605 12.1105C7.99839 12.9592 7.99932 13.8012 8.00026 14.647L8.00052 15L8.00026 15.353C7.99932 16.1992 7.99839 17.0423 8.04605 17.8895C8.10034 19.0102 8.356 20.0049 9.17554 20.8244C9.99683 21.6457 10.9897 21.8997 12.1105 21.9539C12.9591 22.0016 13.801 22.0007 14.6469 21.9997H14.6469L14.9999 21.9995L15.3535 21.9997C16.2004 22.0007 17.0422 22.0016 17.8893 21.9539C19.01 21.8997 20.0047 21.644 20.8242 20.8244C21.6455 20.0031 21.8994 19.0102 21.9537 17.8895C22.0021 17.0562 22.0008 16.2283 21.9996 15.3954C21.9994 15.2637 21.9992 15.1319 21.9992 15ZM14.9981 18.5917C13.0106 18.5917 11.4065 16.9876 11.4065 15C11.4065 13.0124 13.0106 11.4083 14.9981 11.4083C16.9857 11.4083 18.5897 13.0124 18.5897 15C18.5897 16.9876 16.9857 18.5917 14.9981 18.5917ZM17.898 11.2612C17.898 11.7253 18.2728 12.1 18.7368 12.1C19.2009 12.1 19.5739 11.727 19.5756 11.2612C19.5756 10.7972 19.2009 10.4224 18.7368 10.4224C18.2728 10.4224 17.898 10.7972 17.898 11.2612Z" fill="black"/>
</svg>
